<svg width="270" height="72" viewBox="0 0 270 72" fill="none" xmlns="http://www.w3.org/2000/svg">
<path d="M141.439 61.8633C141.462 61.7611 141.537 61.6881 141.621 61.6808C141.858 61.665 141.934 61.5883 141.849 61.4509C141.807 61.3803 141.749 61.3371 141.676 61.3213C141.579 61.3018 141.504 61.3408 141.451 61.4381C141.424 61.4874 141.382 61.5275 141.331 61.5512L140.926 61.7282C140.877 61.7501 140.844 61.8049 140.844 61.8651L140.835 63.2666C140.833 63.3287 140.856 63.3871 140.897 63.4272C141.034 63.5586 141.186 63.5817 141.351 63.4966C141.397 63.4729 141.42 63.4163 141.409 63.3597C141.316 62.8585 141.325 62.3597 141.439 61.8633Z" stroke="black" stroke-opacity="0.996"/>
<path d="M152.472 61.5431C152.312 61.2378 152.106 61.1994 151.855 61.4282C151.812 61.4683 151.786 61.5231 151.784 61.5833C151.779 62.1271 151.782 62.6594 151.791 63.1801C151.794 63.3066 151.816 63.4131 151.859 63.4994C151.976 63.744 152.104 63.7634 152.244 63.5578C152.299 63.4763 152.332 63.365 152.343 63.2239C152.372 62.8516 152.434 62.4191 152.529 61.9264C152.554 61.795 152.534 61.6599 152.472 61.5431Z" stroke="black" stroke-opacity="0.996" stroke-width="2"/>
<path d="M147.439 23.9897C147.919 24.3516 148.286 24.7826 148.538 25.2826C148.79 25.779 148.9 26.317 148.869 26.8965C148.838 27.4833 148.672 28.0237 148.37 28.5176C148.165 28.8563 147.778 29.239 147.212 29.6657C143.81 32.2258 140.403 34.7798 136.992 37.3277C136.488 37.7042 135.921 37.8895 135.29 37.8834C131.244 37.8479 127.198 37.8204 123.152 37.8008C122.389 37.7972 121.838 37.5398 121.498 37.0288C121.338 36.7867 121.255 36.426 121.249 35.9468C121.194 31.6139 121.189 27.281 121.235 22.9481C121.247 21.7133 121.249 20.4901 121.242 19.2785C121.222 16.2464 121.224 13.215 121.249 10.1842C121.255 9.49707 121.347 9.00681 121.525 8.71339C121.769 8.3136 122.135 8.07825 122.625 8.00733C122.661 8.00244 123.072 8 123.859 8C127.745 8 131.63 8 135.516 8C135.943 8 136.312 8.07152 136.622 8.21457C136.727 8.26225 137.027 8.47314 137.523 8.84726C140.75 11.2802 143.983 13.7053 147.221 16.1223C147.689 16.472 148.023 16.7905 148.222 17.0778C148.404 17.3382 148.555 17.617 148.674 17.914C148.793 18.2075 148.857 18.5143 148.865 18.8347C148.905 20.2003 148.289 21.2854 147.019 22.0898C146.833 22.2072 146.645 22.2121 146.455 22.1045C145.777 21.7157 145.101 21.2163 144.428 20.6062C144.336 20.5237 144.326 20.3843 144.403 20.2889C144.977 19.5835 145.095 18.919 144.757 18.2955C144.603 18.0106 144.178 17.6072 143.483 17.0851C140.148 14.5861 136.787 12.078 133.4 9.56065C133.277 9.47078 133.129 9.42127 132.978 9.42127C130.037 9.42127 127.123 9.42433 124.235 9.43044C123.812 9.43166 123.39 9.45917 122.968 9.51296C122.849 9.52947 122.756 9.62667 122.746 9.7477C122.695 10.293 122.67 10.8413 122.672 11.3927C122.691 19.3054 122.7 27.2174 122.7 35.1288C122.7 35.1398 122.693 35.27 122.677 35.5195C122.645 36.0488 122.908 36.3203 123.468 36.3337C126.55 36.4071 129.708 36.4052 132.942 36.3282C133.155 36.3233 133.347 36.2573 133.519 36.1301C136.854 33.6691 140.222 31.164 143.623 28.6148C143.634 28.6063 143.776 28.5097 144.048 28.3251C144.513 28.0109 144.798 27.6086 144.901 27.1184C145.019 26.5596 144.91 26.0865 144.573 25.6989C144.516 25.6341 144.165 25.3572 143.521 24.8682C139.084 21.4963 134.636 18.1384 130.177 14.7946C130.038 14.6907 129.967 14.7261 129.964 14.901C129.899 18.6714 129.893 22.4615 129.947 26.2711C129.956 26.8677 129.949 27.6471 129.927 28.6093C129.911 29.3783 129.909 30.1571 129.922 30.9457C129.926 31.1817 130.011 31.2177 130.177 31.0539C130.373 30.862 130.596 30.6719 130.846 30.4836C133.894 28.1863 136.966 25.875 140.062 23.5496C140.145 23.4873 140.255 23.4873 140.337 23.5478L142.434 25.1378C142.573 25.2423 142.571 25.455 142.43 25.5596C138.885 28.2175 135.321 30.8803 131.736 33.548C131.487 33.7339 131.278 33.8812 131.11 33.99C130.914 34.1159 130.676 34.1856 130.397 34.199C129.467 34.2431 128.536 34.2467 127.605 34.2101C127.073 34.188 126.682 34.0866 126.433 33.9056C126.184 33.7247 126.001 33.4844 125.884 33.1849C125.809 32.993 125.766 32.7032 125.758 32.3156C125.71 30.2763 125.701 28.2377 125.731 26.1996C125.753 24.708 125.759 23.4866 125.751 22.5355C125.706 17.7135 125.697 14.6564 125.724 13.3641C125.737 12.7162 125.964 12.2345 126.404 11.919C126.68 11.7222 127.121 11.6134 127.729 11.5926C128.218 11.5755 128.707 11.5675 129.196 11.5688C130.021 11.5712 130.443 11.5743 130.464 11.5779C130.844 11.6305 131.19 11.7833 131.503 12.0364C131.691 12.188 131.79 12.2669 131.799 12.273C135.842 15.2696 141.056 19.1752 147.439 23.9897Z" fill="black"/>
<path d="M88.447 53.8413C88.2248 53.8051 88.1093 53.6797 88.1005 53.465C87.9831 50.8914 87.9686 48.3715 88.0569 45.9053C88.0626 45.7587 88.1876 45.643 88.3409 45.6412C90.3277 45.6219 92.3127 45.6297 94.2957 45.6647C94.7766 45.6731 95.1263 45.7437 95.3447 45.8763C95.6804 46.0825 95.8836 46.3997 95.9543 46.8278C96.0162 47.215 96.0408 47.6787 96.0282 48.2189C96.0156 48.7231 95.8306 49.1367 95.4734 49.4599C95.3977 49.5286 95.4109 49.648 95.5018 49.6987C95.7126 49.8181 95.8874 49.9682 96.0263 50.1491C96.1449 50.3047 96.2194 50.5091 96.2497 50.7624C96.3217 51.3449 96.3179 51.9286 96.2383 52.5135C96.179 52.9452 95.9966 53.2805 95.6912 53.5193C95.474 53.6893 95.1275 53.793 94.6517 53.8304C93.3187 53.9353 91.9839 53.9588 90.6471 53.901C90.4653 53.8925 90.0993 53.8967 89.5489 53.9136C89.1766 53.9245 88.8092 53.9004 88.447 53.8413ZM93.9444 47.5482C93.9454 47.3561 93.7826 47.2005 93.5827 47.1991L90.5344 47.1838C90.3328 47.1824 90.17 47.338 90.1689 47.5293L90.1635 48.5315C90.1624 48.7237 90.3252 48.8792 90.5251 48.8806L93.5734 48.8959C93.775 48.8973 93.9379 48.7417 93.9389 48.5504L93.9444 47.5482ZM94.1536 50.5832C94.1518 50.4205 94.0117 50.2902 93.8417 50.2915L90.4641 50.3253C90.293 50.3264 90.1567 50.4603 90.1587 50.6232L90.1739 52.0052C90.1756 52.168 90.3158 52.2982 90.4857 52.297L93.8634 52.2632C94.0344 52.262 94.1707 52.1282 94.1687 51.9652L94.1536 50.5832Z" fill="black"/>
<path d="M106.685 51.9987C106.346 52.4194 105.994 52.5178 105.629 52.294C105.458 52.1892 105.253 51.9449 105.012 51.5613C104.471 50.6969 103.925 49.835 103.377 48.9757C103.146 48.6138 103.044 48.6502 103.072 49.085C103.167 50.5709 103.197 52.0345 103.163 53.4756C103.16 53.6156 103.068 53.7384 102.939 53.7729C102.7 53.8381 102.485 53.8733 102.293 53.8784C102.002 53.8874 101.791 53.8765 101.66 53.8458C101.41 53.7895 101.293 53.6041 101.307 53.2896C101.317 53.0837 101.322 52.9737 101.322 52.9596C101.264 50.429 101.268 47.8983 101.337 45.3677C101.338 45.2795 101.397 45.2027 101.477 45.1797C101.986 45.0339 102.499 45.0435 103.017 45.2085C103.072 45.2258 103.121 45.2641 103.152 45.3178L105.91 49.9463C105.966 50.0402 106.096 50.0383 106.152 49.9443L108.901 45.3773C108.946 45.3025 109.021 45.2469 109.109 45.2238C109.638 45.0781 110.08 45.0429 110.434 45.1183C110.583 45.1509 110.689 45.2891 110.689 45.4483V53.3701C110.689 53.6527 110.558 53.8221 110.295 53.8784C109.879 53.9666 109.482 53.9449 109.103 53.8132C108.889 53.7377 108.78 53.5817 108.777 53.3452C108.758 51.8362 108.769 50.4443 108.808 49.1694C108.815 48.9328 108.736 48.8472 108.571 48.9124C108.521 48.9316 108.477 48.9776 108.446 49.0409C107.852 50.2954 107.264 51.2813 106.685 51.9987Z" fill="black"/>
<path d="M134.714 52.1285C134.365 51.7555 134.06 51.3897 133.798 51.0309C133.51 50.6361 133.4 50.6895 133.467 51.191C133.577 52.0114 133.577 52.8287 133.469 53.6427C133.462 53.7005 133.425 53.7507 133.373 53.77C132.894 53.9577 132.449 53.9828 132.04 53.8452C131.826 53.7745 131.719 53.6157 131.719 53.3688V45.6568C131.719 45.3945 131.834 45.2325 132.065 45.1707C132.416 45.0781 132.792 45.055 133.193 45.1013C133.43 45.1283 133.551 45.2736 133.553 45.5372C133.565 46.9016 133.549 48.2037 133.507 49.4433C133.505 49.4858 133.493 49.6144 133.472 49.8291C133.436 50.2034 133.542 50.2959 133.791 50.1069C133.857 50.0555 133.931 49.9738 134.011 49.8619C134.329 49.4183 134.851 48.7727 135.576 47.9253C135.764 47.7067 135.946 47.5356 136.123 47.4122C136.294 47.2926 136.517 47.2212 136.793 47.1981C137.192 47.1646 137.553 47.182 137.877 47.2501C138.231 47.3234 138.288 47.5073 138.049 47.8018C137.36 48.6544 136.576 49.4794 135.697 50.2767C135.574 50.3866 135.573 50.593 135.693 50.7068C136.632 51.589 137.475 52.4782 138.222 53.3746C138.449 53.6485 138.394 53.8054 138.058 53.8452C137.608 53.8979 137.156 53.9185 136.702 53.9069C136.397 53.8992 136.147 53.779 135.952 53.5462C135.827 53.3983 135.762 53.3212 135.756 53.3148C135.576 53.1231 135.401 52.9251 135.233 52.7206C135.056 52.5059 134.883 52.3085 134.714 52.1285Z" fill="black"/>
<path d="M160.666 45.3526L159.512 45.3647C159.283 45.3671 159.098 45.5553 159.101 45.7851L159.107 46.3873C159.11 46.6171 159.298 46.8014 159.528 46.799L160.681 46.7869C160.911 46.7845 161.095 46.5963 161.092 46.3665L161.086 45.7643C161.084 45.5345 160.896 45.3502 160.666 45.3526Z" fill="black"/>
<path d="M151.704 47.511L152.058 46.4518C152.076 46.3952 152.118 46.3477 152.171 46.3221C152.501 46.1577 152.899 46.1407 153.365 46.271C153.512 46.3111 153.612 46.4463 153.612 46.5979V47.2297C153.612 47.5341 153.763 47.6668 154.065 47.6279C154.664 47.5512 155.218 47.5457 155.727 47.6114C155.864 47.6297 155.978 47.7301 156.009 47.8634C156.101 48.236 156.085 48.5629 155.963 48.8441C155.883 49.0316 155.733 49.126 155.515 49.1272L153.695 49.1436C153.642 49.1436 153.599 49.1875 153.596 49.2441C153.552 50.145 153.571 51.0295 153.653 51.8976C153.677 52.1508 153.809 52.2823 154.048 52.2921L155.637 52.356C155.908 52.3669 156.038 52.4814 156.027 52.6993L155.974 53.7421C155.971 53.8279 155.89 53.8973 155.791 53.8991C155.272 53.9101 154.751 53.9144 154.227 53.9119C154.216 53.9119 154.02 53.918 153.638 53.9302C152.617 53.9643 151.988 53.5528 151.748 52.6957C151.677 52.44 151.654 51.9688 151.679 51.2821C151.696 50.8085 151.701 50.3349 151.693 49.8613C151.692 49.8443 151.699 49.7439 151.713 49.56C151.733 49.308 151.623 49.1655 151.382 49.1327C151.375 49.1327 151.268 49.1375 151.062 49.1473C150.7 49.1655 150.525 48.961 150.534 48.5337C150.542 48.1891 150.564 47.9371 150.6 47.7776C150.613 47.7283 150.659 47.69 150.717 47.6863L151.589 47.6096C151.64 47.6059 151.686 47.5658 151.704 47.511Z" fill="black"/>
<path d="M179.556 52.7009C178.581 53.1419 177.573 53.3066 176.533 53.1952C176.026 53.1413 175.65 53.0047 175.405 52.7854C175.07 52.4866 174.9 52.0597 174.894 51.5048C174.888 50.9523 174.885 50.3999 174.884 49.8475C174.88 49.0537 174.949 48.5166 175.09 48.2361C175.357 47.7008 175.865 47.4123 176.614 47.3706C177.397 47.3265 178.039 47.3412 178.539 47.4147C178.755 47.4466 178.957 47.5158 179.145 47.6224C179.345 47.7363 179.524 47.8612 179.684 47.9972C179.748 48.0523 179.843 48.0174 179.861 47.9329C179.97 47.3988 180.384 47.1985 181.103 47.3321C181.331 47.3749 181.458 47.5189 181.482 47.7638C181.525 48.2011 181.535 48.6856 181.513 49.2172C181.488 49.8285 181.478 50.3123 181.484 50.6688C181.501 51.5544 181.492 52.4388 181.458 53.322C181.431 53.9785 181.322 54.4581 181.13 54.7606C180.791 55.2959 180.253 55.5673 179.516 55.5746C178.419 55.5856 177.322 55.5918 176.226 55.593C175.782 55.593 175.551 55.5918 175.533 55.5893C175.179 55.5342 175.031 55.2953 175.09 54.8727C175.13 54.5824 175.157 54.4195 175.171 54.384C175.239 54.2064 175.417 54.1347 175.705 54.169C176.393 54.2523 177.606 54.2241 179.343 54.0845C179.398 54.079 179.448 54.0477 179.478 54C179.706 53.6129 179.766 53.1976 179.658 52.7542C179.647 52.7064 179.599 52.6825 179.556 52.7009ZM177.098 51.6481C177.637 51.7963 178.226 51.7792 178.866 51.5966C179.089 51.5329 179.276 51.438 179.426 51.3119C179.567 51.1918 179.658 51.0099 179.699 50.7661C179.77 50.3521 179.763 50.0049 179.679 49.7243C179.542 49.2723 179.257 49.0029 178.821 48.9159C178.665 48.884 178.377 48.8626 177.955 48.8516C177.642 48.8442 177.353 48.8755 177.089 48.9453C176.828 49.0139 176.699 49.1713 176.703 49.4175L176.727 51.1906C176.73 51.4294 176.854 51.5819 177.098 51.6481Z" fill="black"/>
<path d="M114.566 50.3059C114.657 50.2231 114.77 50.1766 114.904 50.1666C116.135 50.0687 117.308 50.0486 118.422 50.1063C118.579 50.1139 118.717 49.9971 118.743 49.8315C118.86 49.1211 118.669 48.7653 118.17 48.7641C117.684 48.7628 117.154 48.7622 116.581 48.7622C116.403 48.7622 116.241 48.8732 116.168 49.0464C116.009 49.4179 115.748 49.5987 115.383 49.5886C115.223 49.5836 115.082 49.5918 114.959 49.6131C114.79 49.642 114.644 49.6363 114.521 49.5962C114.377 49.5472 114.28 49.406 114.278 49.246C114.274 48.7189 114.374 48.2915 114.578 47.964C114.753 47.6841 115.057 47.5021 115.49 47.418C115.798 47.3603 116.108 47.3308 116.422 47.3295C116.848 47.3295 117.16 47.3233 117.356 47.3107C118.266 47.253 119.081 47.3289 119.802 47.5385C120.04 47.6075 120.228 47.7638 120.367 48.0073C120.458 48.1666 120.514 48.3988 120.537 48.7038C120.645 50.1496 120.676 51.699 120.63 53.3519C120.624 53.5803 120.523 53.7403 120.326 53.832C120.058 53.9562 119.778 53.9656 119.486 53.8602C119.309 53.7949 119.179 53.6713 119.098 53.4893C118.972 53.2032 118.814 53.1392 118.623 53.2973C118.315 53.5521 117.968 53.7102 117.584 53.7717C116.825 53.8935 116.063 53.9223 115.3 53.8583C114.9 53.8244 114.589 53.6675 114.366 53.3877C114.193 53.1705 114.084 52.8511 114.038 52.4294C113.984 51.9299 114.008 51.4292 114.11 50.9271C114.142 50.7715 114.208 50.6454 114.31 50.5487C114.459 50.4057 114.544 50.3247 114.566 50.3059ZM116.182 52.4068C116.679 52.442 117.223 52.442 117.815 52.4068C118.509 52.3654 118.83 51.9996 118.779 51.3093C118.772 51.1945 118.678 51.1079 118.57 51.1154C117.907 51.1606 117.244 51.165 116.583 51.1286C116.046 51.0985 115.838 51.4524 115.956 52.1903C115.976 52.3089 116.069 52.3993 116.182 52.4068Z" fill="black"/>
<path d="M125.82 48.2393L125.908 48.2222C125.955 48.2146 126.005 48.1785 126.044 48.1234C126.398 47.6283 126.884 47.3694 127.502 47.3466C127.544 47.3453 127.733 47.3288 128.068 47.2972C128.31 47.2757 128.539 47.3212 128.755 47.4339C128.811 47.4624 128.85 47.5137 128.866 47.5745C128.987 48.0658 128.98 48.5292 128.842 48.9648C128.809 49.075 128.704 49.1529 128.583 49.1567C128.067 49.1744 127.556 49.2301 127.052 49.3238C126.395 49.4466 126.073 49.8113 126.088 50.4179C126.094 50.685 126.098 50.8262 126.098 50.8414C126.062 51.786 126.044 52.6749 126.044 53.5081C126.044 53.6848 125.914 53.8348 125.733 53.8671C125.17 53.9659 124.646 53.9532 124.163 53.8291C124.088 53.8101 124.032 53.7456 124.026 53.6696C123.971 52.8731 123.957 52.0766 123.985 51.2802C124.032 49.8949 124.03 48.7755 123.977 47.9221C123.957 47.5929 124.075 47.4036 124.329 47.3542C124.434 47.3352 124.628 47.3269 124.912 47.3295C125.416 47.3358 125.685 47.608 125.719 48.1462C125.723 48.2051 125.771 48.2488 125.82 48.2393Z" fill="black"/>
<path d="M141.382 53.5316C140.884 53.1098 140.619 52.5773 140.587 51.934C140.563 51.4443 140.569 50.6732 140.604 49.6208C140.618 49.2091 140.677 48.8352 140.78 48.4991C140.903 48.1076 141.117 47.8142 141.422 47.6191C141.746 47.4126 142.12 47.3056 142.544 47.2981C143.766 47.2742 144.985 47.3207 146.198 47.4378C146.664 47.4831 147.004 47.6046 147.218 47.8023C147.503 48.0679 147.67 48.4217 147.72 48.8635C147.786 49.459 147.776 50.052 147.689 50.6424C147.669 50.7935 147.538 50.9049 147.383 50.9068L142.877 50.9407C142.816 50.9407 142.762 50.9728 142.735 51.0257C142.529 51.4235 142.575 51.7943 142.871 52.138C142.909 52.1814 142.964 52.2116 143.028 52.2211C143.838 52.3507 144.651 52.3652 145.468 52.2645C145.524 52.2569 145.574 52.2229 145.602 52.1701C145.854 51.7018 146.302 51.45 146.944 51.4147C147.399 51.3895 147.664 51.5318 147.739 51.8415C147.781 52.0203 147.776 52.2714 147.721 52.595C147.656 52.9915 147.469 53.3037 147.161 53.5316C146.948 53.6889 146.624 53.7903 146.189 53.8356C144.758 53.9804 143.348 53.9634 141.957 53.7846C141.74 53.7569 141.549 53.6726 141.382 53.5316ZM145.845 49.1352C145.846 48.9523 145.699 48.8012 145.515 48.8005L143.002 48.783C142.818 48.7823 142.667 48.9296 142.666 49.1131L142.664 49.4681C142.663 49.651 142.811 49.8021 142.995 49.8027L145.508 49.8202C145.691 49.8209 145.842 49.6737 145.843 49.4902L145.845 49.1352Z" fill="black"/>
<path d="M166.472 48.0402C166.866 47.6341 167.302 47.406 167.78 47.3557C168.622 47.2664 169.459 47.3016 170.288 47.4613C170.728 47.5455 171.053 47.7535 171.264 48.0854C171.401 48.2979 171.482 48.6436 171.509 49.1225C171.592 50.6185 171.58 52.115 171.471 53.6122C171.467 53.6726 171.429 53.7235 171.376 53.7442C171.031 53.8724 170.57 53.8951 169.993 53.8121C169.754 53.7769 169.628 53.6392 169.614 53.3991C169.562 52.45 169.548 51.4387 169.57 50.3651C169.58 49.8774 169.585 49.631 169.585 49.626C169.548 49.2841 169.373 49.0785 169.062 49.0094C168.921 48.9779 168.61 48.966 168.128 48.9735C167.706 48.9811 167.31 49.0584 166.938 49.2055C166.582 49.3475 166.404 49.6266 166.404 50.0427C166.405 51.0961 166.406 52.2137 166.406 53.3954C166.406 53.6141 166.301 53.7555 166.091 53.8196C165.609 53.9705 165.136 53.9705 164.672 53.8196C164.49 53.7593 164.369 53.5915 164.369 53.4029V47.8082C164.369 47.5656 164.486 47.4122 164.721 47.3481C164.953 47.2853 165.236 47.2752 165.572 47.318C165.791 47.3456 165.963 47.4336 166.089 47.5819C166.202 47.7139 166.295 47.861 166.37 48.0232C166.389 48.0628 166.442 48.0722 166.472 48.0402Z" fill="black"/>
<path d="M160.73 47.291H159.707C159.531 47.291 159.388 47.47 159.388 47.6908V53.532C159.388 53.7528 159.531 53.9318 159.707 53.9318H160.73C160.906 53.9318 161.049 53.7528 161.049 53.532V47.6908C161.049 47.47 160.906 47.291 160.73 47.291Z" fill="black"/>
<path d="M98.5145 50.6111C99.1258 50.6111 99.6213 50.1156 99.6213 49.5043C99.6213 48.8931 99.1258 48.3975 98.5145 48.3975C97.9032 48.3975 97.4077 48.8931 97.4077 49.5043C97.4077 50.1156 97.9032 50.6111 98.5145 50.6111Z" fill="black"/>
<path d="M102.751 61.0681C103.019 61.1699 103.143 61.0796 103.122 60.7971C103.073 60.1111 103.315 59.879 103.846 60.1008C103.897 60.1214 103.931 60.1694 103.937 60.2226C104.033 61.1293 104.065 62.0388 104.034 62.9513C104.034 62.9627 104.039 63.1085 104.048 63.3886C104.064 63.8585 103.81 64.0003 103.286 63.8139C103.004 63.7145 102.725 63.7082 102.448 63.7951C102.318 63.8351 102.205 63.8562 102.109 63.8585C101.994 63.8608 101.879 63.8654 101.764 63.8722C101.154 63.9088 100.819 63.631 100.76 63.0387C100.715 62.5825 100.718 62.1263 100.769 61.6701C100.809 61.3065 100.977 61.0944 101.272 61.0338C101.278 61.0327 101.517 61.0155 101.991 60.9824C102.291 60.9606 102.545 60.9892 102.751 61.0681ZM103.104 62.2144C103.122 61.9377 102.908 61.701 102.628 61.684L102.156 61.6555C101.876 61.6392 101.634 61.8485 101.617 62.1248L101.587 62.611C101.569 62.8878 101.784 63.1245 102.063 63.1414L102.536 63.1699C102.816 63.1862 103.058 62.977 103.074 62.7006L103.104 62.2144Z" fill="black" fill-opacity="0.996"/>
<path d="M107.016 60.7734C107.013 60.6899 106.927 60.6665 106.759 60.7031C106.372 60.7865 106.214 60.6625 106.286 60.3309C106.335 60.1114 106.491 60.008 106.755 60.0206C107.334 60.0468 107.503 60.2618 107.264 60.6653C107.231 60.7168 107.219 60.7717 107.225 60.8248C107.339 61.7554 107.359 62.6883 107.286 63.6235C107.28 63.6818 107.249 63.7332 107.201 63.7658C106.928 63.9419 106.658 63.9356 106.389 63.747C106.341 63.7127 106.312 63.6612 106.312 63.6029C106.299 62.9696 106.294 62.3368 106.298 61.7046C106.298 61.6966 106.287 61.5697 106.265 61.3239C106.233 60.9649 106.444 60.806 106.898 60.8471C106.963 60.8523 107.018 60.818 107.016 60.7734Z" fill="black" fill-opacity="0.996"/>
<path d="M115.658 60.039L115.074 60.0187C114.973 60.0151 114.889 60.0939 114.885 60.1947L114.873 60.5412C114.87 60.6419 114.948 60.7264 115.049 60.7299L115.633 60.7503C115.733 60.7538 115.818 60.675 115.822 60.5743L115.834 60.2278C115.837 60.1271 115.758 60.0426 115.658 60.039Z" fill="black" fill-opacity="0.996"/>
<path d="M128.59 60.1143L128.429 60.1095C128.24 60.1039 128.082 60.2528 128.076 60.4422L127.976 63.8205C127.97 64.0099 128.119 64.168 128.308 64.1736L128.469 64.1784C128.658 64.184 128.817 64.035 128.822 63.8456L128.922 60.4674C128.928 60.278 128.779 60.1199 128.59 60.1143Z" fill="black" fill-opacity="0.922"/>
<path d="M119.592 61.0868L120.369 61.2195C120.44 61.2308 120.498 61.2535 120.53 61.281C120.705 61.431 120.689 61.5891 120.483 61.7553C120.372 61.8438 120.148 61.8605 119.812 61.8055C119.464 61.7483 119.298 61.8308 119.312 62.0531C119.326 62.2798 119.331 62.412 119.329 62.4497C119.283 63.0012 119.591 63.2515 120.254 63.2008C120.321 63.196 120.383 63.2057 120.429 63.2283C120.633 63.333 120.682 63.4792 120.574 63.667C120.549 63.7123 120.501 63.7463 120.445 63.7658C119.902 63.9363 119.36 63.9363 118.818 63.7658C118.763 63.748 118.718 63.7123 118.694 63.6654C118.471 63.2305 118.393 62.7411 118.46 62.1972C118.483 62.0105 118.399 61.8772 118.209 61.7974C117.938 61.6841 117.837 61.533 117.903 61.3441C117.92 61.3004 117.965 61.2648 118.025 61.247C118.334 61.1618 118.545 60.9859 118.658 60.7193C118.68 60.6675 118.721 60.627 118.772 60.6125C119.137 60.5013 119.375 60.6265 119.485 60.988C119.501 61.0398 119.543 61.0787 119.592 61.0868Z" fill="black"/>
<path d="M115.49 60.9326L115.176 60.9348C114.983 60.9361 114.827 61.0941 114.828 61.2876L114.846 63.7767C114.847 63.9702 115.005 64.126 115.198 64.1246L115.512 64.1224C115.706 64.1211 115.861 63.9631 115.86 63.7696L115.843 61.2805C115.841 61.087 115.683 60.9312 115.49 60.9326Z" fill="black"/>
<path d="M111.696 63.6626C111.51 63.6241 111.347 63.6656 111.207 63.7869C111.156 63.8307 111.095 63.857 111.037 63.8622C110.766 63.8821 110.499 63.8698 110.235 63.8255C110.21 63.8208 110.025 63.7974 109.678 63.7554C109.345 63.7157 109.139 63.5687 109.063 63.3142C109.037 63.2279 109.026 62.974 109.03 62.5527C109.031 62.2492 109.052 61.9399 109.091 61.6248C109.12 61.3995 109.265 61.2624 109.525 61.2134C110.198 61.0862 110.891 61.0978 111.604 61.2484C111.667 61.2624 111.735 61.2589 111.803 61.2414C112.101 61.1585 112.399 61.1556 112.697 61.2326C112.755 61.2466 112.798 61.2939 112.802 61.3499C112.84 61.7654 112.865 62.1821 112.876 62.5999C112.895 63.2547 112.904 63.5944 112.903 63.6189C112.882 63.9667 112.794 64.3011 112.638 64.622C112.541 64.8193 112.367 64.9278 112.117 64.9477C111.194 65.0177 110.274 65.0171 109.354 64.9459C109.286 64.9407 109.229 64.9092 109.196 64.8636C109.069 64.6851 109.081 64.5187 109.233 64.3647C109.278 64.3209 109.342 64.2947 109.408 64.2929L111.396 64.2421C111.474 64.2404 111.54 64.2229 111.579 64.1914C111.72 64.0793 111.792 63.9404 111.796 63.7747C111.799 63.7222 111.757 63.6749 111.696 63.6626ZM111.799 62.4252C111.815 62.1097 111.528 61.8436 111.158 61.8311L110.72 61.8154C110.35 61.8016 110.038 62.0467 110.023 62.3617L110.009 62.6556C109.992 62.9711 110.28 63.2372 110.649 63.2498L111.088 63.2654C111.458 63.2792 111.77 63.0341 111.784 62.7191L111.799 62.4252Z" fill="black"/>
<path d="M122.743 63.8292C122.531 63.7904 122.405 63.6781 122.364 63.492C122.254 63.0059 122.315 62.6058 122.547 62.2918C122.576 62.2515 122.574 62.2014 122.543 62.1627C122.317 61.8842 122.295 61.6341 122.477 61.4126C122.6 61.262 122.814 61.1755 123.118 61.1529C123.827 61.1002 124.535 61.1249 125.243 61.2271C125.424 61.2529 125.559 61.3852 125.572 61.5465C125.618 62.0896 125.635 62.6349 125.621 63.1823C125.621 63.1941 125.624 63.2818 125.631 63.4452C125.646 63.856 125.384 63.9738 124.844 63.7985C124.695 63.7501 124.532 63.7437 124.379 63.7808C123.832 63.912 123.287 63.9281 122.743 63.8292ZM122.955 62.2757C123.458 62.3359 123.96 62.3332 124.463 62.2676C124.52 62.2611 124.567 62.2256 124.585 62.1789C124.722 61.825 124.605 61.6643 124.234 61.6965C124.184 61.7008 124.007 61.7143 123.702 61.7368C123.372 61.7616 123.105 61.9052 122.9 62.1676C122.867 62.2111 122.896 62.2692 122.955 62.2757ZM124.637 62.9704C124.633 62.8161 124.487 62.6935 124.31 62.6976L123.458 62.7186C123.282 62.7225 123.143 62.8516 123.148 63.007L123.15 63.0748C123.154 63.2291 123.301 63.3517 123.477 63.3475L124.33 63.3265C124.505 63.3226 124.644 63.1936 124.639 63.0381L124.637 62.9704Z" fill="black" fill-opacity="0.996"/>
<path d="M135.526 62.3951C135.477 62.3913 135.431 62.3791 135.387 62.3586C135.345 62.3394 135.312 62.306 135.288 62.2586C135.152 61.9906 135.181 61.6778 135.376 61.32C135.413 61.2508 135.481 61.2047 135.556 61.197C136.376 61.1085 137.144 61.1027 137.86 61.1796C138.092 61.2053 138.226 61.3425 138.262 61.5912C138.38 62.4041 138.391 63.2548 138.294 64.1434C138.266 64.4088 138.135 64.4998 137.901 64.4165L137.405 64.2396C137.35 64.2203 137.293 64.2203 137.238 64.2357C136.665 64.4165 136.082 64.4556 135.488 64.353C135.313 64.3223 135.171 64.1895 135.117 64.0088C134.986 63.5664 135.019 63.1292 135.217 62.6971C135.249 62.6259 135.322 62.5894 135.394 62.6048C135.597 62.6535 135.682 62.6125 135.649 62.4817C135.636 62.4336 135.586 62.399 135.526 62.3951ZM137.555 62.1389C137.548 61.9528 137.168 61.8163 136.705 61.8338C136.242 61.8528 135.872 62.0182 135.878 62.2052C135.885 62.3913 136.265 62.5279 136.728 62.5103C137.191 62.4913 137.561 62.3259 137.555 62.1389ZM136.206 63.7299C136.658 63.8709 137.036 63.7748 137.341 63.4414C137.453 63.3183 137.403 63.1087 137.25 63.0606C137.047 62.9965 136.847 62.9869 136.65 63.0317C136.597 63.0433 136.538 63.0446 136.474 63.0356C136.275 63.0035 136.127 63.0837 136.031 63.276C135.913 63.5055 135.971 63.6568 136.206 63.7299Z" fill="black" fill-opacity="0.996"/>
<path d="M140.837 63.6986C140.68 63.6462 140.573 63.5013 140.573 63.339V61.721C140.573 61.4569 140.703 61.2905 140.963 61.2218C141.536 61.0717 142.136 61.0979 142.763 61.3004C142.816 61.3178 142.875 61.3178 142.932 61.3021L143.474 61.1538C143.704 61.0898 143.827 61.1759 143.845 61.4121C143.918 62.3674 143.908 63.3542 143.817 64.3723C143.783 64.7388 143.608 64.9314 143.292 64.95C142.579 64.9908 141.865 65.0065 141.151 64.9972C140.947 64.9948 140.804 64.9681 140.721 64.9169C140.554 64.8156 140.53 64.6434 140.648 64.4002C140.678 64.3409 140.739 64.3025 140.808 64.299L142.702 64.2048C142.757 64.203 142.813 64.1786 142.854 64.1367C143.123 63.8632 143.104 63.7137 142.795 63.6881C142.71 63.6811 142.599 63.6968 142.459 63.7352C141.92 63.8877 141.379 63.8754 140.837 63.6986ZM141.297 61.9497C141.32 61.8519 141.393 61.7821 141.475 61.7751C141.707 61.76 141.781 61.6867 141.698 61.5552C141.656 61.4877 141.6 61.4464 141.529 61.4313C141.433 61.4127 141.36 61.4499 141.309 61.543C141.282 61.5901 141.241 61.6285 141.192 61.6512L140.796 61.8205C140.748 61.8415 140.715 61.8938 140.715 61.9514L140.706 63.2919C140.705 63.3512 140.728 63.4071 140.767 63.4455C140.901 63.5712 141.049 63.5933 141.211 63.5118C141.256 63.4891 141.279 63.435 141.268 63.3809C141.177 62.9015 141.186 62.4244 141.297 61.9497ZM142.955 62.3399C142.945 62.0457 142.693 61.8153 142.393 61.8255L141.926 61.8407C141.627 61.8502 141.391 62.0963 141.401 62.3904L141.411 62.7009C141.422 62.9952 141.673 63.2256 141.973 63.2153L142.44 63.2002C142.739 63.1907 142.975 62.9446 142.965 62.6505L142.955 62.3399Z" fill="black" fill-opacity="0.996"/>
<path d="M149.412 63.3087C149.408 63.6341 149.109 63.8952 148.743 63.893L146.764 63.8776C146.397 63.8755 146.103 63.6079 146.107 63.2831L146.122 61.7103C146.125 61.3848 146.425 61.1238 146.791 61.126L148.77 61.1414C149.137 61.1435 149.43 61.4111 149.427 61.7359L149.412 63.3087ZM148.671 61.9824C148.675 61.8724 148.306 61.7707 147.846 61.7576C147.387 61.7444 147.01 61.8232 147.007 61.9333C147.002 62.0432 147.372 62.145 147.831 62.158C148.291 62.1713 148.668 62.0924 148.671 61.9824ZM148.63 62.862C148.624 62.7328 148.502 62.6342 148.357 62.6392L147.331 62.679C147.187 62.6852 147.074 62.7935 147.081 62.9221L147.085 63.0009C147.091 63.1301 147.213 63.2286 147.358 63.2236L148.384 63.1838C148.528 63.1777 148.64 63.0693 148.634 62.9407L148.63 62.862Z" fill="black" fill-opacity="0.996"/>
<path d="M153.788 61.8578C153.435 61.7623 153.081 61.7629 152.725 61.8594C152.671 61.8737 152.632 61.9118 152.621 61.9612C152.53 62.3641 152.506 62.7692 152.549 63.1764C152.574 63.415 152.563 63.5783 152.515 63.6663C152.413 63.8551 152.204 63.9187 151.887 63.8572C151.743 63.8286 151.641 63.7172 151.641 63.5868V61.3138C151.641 61.2342 151.711 61.169 151.801 61.1658C152.024 61.1563 152.245 61.2061 152.461 61.3153C152.512 61.3408 152.571 61.3456 152.623 61.3281C153.274 61.1096 153.885 61.0683 154.456 61.204C154.703 61.2634 154.842 61.406 154.872 61.6319C154.945 62.2024 154.973 62.774 154.957 63.3466C154.942 63.8546 154.681 64.0083 154.174 63.8079C154.019 63.7475 153.932 63.6027 153.957 63.4548C154.048 62.9171 154.027 62.4187 153.896 61.9596C153.883 61.9118 153.842 61.8721 153.788 61.8578ZM152.452 61.6048C152.294 61.3387 152.092 61.3053 151.846 61.5046C151.802 61.5396 151.777 61.5874 151.776 61.6398C151.771 62.1139 151.773 62.5778 151.783 63.0317C151.785 63.142 151.807 63.2347 151.849 63.31C151.964 63.5232 152.09 63.5401 152.228 63.3609C152.282 63.2899 152.314 63.1929 152.325 63.0698C152.354 62.7453 152.415 62.3684 152.508 61.9389C152.533 61.8244 152.513 61.7066 152.452 61.6048Z" fill="black" fill-opacity="0.996"/>
<path d="M157.493 63.6909C157.381 63.6618 157.299 63.5793 157.279 63.4774C157.139 62.7938 157.14 62.1231 157.283 61.4654C157.315 61.3086 157.463 61.1889 157.642 61.1743C158.289 61.1193 158.935 61.1113 159.58 61.1501C159.856 61.1662 160.059 61.2412 160.188 61.3749C160.347 61.542 160.428 61.7452 160.431 61.9846C160.433 62.0347 160.403 62.0833 160.356 62.114C160.108 62.2714 159.884 62.2773 159.684 62.1318C159.451 61.9636 159.309 61.8709 159.257 61.8536C158.946 61.7555 158.624 61.7415 158.291 61.8115C158.225 61.8245 158.176 61.8633 158.172 61.907L158.066 62.7884C158.05 62.9243 158.165 63.0569 158.342 63.107C158.709 63.2094 159.03 63.196 159.302 63.0666C159.305 63.0655 159.428 62.9712 159.671 62.7836C159.907 62.6013 160.137 62.6159 160.36 62.8272C160.525 62.9846 160.539 63.1523 160.402 63.3302C160.18 63.617 159.918 63.7944 159.614 63.8623C159.461 63.8968 159.151 63.9022 158.685 63.8785C158.281 63.8569 157.883 63.7944 157.493 63.6909Z" fill="black" fill-opacity="0.996"/>
<path d="M163.676 62.899C163.759 63.1042 163.844 63.1053 163.933 62.9025C164.109 62.4933 164.27 62.0795 164.418 61.661C164.504 61.4152 164.62 61.2576 164.767 61.188C164.973 61.0918 165.192 61.1075 165.422 61.235C165.466 61.2593 165.487 61.3132 165.47 61.3619C165.403 61.5462 165.273 61.8412 165.082 62.247C164.774 62.9008 164.464 63.5534 164.152 64.2048C164.016 64.49 163.88 64.6813 163.744 64.7786C163.605 64.8783 163.449 64.9404 163.274 64.9647C163.088 64.9902 162.924 65.0018 162.782 64.9995C162.46 64.9948 162.328 64.8012 162.386 64.4187C162.394 64.3648 162.433 64.3213 162.483 64.3144L163.029 64.2361C163.347 64.1909 163.443 64.035 163.317 63.7684L162.165 61.3445C162.137 61.2872 162.173 61.2176 162.236 61.2037C162.806 61.0773 163.142 61.2066 163.245 61.5914C163.376 62.0737 163.519 62.5095 163.676 62.899Z" fill="black" fill-opacity="0.996"/>
<path d="M152.649 61.4257C152.74 61.5594 152.769 61.714 152.732 61.8644C152.593 62.4283 152.503 62.9234 152.46 63.3495C152.444 63.511 152.396 63.6384 152.316 63.7317C152.112 63.9671 151.924 63.9448 151.754 63.6649C151.692 63.566 151.659 63.4442 151.655 63.2994C151.641 62.7034 151.637 62.0941 151.644 61.4717C151.647 61.4028 151.684 61.3401 151.748 61.2941C152.114 61.0324 152.415 61.0762 152.649 61.4257Z" fill="black"/>
<path d="M141.21 61.6687C141.091 62.1614 141.081 62.6564 141.18 63.1539C141.191 63.21 141.166 63.2662 141.118 63.2897C140.943 63.3742 140.783 63.3513 140.638 63.2209C140.596 63.181 140.571 63.1231 140.573 63.0615L140.582 61.6705C140.582 61.6108 140.617 61.5564 140.669 61.5347L141.097 61.359C141.151 61.3355 141.195 61.2956 141.224 61.2467C141.279 61.1501 141.358 61.1115 141.461 61.1308C141.538 61.1465 141.599 61.1894 141.644 61.2594C141.734 61.3958 141.654 61.4719 141.403 61.4876C141.315 61.4948 141.236 61.5673 141.21 61.6687Z" fill="black"/>
</svg>
