<svg width="270" height="72" viewBox="0 0 270 72" fill="none" xmlns="http://www.w3.org/2000/svg">
<path d="M124.54 36.2699C124.54 42.4414 122.088 48.3602 117.724 52.7242C113.36 57.0881 107.441 59.5398 101.27 59.5398C95.0983 59.5398 89.1795 57.0881 84.8156 52.7242C80.4516 48.3602 78 42.4414 78 36.2699C78 30.0983 80.4516 24.1795 84.8156 19.8156C89.1795 15.4516 95.0983 13 101.27 13C107.441 13 113.36 15.4516 117.724 19.8156C122.088 24.1795 124.54 30.0983 124.54 36.2699ZM123.642 36.2699C123.642 30.3364 121.285 24.6458 117.09 20.4502C112.894 16.2546 107.203 13.8975 101.27 13.8975C95.3364 13.8975 89.6458 16.2546 85.4502 20.4502C81.2546 24.6458 78.8975 30.3364 78.8975 36.2699C78.8975 42.2034 81.2546 47.8939 85.4502 52.0896C89.6458 56.2852 95.3364 58.6423 101.27 58.6423C107.203 58.6423 112.894 56.2852 117.09 52.0896C121.285 47.8939 123.642 42.2034 123.642 36.2699Z" fill="black"/>
<path d="M92.7437 37.288C92.1715 36.8026 91.7817 36.2232 91.5744 35.5499C91.4615 35.185 91.4017 34.5138 91.3949 33.5363C91.3646 28.8121 91.3566 24.0441 91.3709 19.2323C91.3712 19.205 91.3822 19.179 91.4013 19.1598C91.4205 19.1406 91.4464 19.1299 91.4733 19.1299H95.4399C95.4587 19.1299 95.4767 19.1373 95.4899 19.1506C95.5032 19.1639 95.5107 19.1819 95.5107 19.2007V33.607C95.5107 33.7941 95.6046 33.8877 95.7926 33.8877C99.9344 33.8818 104.035 33.8919 108.094 33.918C108.103 33.918 108.246 33.9155 108.523 33.9104C108.875 33.9045 109.17 33.9416 109.408 34.0216C109.552 34.0705 109.664 34.1695 109.745 34.3187C109.797 34.4139 109.832 34.5526 109.85 34.7346C109.907 35.2967 109.931 36.0256 109.921 36.9214C109.913 37.5694 109.679 37.963 109.217 38.102C109.105 38.1357 108.709 38.1538 108.03 38.1564C101.566 38.1766 97.151 38.1652 94.7838 38.1222C94.0659 38.1096 93.3858 37.8315 92.7437 37.288Z" fill="black"/>
<path d="M95.4866 45.3991L95.479 53.3044C95.479 53.3259 95.4707 53.3465 95.4557 53.3616C95.4408 53.3768 95.4205 53.3853 95.3994 53.3853L91.4745 53.3778C91.4574 53.3778 91.441 53.3711 91.4289 53.3592C91.4169 53.3474 91.4101 53.3313 91.4101 53.3145C91.3806 47.7401 91.3675 44.2033 91.3709 42.7041C91.3726 41.9895 91.7096 41.505 92.3821 41.2505C92.538 41.1915 92.7757 41.1472 93.095 41.1177C93.2813 41.1009 93.5223 41.0933 93.8181 41.095C98.9248 41.127 104.032 41.1367 109.138 41.1241C109.143 41.1241 109.306 41.1278 109.629 41.1354C111.156 41.1717 112.117 40.441 112.512 38.9436C112.548 38.8054 112.57 38.5526 112.578 38.1851C112.594 37.4124 112.603 36.6401 112.606 35.8681C112.606 35.8631 112.617 35.4906 112.639 34.7507C112.661 33.9662 112.588 33.2781 112.417 32.6865C112.19 31.8944 111.692 31.3913 110.924 31.1773C110.55 31.0736 110.11 31.0209 109.605 31.0192C107.13 31.0142 104.654 31.0159 102.179 31.0243C100.864 31.0285 99.5699 31.0016 98.2966 30.9434C98.256 30.9418 98.2175 30.9247 98.1889 30.8957C98.1602 30.8666 98.1436 30.8276 98.1424 30.7867C98.1045 29.4695 98.1121 28.1676 98.1651 26.8808C98.171 26.7249 98.2519 26.6477 98.4078 26.6494C101.817 26.6823 105.18 26.6932 108.499 26.6823C109.264 26.6798 109.939 26.6945 110.525 26.7265C111.328 26.7704 111.988 26.8925 112.503 27.0931C113.192 27.3611 113.829 27.7588 114.416 28.2864C115.877 29.5985 116.614 31.2337 116.625 33.1921C116.64 35.7615 116.628 37.7735 116.589 39.228C116.579 39.6173 116.514 40.0218 116.395 40.4415C116.293 40.8047 116.142 41.1818 115.94 41.5728C114.807 43.7756 113.031 45.0097 110.614 45.2752C110.297 45.3097 109.455 45.3266 108.088 45.3258C103.909 45.3232 99.73 45.3262 95.5511 45.3346C95.534 45.3346 95.5176 45.3414 95.5055 45.3535C95.4934 45.3656 95.4866 45.382 95.4866 45.3991Z" fill="black"/>
<path d="M153.24 40.151C152.403 40.0943 151.638 40.1092 150.944 40.1954H150.943C150.925 40.1975 150.909 40.2053 150.896 40.2174C150.883 40.2295 150.875 40.2453 150.872 40.2623L150.444 42.8106C150.437 42.8486 150.42 42.8848 150.395 42.9138C150.371 42.9427 150.338 42.964 150.302 42.9744M153.24 40.151L150.288 42.9264L153.24 40.151ZM153.24 40.151C153.261 40.1524 153.282 40.1608 153.298 40.1749C153.313 40.1889 153.324 40.2076 153.328 40.228M153.24 40.151L153.328 40.228L153.24 40.151ZM150.302 42.9744L150.288 42.9264L150.302 42.9744ZM150.302 42.9744L150.288 42.9264L150.302 42.9744ZM150.302 42.9744C150 43.0634 149.694 43.074 149.383 43.0063C149.345 42.9979 149.312 42.9751 149.291 42.9429C149.269 42.9106 149.261 42.8714 149.267 42.8331L151.512 30.1257L151.562 30.1341M150.288 42.9264C149.994 43.013 149.696 43.0234 149.394 42.9575C149.369 42.9519 149.347 42.9368 149.332 42.9151C149.318 42.8935 149.312 42.867 149.316 42.8411L151.562 30.1341M151.562 30.1341L151.513 30.1254L151.676 30.0293C151.649 30.0305 151.622 30.0415 151.601 30.0606C151.581 30.0797 151.567 30.1056 151.562 30.1341ZM152.734 30.1275L154.946 42.8675C154.95 42.8865 154.949 42.9063 154.943 42.9249C154.938 42.9434 154.929 42.9607 154.917 42.9754C154.905 42.9901 154.889 43.002 154.872 43.0102C154.854 43.0184 154.836 43.0227 154.817 43.023L154.816 42.973V43.023L152.734 30.1275ZM153.328 40.228C153.328 40.2279 153.328 40.2281 153.328 40.228V40.228ZM153.112 39.068L151.109 39.0428C151.103 39.0428 151.097 39.0418 151.093 39.0397C151.088 39.0377 151.084 39.0346 151.081 39.0308C151.077 39.027 151.075 39.0225 151.073 39.0177C151.072 39.0129 151.072 39.008 151.072 39.0031C151.072 39.0029 151.072 39.0032 151.072 39.0031L152.107 32.523L153.145 39.0289C153.146 39.0337 153.146 39.0389 153.144 39.0436C153.143 39.0483 153.141 39.0527 153.138 39.0564C153.134 39.0601 153.13 39.0631 153.126 39.0651C153.122 39.0671 153.117 39.0681 153.112 39.068ZM152.08 32.4028C152.073 32.4278 152.066 32.4634 152.058 32.5095L152.08 32.4028Z" fill="black"/>
<path d="M153.24 40.151C152.403 40.0943 151.638 40.1092 150.944 40.1954H150.943C150.925 40.1975 150.909 40.2053 150.896 40.2174C150.883 40.2295 150.875 40.2453 150.872 40.2623L150.444 42.8106C150.437 42.8486 150.42 42.8848 150.395 42.9138C150.371 42.9427 150.338 42.964 150.302 42.9744M153.24 40.151L150.288 42.9264M153.24 40.151C153.261 40.1524 153.282 40.1608 153.298 40.1749C153.313 40.1889 153.324 40.2076 153.328 40.228M153.24 40.151L153.328 40.228M150.302 42.9744L150.288 42.9264M150.302 42.9744C150 43.0634 149.694 43.074 149.383 43.0063C149.345 42.9979 149.312 42.9751 149.291 42.9429C149.269 42.9106 149.261 42.8714 149.267 42.8331L151.512 30.1257L151.562 30.1341M150.288 42.9264C149.994 43.013 149.696 43.0234 149.394 42.9575C149.369 42.9519 149.347 42.9368 149.332 42.9151C149.318 42.8935 149.312 42.867 149.316 42.8411L151.562 30.1341M153.328 40.228L153.377 40.2194M153.328 40.228C153.328 40.2279 153.328 40.2281 153.328 40.228ZM151.562 30.1341L151.513 30.1254L151.676 30.0293C151.649 30.0305 151.622 30.0415 151.601 30.0606C151.581 30.0797 151.567 30.1056 151.562 30.1341ZM152.734 30.1275L154.946 42.8675C154.95 42.8865 154.949 42.9063 154.943 42.9249C154.938 42.9434 154.929 42.9607 154.917 42.9754C154.905 42.9901 154.889 43.002 154.872 43.0102C154.854 43.0184 154.836 43.0227 154.817 43.023L154.816 42.973V43.023L152.734 30.1275ZM152.734 30.1275L152.685 30.136M151.072 39.0031C151.072 39.008 151.072 39.0129 151.073 39.0177C151.075 39.0225 151.077 39.027 151.081 39.0308C151.084 39.0346 151.088 39.0377 151.093 39.0397C151.097 39.0418 151.103 39.0428 151.109 39.0428L153.112 39.068C153.117 39.0681 153.122 39.0671 153.126 39.0651C153.13 39.0631 153.134 39.0601 153.138 39.0564C153.141 39.0527 153.143 39.0483 153.144 39.0436C153.146 39.0389 153.146 39.0337 153.145 39.0289L152.107 32.523L151.072 39.0031ZM151.072 39.0031C151.072 39.0029 151.072 39.0032 151.072 39.0031ZM152.08 32.4028C152.073 32.4278 152.066 32.4634 152.058 32.5095L152.08 32.4028Z" stroke="black" stroke-width="0.1"/>
<path d="M136.25 41.9525L138.914 41.9311L138.915 41.9811C138.928 41.9809 138.941 41.983 138.954 41.9875C138.966 41.992 138.977 41.9986 138.986 42.0071C138.996 42.0156 139.003 42.0258 139.008 42.0369C139.013 42.0481 139.016 42.0601 139.016 42.0723L136.25 41.9525ZM136.25 41.9525C136.239 41.9526 136.228 41.9505 136.218 41.9463C136.208 41.942 136.199 41.9356 136.191 41.9274C136.183 41.9192 136.176 41.9092 136.172 41.8981C136.167 41.887 136.165 41.875 136.165 41.8628L136.25 41.9525ZM135.097 43.0317C135.058 43.0317 135.021 43.0162 134.993 42.9887C134.965 42.9611 134.95 42.9237 134.95 42.8848V30.1682L135.097 43.0317Z" fill="black"/>
<path d="M136.25 41.9525L138.914 41.9311L138.915 41.9811C138.928 41.9809 138.941 41.983 138.954 41.9875C138.966 41.992 138.977 41.9986 138.986 42.0071C138.996 42.0156 139.003 42.0258 139.008 42.0369C139.013 42.0481 139.016 42.0601 139.016 42.0723L136.25 41.9525ZM136.25 41.9525C136.239 41.9526 136.228 41.9505 136.218 41.9463C136.208 41.942 136.199 41.9356 136.191 41.9274C136.183 41.9192 136.176 41.9092 136.172 41.8981C136.167 41.887 136.165 41.875 136.165 41.8628L136.25 41.9525ZM135.097 43.0317C135.058 43.0317 135.021 43.0162 134.993 42.9887C134.965 42.9611 134.95 42.9237 134.95 42.8848V30.1682L135.097 43.0317ZM135.097 43.0317L138.917 43.0201" stroke="black" stroke-width="0.1"/>
<path d="M187.866 37.9042C187.844 37.904 187.822 37.9082 187.801 37.9164C187.781 37.9247 187.762 37.9369 187.747 37.9522C187.731 37.9676 187.719 37.9858 187.711 38.0059C187.703 38.0259 187.698 38.0474 187.699 38.069L187.732 42.8258C187.732 42.866 187.719 42.9063 187.694 42.9375C187.669 42.969 187.633 42.9897 187.592 42.9905M187.866 37.9042L187.59 42.9405L187.866 37.9042ZM187.866 37.9042C188.727 37.9068 189.516 37.9036 190.234 37.8945L187.866 37.9042ZM187.592 42.9905L187.59 42.9405L187.592 42.9905ZM187.592 42.9905L187.59 42.9405L187.592 42.9905ZM187.592 42.9905L186.653 43.0119C186.63 43.0123 186.607 43.0075 186.586 42.9981C186.565 42.9886 186.546 42.9748 186.53 42.9577C186.515 42.9405 186.502 42.9204 186.494 42.8986C186.486 42.8767 186.482 42.8535 186.482 42.8301V30.1715L186.532 30.1714M187.59 42.9405L186.652 42.9619C186.636 42.9621 186.621 42.9589 186.606 42.9524C186.592 42.9459 186.578 42.9362 186.567 42.924C186.556 42.9117 186.547 42.8971 186.541 42.8809C186.535 42.8648 186.532 42.8475 186.532 42.83V30.1714M186.532 30.1714L186.482 30.1715L186.633 30.0226V30.0726C186.619 30.0723 186.606 30.0747 186.594 30.0795C186.582 30.0844 186.571 30.0916 186.561 30.1008C186.552 30.11 186.545 30.121 186.539 30.1331C186.534 30.1453 186.532 30.1583 186.532 30.1714ZM191.594 31.5735C191.584 31.2916 191.574 31.0718 191.564 30.9144C191.559 30.8358 191.555 30.7723 191.55 30.7244C191.545 30.678 191.54 30.6422 191.534 30.6214C191.478 30.4197 191.366 30.2663 191.199 30.165C191.033 30.0646 190.817 30.018 190.555 30.0206C189.299 30.0374 187.992 30.0381 186.633 30.0226L191.548 37.025C191.647 35.2085 191.663 33.3913 191.594 31.5735ZM191.544 31.5754C191.613 33.3917 191.597 35.2073 191.498 37.0224L191.486 30.6349C191.504 30.6982 191.524 31.0117 191.544 31.5754ZM191.246 37.7297C191.06 37.8668 190.837 37.9267 190.58 37.9119L191.246 37.7297ZM191.246 37.7297C191.434 37.5917 191.531 37.3514 191.548 37.025L191.246 37.7297ZM190.41 31.1807C190.412 31.1854 190.413 31.1905 190.413 31.1957L190.404 36.7842C190.404 36.7894 190.403 36.7945 190.401 36.7992C190.399 36.804 190.396 36.8083 190.392 36.8119C190.388 36.8156 190.384 36.8184 190.379 36.8204C190.375 36.8224 190.369 36.8234 190.364 36.8234L187.774 36.8188C187.768 36.8188 187.763 36.8178 187.759 36.8158C187.754 36.8139 187.75 36.811 187.746 36.8073C187.742 36.8037 187.739 36.7993 187.737 36.7946C187.736 36.7898 187.735 36.7847 187.735 36.7796L187.744 31.191C187.744 31.1859 187.745 31.1808 187.747 31.176C187.749 31.1713 187.752 31.167 187.756 31.1633C187.759 31.1597 187.764 31.1568 187.769 31.1549C187.773 31.1529 187.778 31.1519 187.784 31.1519L190.374 31.1564C190.379 31.1564 190.384 31.1575 190.389 31.1594C190.394 31.1614 190.398 31.1643 190.402 31.168C190.406 31.1716 190.408 31.1759 190.41 31.1807Z" fill="black"/>
<path d="M187.866 37.9042C187.844 37.904 187.822 37.9082 187.801 37.9164C187.781 37.9247 187.762 37.9369 187.747 37.9522C187.731 37.9676 187.719 37.9858 187.711 38.0059C187.703 38.0259 187.698 38.0474 187.699 38.069L187.732 42.8258C187.732 42.866 187.719 42.9063 187.694 42.9375C187.669 42.969 187.633 42.9897 187.592 42.9905M187.866 37.9042L187.59 42.9405M187.866 37.9042C188.727 37.9068 189.516 37.9036 190.234 37.8945L187.866 37.9042ZM187.592 42.9905L187.59 42.9405M187.592 42.9905L186.653 43.0119C186.63 43.0123 186.607 43.0075 186.586 42.9981C186.565 42.9886 186.546 42.9748 186.53 42.9577C186.515 42.9405 186.502 42.9204 186.494 42.8986C186.486 42.8767 186.482 42.8535 186.482 42.8301V30.1715M187.59 42.9405L186.652 42.9619C186.636 42.9621 186.621 42.9589 186.606 42.9524C186.592 42.9459 186.578 42.9362 186.567 42.924C186.556 42.9117 186.547 42.8971 186.541 42.8809C186.535 42.8648 186.532 42.8475 186.532 42.83V30.1714M186.482 30.1715L186.532 30.1714M186.482 30.1715L186.633 30.0226M186.532 30.1714C186.532 30.1583 186.534 30.1453 186.539 30.1331C186.545 30.121 186.552 30.11 186.561 30.1008C186.571 30.0916 186.582 30.0844 186.594 30.0795C186.606 30.0747 186.619 30.0723 186.633 30.0726V30.0226M186.633 30.0226C187.992 30.0381 189.299 30.0374 190.555 30.0206C190.817 30.018 191.033 30.0646 191.199 30.165C191.366 30.2663 191.478 30.4197 191.534 30.6214C191.54 30.6422 191.545 30.678 191.55 30.7244C191.555 30.7723 191.559 30.8358 191.564 30.9144C191.574 31.0718 191.584 31.2916 191.594 31.5735M186.633 30.0226L191.548 37.025M191.544 31.5754L191.594 31.5735M191.544 31.5754C191.613 33.3917 191.597 35.2073 191.498 37.0224L191.486 30.6349C191.504 30.6982 191.524 31.0117 191.544 31.5754ZM191.594 31.5735C191.663 33.3913 191.647 35.2085 191.548 37.025M191.548 37.025C191.531 37.3514 191.434 37.5917 191.246 37.7297M191.548 37.025L191.246 37.7297M191.246 37.7297C191.06 37.8668 190.837 37.9267 190.58 37.9119L191.246 37.7297ZM190.41 31.1807C190.412 31.1854 190.413 31.1905 190.413 31.1957L190.404 36.7842C190.404 36.7894 190.403 36.7945 190.401 36.7992C190.399 36.804 190.396 36.8083 190.392 36.8119C190.388 36.8156 190.384 36.8184 190.379 36.8204C190.375 36.8224 190.369 36.8234 190.364 36.8234L187.774 36.8188C187.768 36.8188 187.763 36.8178 187.759 36.8158C187.754 36.8139 187.75 36.811 187.746 36.8073C187.742 36.8037 187.739 36.7993 187.737 36.7946C187.736 36.7898 187.735 36.7847 187.735 36.7796L187.744 31.191C187.744 31.1859 187.745 31.1808 187.747 31.176C187.749 31.1713 187.752 31.167 187.756 31.1633C187.759 31.1597 187.764 31.1568 187.769 31.1549C187.773 31.1529 187.778 31.1519 187.784 31.1519L190.374 31.1564C190.379 31.1564 190.384 31.1575 190.389 31.1594C190.394 31.1614 190.398 31.1643 190.402 31.168C190.406 31.1716 190.408 31.1759 190.41 31.1807Z" stroke="black" stroke-width="0.1"/>
<path d="M212.903 30.2419L212.853 30.2415L208.775 43.026C208.754 43.0268 208.734 43.023 208.716 43.0151C208.697 43.0071 208.681 42.9951 208.667 42.9802C208.653 42.9654 208.642 42.9479 208.635 42.929C208.628 42.9101 208.624 42.8899 208.624 42.8696L208.636 30.2283C208.636 30.174 208.656 30.1213 208.692 30.0807C208.728 30.0401 208.777 30.0141 208.831 30.008L208.832 30.0079C209.173 29.9725 209.428 30.0313 209.575 30.2058L209.537 30.238M212.903 30.2419L212.853 30.2415L212.794 39.1054C211.807 36.3353 210.812 33.567 209.809 30.8007L209.762 30.8178M212.903 30.2419L212.843 39.1676C212.843 39.1754 212.841 39.1828 212.838 39.1884C212.834 39.1941 212.829 39.1977 212.824 39.1987M212.903 30.2419C212.903 30.2103 212.914 30.18 212.934 30.1575C212.954 30.135 212.981 30.1222 213.01 30.1216L213.778 30.112L212.824 39.1987M209.762 30.8178C209.63 30.4519 209.555 30.2587 209.537 30.238L209.762 30.8178ZM209.762 30.8178C210.769 33.5946 211.768 36.3734 212.758 39.1541C212.763 39.1681 212.77 39.1804 212.779 39.1889C212.787 39.1974 212.796 39.2015 212.804 39.2006M209.762 30.8178L209.809 30.8007C209.743 30.6177 209.691 30.4776 209.653 30.3804C209.635 30.3318 209.619 30.2936 209.607 30.2659C209.601 30.2521 209.596 30.2405 209.591 30.2313C209.587 30.2236 209.582 30.2137 209.575 30.2058L209.537 30.238M209.537 30.238C209.406 30.0829 209.173 30.0228 208.837 30.0577C208.795 30.0624 208.757 30.0824 208.729 30.1139C208.701 30.1453 208.686 30.186 208.686 30.2283L212.804 39.2006M209.783 33.8188C209.782 33.8189 209.782 33.8188 209.781 33.8188H209.783ZM212.804 39.2006L212.824 39.1987L212.804 39.2006ZM212.804 39.2006L212.824 39.1987L212.804 39.2006ZM209.752 33.8226H209.753L209.765 33.821V33.8138C209.765 33.8133 209.765 33.8139 209.765 33.8138C209.765 33.8144 209.765 33.8154 209.764 33.8165C209.762 33.8187 209.758 33.8218 209.753 33.8226C209.753 33.8226 209.753 33.8226 209.752 33.8226ZM212.824 39.1987L212.82 39.1775L212.818 39.1676L212.815 39.1494C212.814 39.1496 212.813 39.1499 212.811 39.1503C212.812 39.1517 212.813 39.1528 212.814 39.1535C212.814 39.154 212.815 39.1537 212.814 39.1535C212.814 39.1534 212.814 39.1536 212.814 39.1535C212.814 39.1533 212.813 39.1531 212.812 39.1528C212.811 39.1523 212.81 39.1518 212.808 39.1514L212.824 39.1987ZM213.786 42.9431C213.557 42.9871 213.377 42.9916 213.247 42.9567C213.22 42.9494 213.195 42.9341 213.174 42.9122C213.153 42.8902 213.136 42.8622 213.124 42.8306L213.786 42.9431Z" fill="black"/>
<path d="M212.903 30.2419L212.853 30.2415M212.903 30.2419L212.843 39.1676C212.843 39.1754 212.841 39.1828 212.838 39.1884C212.834 39.1941 212.829 39.1977 212.824 39.1987M212.903 30.2419C212.903 30.2103 212.914 30.18 212.934 30.1575C212.954 30.135 212.981 30.1222 213.01 30.1216L213.778 30.112L212.824 39.1987M212.853 30.2415L208.775 43.026M212.853 30.2415L212.794 39.1054C211.807 36.3353 210.812 33.567 209.809 30.8007M208.775 43.026L208.773 42.9761M208.775 43.026C208.754 43.0268 208.734 43.023 208.716 43.0151C208.697 43.0071 208.681 42.9951 208.667 42.9802C208.653 42.9654 208.642 42.9479 208.635 42.929C208.628 42.9101 208.624 42.8899 208.624 42.8696L208.636 30.2283C208.636 30.174 208.656 30.1213 208.692 30.0807C208.728 30.0401 208.777 30.0141 208.831 30.008L208.832 30.0079C209.173 29.9725 209.428 30.0313 209.575 30.2058M209.575 30.2058L209.537 30.238M209.575 30.2058C209.582 30.2137 209.587 30.2236 209.591 30.2313C209.596 30.2405 209.601 30.2521 209.607 30.2659C209.619 30.2936 209.635 30.3318 209.653 30.3804C209.691 30.4776 209.743 30.6177 209.809 30.8007M209.537 30.238C209.555 30.2587 209.63 30.4519 209.762 30.8178M209.537 30.238C209.406 30.0829 209.173 30.0228 208.837 30.0577C208.795 30.0624 208.757 30.0824 208.729 30.1139C208.701 30.1453 208.686 30.186 208.686 30.2283L212.804 39.2006M209.809 30.8007L209.762 30.8178M209.762 30.8178C210.769 33.5946 211.768 36.3734 212.758 39.1541C212.763 39.1681 212.77 39.1804 212.779 39.1889C212.787 39.1974 212.796 39.2015 212.804 39.2006M212.824 39.1987L212.804 39.2006M212.824 39.1987L212.82 39.1775L212.818 39.1676L212.815 39.1494C212.814 39.1496 212.813 39.1499 212.811 39.1503C212.812 39.1517 212.813 39.1528 212.814 39.1535M212.824 39.1987L212.808 39.1514C212.81 39.1518 212.811 39.1523 212.812 39.1528C212.813 39.1531 212.814 39.1533 212.814 39.1535M209.783 33.8188C209.782 33.8189 209.782 33.8188 209.781 33.8188H209.783ZM209.783 33.8188L209.777 33.7691M209.753 33.8226H209.752C209.753 33.8226 209.753 33.8226 209.753 33.8226ZM209.753 33.8226L209.765 33.821V33.8138M209.753 33.8226C209.758 33.8218 209.762 33.8187 209.764 33.8165C209.765 33.8154 209.765 33.8144 209.765 33.8138M209.765 33.8138C209.765 33.8139 209.765 33.8133 209.765 33.8138ZM212.814 39.1535C212.814 39.154 212.815 39.1537 212.814 39.1535ZM212.814 39.1535C212.814 39.1534 212.814 39.1536 212.814 39.1535ZM213.786 42.9431C213.557 42.9871 213.377 42.9916 213.247 42.9567C213.22 42.9494 213.195 42.9341 213.174 42.9122C213.153 42.8902 213.136 42.8622 213.124 42.8306L213.786 42.9431Z" stroke="black" stroke-width="0.1"/>
<path d="M145.944 35.9209C145.972 35.9214 145.999 35.9307 146.02 35.9473C146.042 35.9639 146.056 35.9868 146.061 36.0121C146.11 36.29 146.103 36.566 146.039 36.8401C146.033 36.8682 146.018 36.8933 145.996 36.9113C145.974 36.9293 145.947 36.939 145.919 36.939L145.944 35.9209ZM145.944 35.9209L143.486 35.9151C143.459 35.9151 143.434 35.9041 143.416 35.8845C143.397 35.8648 143.387 35.8382 143.387 35.8104L143.398 31.2108C143.398 31.1856 143.408 31.1614 143.426 31.1436C143.444 31.1258 143.468 31.1158 143.493 31.1158M145.944 35.9209L143.493 31.1158L145.944 35.9209ZM146.088 36.8513C146.153 36.5707 146.16 36.2879 146.11 36.0034C146.102 35.9657 146.081 35.9316 146.051 35.908C146.021 35.8844 145.984 35.8716 145.945 35.8709L143.486 35.8651C143.474 35.8651 143.461 35.8601 143.452 35.8501C143.443 35.8401 143.437 35.8259 143.437 35.8105L143.448 31.2109C143.448 31.199 143.453 31.1874 143.462 31.179C143.47 31.1705 143.481 31.1658 143.493 31.1658H143.494L146.202 31.1542H146.203L146.202 31.1042M146.088 36.8513L142.136 42.8727L142.125 30.1831C142.125 30.1441 142.14 30.1067 142.168 30.0792C142.195 30.0516 142.233 30.0361 142.272 30.0361H146.189C146.228 30.0363 146.266 30.0491 146.298 30.0728C146.329 30.0964 146.352 30.1294 146.363 30.1671L146.315 30.1811M146.088 36.8513C146.08 36.89 146.058 36.9248 146.028 36.9499C145.997 36.9751 145.959 36.989 145.919 36.989M146.088 36.8513L145.919 36.989L146.088 36.8513ZM146.202 31.1042C146.231 31.1042 146.258 31.0951 146.281 31.0783C146.304 31.0616 146.32 31.038 146.328 31.0111C146.405 30.7487 146.4 30.472 146.315 30.1811M146.202 31.1042L143.493 31.1158L146.202 31.1042ZM146.202 31.1042L143.493 31.1158L146.202 31.1042ZM146.315 30.1811C146.307 30.1538 146.29 30.1298 146.268 30.1127C146.245 30.0956 146.217 30.0862 146.189 30.0861M146.315 30.1811L146.189 30.0861L146.315 30.1811ZM146.189 30.0861H142.272C142.246 30.0861 142.221 30.0963 142.203 30.1145C142.185 30.1327 142.175 30.1574 142.175 30.1831L146.189 30.0861ZM145.919 36.989H143.497C143.483 36.989 143.469 36.9942 143.46 37.0026C143.451 37.0108 143.447 37.0211 143.446 37.031M145.919 36.989L143.446 37.031L145.919 36.989ZM143.446 37.031L143.388 41.801L143.446 37.031ZM143.446 37.031L143.388 41.801L143.446 37.031ZM143.388 41.801C143.388 41.8158 143.39 41.8312 143.396 41.845C143.401 41.8587 143.409 41.8712 143.419 41.8817C143.428 41.8923 143.44 41.9006 143.453 41.9063C143.466 41.912 143.48 41.915 143.494 41.9152L146.261 41.952C146.301 41.9526 146.34 41.9665 146.371 41.9924C146.401 42.0185 146.42 42.0553 146.421 42.0959L146.433 42.8797C146.433 42.921 146.415 42.9604 146.385 42.9884C146.355 43.0162 146.315 43.0313 146.274 43.0313L142.281 43.0196L143.388 41.801Z" fill="black"/>
<path d="M145.944 35.9209C145.972 35.9214 145.999 35.9307 146.02 35.9473C146.042 35.9639 146.056 35.9868 146.061 36.0121C146.11 36.29 146.103 36.566 146.039 36.8401C146.033 36.8682 146.018 36.8933 145.996 36.9113C145.974 36.9293 145.947 36.939 145.919 36.939L145.944 35.9209ZM145.944 35.9209L143.486 35.9151C143.459 35.9151 143.434 35.9041 143.416 35.8845C143.397 35.8648 143.387 35.8382 143.387 35.8104L143.398 31.2108C143.398 31.1856 143.408 31.1614 143.426 31.1436C143.444 31.1258 143.468 31.1158 143.493 31.1158M145.944 35.9209L143.493 31.1158M143.493 31.1158L146.202 31.1042M146.088 36.8513C146.153 36.5707 146.16 36.2879 146.11 36.0034C146.102 35.9657 146.081 35.9316 146.051 35.908C146.021 35.8844 145.984 35.8716 145.945 35.8709L143.486 35.8651C143.474 35.8651 143.461 35.8601 143.452 35.8501C143.443 35.8401 143.437 35.8259 143.437 35.8105L143.448 31.2109C143.448 31.199 143.453 31.1874 143.462 31.179C143.47 31.1705 143.481 31.1658 143.493 31.1658H143.494L146.202 31.1542H146.203L146.202 31.1042M146.088 36.8513L142.136 42.8727L142.125 30.1831C142.125 30.1441 142.14 30.1067 142.168 30.0792C142.195 30.0516 142.233 30.0361 142.272 30.0361H146.189C146.228 30.0363 146.266 30.0491 146.298 30.0728C146.329 30.0964 146.352 30.1294 146.363 30.1671L146.315 30.1811M146.088 36.8513C146.08 36.89 146.058 36.9248 146.028 36.9499C145.997 36.9751 145.959 36.989 145.919 36.989M146.088 36.8513L145.919 36.989M146.202 31.1042C146.231 31.1042 146.258 31.0951 146.281 31.0783C146.304 31.0616 146.32 31.038 146.328 31.0111C146.405 30.7487 146.4 30.472 146.315 30.1811M146.315 30.1811C146.307 30.1538 146.29 30.1298 146.268 30.1127C146.245 30.0956 146.217 30.0862 146.189 30.0861M146.315 30.1811L146.189 30.0861M145.919 36.989H143.497C143.483 36.989 143.469 36.9942 143.46 37.0026C143.451 37.0108 143.447 37.0211 143.446 37.031M145.919 36.989L143.446 37.031M146.189 30.0861H142.272C142.246 30.0861 142.221 30.0963 142.203 30.1145C142.185 30.1327 142.175 30.1574 142.175 30.1831L146.189 30.0861ZM143.446 37.031L143.388 41.801M143.388 41.801C143.388 41.8158 143.39 41.8312 143.396 41.845C143.401 41.8587 143.409 41.8712 143.419 41.8817C143.428 41.8923 143.44 41.9006 143.453 41.9063C143.466 41.912 143.48 41.915 143.494 41.9152L146.261 41.952C146.301 41.9526 146.34 41.9665 146.371 41.9924C146.401 42.0185 146.42 42.0553 146.421 42.0959L146.433 42.8797C146.433 42.921 146.415 42.9604 146.385 42.9884C146.355 43.0162 146.315 43.0313 146.274 43.0313L142.281 43.0196L143.388 41.801Z" stroke="black" stroke-width="0.1"/>
<path d="M161.086 42.9559C161.516 42.9391 161.854 42.8667 162.103 42.7387C162.433 42.568 162.705 42.3328 162.917 42.0328C163.112 41.7575 163.226 41.3626 163.258 40.848C163.314 39.9573 163.339 39.0666 163.334 38.1759M161.086 42.9559L162.488 30.512C163.064 30.965 163.357 31.5676 163.366 32.3153C163.379 33.4634 163.381 34.6124 163.372 35.7618L163.384 38.1756L163.334 38.1759M161.086 42.9559C160.139 42.9921 159.167 42.9998 158.172 42.9791L161.086 42.9559ZM163.334 38.1759L163.322 35.7617L163.334 38.1759ZM163.334 38.1759L163.322 35.7617L163.334 38.1759ZM163.322 35.7617C163.331 34.6125 163.329 33.4639 163.316 32.3159C163.307 31.5829 163.021 30.9947 162.457 30.5513C162.063 30.2411 161.572 30.0859 160.984 30.0859H158.176C158.149 30.0859 158.123 30.0966 158.104 30.1155C158.086 30.1344 158.075 30.16 158.075 30.1868L163.322 35.7617ZM162.207 40.4117C162.21 41.4576 161.689 41.976 160.644 41.9669C160.306 41.9643 159.874 41.963 159.351 41.963C159.308 41.963 159.266 41.9457 159.236 41.9148C159.205 41.8838 159.188 41.8419 159.188 41.7982V31.3851C159.188 31.3254 159.21 31.2678 159.249 31.2231C159.288 31.1785 159.342 31.1499 159.401 31.1427C160.027 31.0678 160.582 31.0755 161.067 31.166M162.207 40.4117C162.199 37.7939 162.196 35.1761 162.196 32.5583C162.196 32.1731 162.093 31.8538 161.887 31.6004C161.71 31.3806 161.437 31.2358 161.067 31.166M162.207 40.4117L162.157 40.4119L162.207 40.4117ZM162.207 40.4117L162.157 40.4119L162.207 40.4117ZM161.067 31.166L161.058 31.2151L161.067 31.166ZM161.067 31.166L161.058 31.2151L161.067 31.166ZM161.058 31.2151C160.579 31.1257 160.029 31.1179 159.407 31.1924L161.058 31.2151ZM161.058 31.2151C161.42 31.2834 161.681 31.4239 161.848 31.6318C162.045 31.8747 162.146 32.1824 162.146 32.5583C162.146 35.1762 162.149 37.794 162.157 40.4119M162.157 40.4119C162.158 40.9271 162.031 41.3031 161.783 41.5495C161.536 41.7959 161.159 41.9214 160.645 41.9169C160.306 41.9143 159.875 41.913 159.351 41.913C159.321 41.913 159.292 41.9011 159.271 41.8796C159.25 41.8581 159.238 41.8289 159.238 41.7982V31.3851C159.238 31.3375 159.255 31.2916 159.287 31.2561C159.318 31.2207 159.361 31.198 159.407 31.1924M158.025 42.8802C158.025 42.9192 158.04 42.9567 158.068 42.9845C158.095 43.0123 158.132 43.0283 158.171 43.0291C159.167 43.0498 160.14 43.0421 161.088 43.0058C161.521 42.9889 161.868 42.9158 162.125 42.7831C162.463 42.6089 162.741 42.3683 162.958 42.0617L158.025 42.8802Z" fill="black"/>
<path d="M161.086 42.9559C161.516 42.9391 161.854 42.8667 162.103 42.7387C162.433 42.568 162.705 42.3328 162.917 42.0328C163.112 41.7575 163.226 41.3626 163.258 40.848C163.314 39.9573 163.339 39.0666 163.334 38.1759M161.086 42.9559L162.488 30.512C163.064 30.965 163.357 31.5676 163.366 32.3153C163.379 33.4634 163.381 34.6124 163.372 35.7618L163.384 38.1756L163.334 38.1759M161.086 42.9559C160.139 42.9921 159.167 42.9998 158.172 42.9791L161.086 42.9559ZM163.334 38.1759L163.322 35.7617M163.322 35.7617C163.331 34.6125 163.329 33.4639 163.316 32.3159C163.307 31.5829 163.021 30.9947 162.457 30.5513C162.063 30.2411 161.572 30.0859 160.984 30.0859H158.176C158.149 30.0859 158.123 30.0966 158.104 30.1155C158.086 30.1344 158.075 30.16 158.075 30.1868L163.322 35.7617ZM162.207 40.4117C162.21 41.4576 161.689 41.976 160.644 41.9669C160.306 41.9643 159.874 41.963 159.351 41.963C159.308 41.963 159.266 41.9457 159.236 41.9148C159.205 41.8838 159.188 41.8419 159.188 41.7982V31.3851C159.188 31.3254 159.21 31.2678 159.249 31.2231C159.288 31.1785 159.342 31.1499 159.401 31.1427M162.207 40.4117C162.199 37.7939 162.196 35.1761 162.196 32.5583C162.196 32.1731 162.093 31.8538 161.887 31.6004C161.71 31.3806 161.437 31.2358 161.067 31.166M162.207 40.4117L162.157 40.4119M159.401 31.1427C160.027 31.0678 160.582 31.0755 161.067 31.166M159.401 31.1427L159.407 31.1924M161.067 31.166L161.058 31.2151M162.157 40.4119C162.149 37.794 162.146 35.1762 162.146 32.5583C162.146 32.1824 162.045 31.8747 161.848 31.6318C161.681 31.4239 161.42 31.2834 161.058 31.2151M162.157 40.4119C162.158 40.9271 162.031 41.3031 161.783 41.5495C161.536 41.7959 161.159 41.9214 160.645 41.9169C160.306 41.9143 159.875 41.913 159.351 41.913C159.321 41.913 159.292 41.9011 159.271 41.8796C159.25 41.8581 159.238 41.8289 159.238 41.7982V31.3851C159.238 31.3375 159.255 31.2916 159.287 31.2561C159.318 31.2207 159.361 31.198 159.407 31.1924M161.058 31.2151C160.579 31.1257 160.029 31.1179 159.407 31.1924M158.025 42.8802C158.025 42.9192 158.04 42.9567 158.068 42.9845C158.095 43.0123 158.132 43.0283 158.171 43.0291C159.167 43.0498 160.14 43.0421 161.088 43.0058C161.521 42.9889 161.868 42.9158 162.125 42.7831C162.463 42.6089 162.741 42.3683 162.958 42.0617L158.025 42.8802Z" stroke="black" stroke-width="0.1"/>
<path d="M170.996 41.955C171.028 41.9557 171.059 41.9624 171.088 41.9748C171.116 41.9872 171.143 42.005 171.164 42.0273C171.186 42.0497 171.203 42.0761 171.213 42.1051C171.224 42.1341 171.228 42.1649 171.225 42.1956L170.996 41.955ZM170.996 41.955L168.171 41.9084L170.996 41.955ZM170.996 41.955L168.171 41.9084L170.996 41.955ZM168.241 35.8642H170.716C170.755 35.8642 170.793 35.8792 170.822 35.9065C170.85 35.9339 170.866 35.9715 170.867 36.011L168.241 35.8642ZM168.241 35.8642C168.228 35.8642 168.215 35.8592 168.206 35.8499C168.196 35.8406 168.19 35.8277 168.188 35.8137L168.241 35.8642ZM168.171 41.9084C168.171 41.9084 168.171 41.9084 168.17 41.9084H168.171ZM168.171 41.9084H168.17H168.171ZM168.17 41.9084C168.158 41.9082 168.146 41.9028 168.136 41.8925C168.127 41.8822 168.121 41.8677 168.121 41.852L168.167 37.0303C168.167 37.0302 168.167 37.0304 168.167 37.0303L168.17 41.9084ZM170.7 36.9031L168.218 36.94L168.104 31.2118C168.027 32.7942 168.039 34.3293 168.139 35.8172C168.141 35.8436 168.152 35.8683 168.171 35.8863C168.19 35.9043 168.215 35.9142 168.241 35.9142H170.716C170.742 35.9142 170.768 35.9244 170.787 35.9426C170.806 35.9608 170.817 35.9854 170.817 36.0112L170.82 36.7771C170.82 36.8102 170.808 36.842 170.785 36.8656C170.763 36.8891 170.732 36.9026 170.7 36.9031ZM167.113 30.041L170.97 30.1298V30.0798L167.113 30.041Z" fill="black"/>
<path d="M170.996 41.955C171.028 41.9557 171.059 41.9624 171.088 41.9748C171.116 41.9872 171.143 42.005 171.164 42.0273C171.186 42.0497 171.203 42.0761 171.213 42.1051C171.224 42.1341 171.228 42.1649 171.225 42.1956M170.996 41.955L171.225 42.1956M170.996 41.955L168.171 41.9084M171.225 42.1956L171.175 42.1911M168.171 41.9084C168.171 41.9084 168.171 41.9084 168.17 41.9084M168.171 41.9084H168.17M168.241 35.8642H170.716C170.755 35.8642 170.793 35.8792 170.822 35.9065C170.85 35.9339 170.866 35.9715 170.867 36.011M168.241 35.8642L170.867 36.011M168.241 35.8642C168.228 35.8642 168.215 35.8592 168.206 35.8499C168.196 35.8406 168.19 35.8277 168.188 35.8137L168.241 35.8642ZM170.867 36.011L170.817 36.0112M170.817 36.0112C170.817 35.9854 170.806 35.9608 170.787 35.9426C170.768 35.9244 170.742 35.9142 170.716 35.9142H168.241C168.215 35.9142 168.19 35.9043 168.171 35.8863C168.152 35.8683 168.141 35.8436 168.139 35.8172C168.039 34.3293 168.027 32.7942 168.104 31.2118L168.218 36.94L170.7 36.9031C170.732 36.9026 170.763 36.8891 170.785 36.8656C170.808 36.842 170.82 36.8102 170.82 36.7771L170.817 36.0112ZM168.17 41.9084C168.158 41.9082 168.146 41.9028 168.136 41.8925C168.127 41.8822 168.121 41.8677 168.121 41.852L168.167 37.0303M168.17 41.9084L168.167 37.0303M168.167 37.0303C168.167 37.0302 168.167 37.0304 168.167 37.0303ZM167.113 30.041L170.97 30.1298V30.0798L167.113 30.041Z" stroke="black" stroke-width="0.1"/>
<path d="M176.662 35.855H178.413C178.457 35.855 178.5 35.8372 178.532 35.8056C178.564 35.774 178.581 35.731 178.581 35.6863L178.57 31.2108C178.57 31.1854 178.559 31.1611 178.541 31.1429C178.522 31.1248 178.497 31.1144 178.471 31.1139M176.662 35.855L178.727 30.1016C177.369 30.0913 176 30.0861 174.618 30.0861C174.589 30.0861 174.561 30.0976 174.541 30.1179C174.521 30.1383 174.509 30.1659 174.509 30.1947V42.8533C174.509 42.8687 174.512 42.884 174.518 42.8983C174.523 42.9125 174.531 42.9254 174.541 42.9363C174.551 42.9471 174.563 42.9556 174.576 42.9613C174.59 42.9671 174.604 42.9699 174.618 42.9696M176.662 35.855C176.622 35.8552 176.583 35.8648 176.548 35.8832C176.514 35.9015 176.483 35.928 176.461 35.9604C176.438 35.9928 176.423 36.0302 176.418 36.0696C176.412 36.1089 176.416 36.149 176.429 36.1866M176.662 35.855L175.686 42.8475H175.636M178.471 31.1139L175.799 31.1042L178.471 31.1139ZM178.471 31.1139V31.1639V31.1139ZM178.471 31.1139V31.1639V31.1139ZM175.799 31.1042C175.766 31.1042 175.734 31.1172 175.71 31.1404C175.687 31.1636 175.673 31.1952 175.673 31.2283M175.799 31.1042V31.1542L178.471 31.1639M175.799 31.1042V31.1542C175.779 31.1542 175.76 31.162 175.745 31.176C175.731 31.19 175.723 31.2089 175.723 31.2288L175.673 31.2283M175.673 31.2283L175.636 42.8475L175.673 31.2283ZM175.673 31.2283L175.723 31.2288L175.686 42.8475H175.636M175.636 42.8475C175.636 42.8765 175.626 42.9043 175.608 42.9249C175.59 42.9456 175.565 42.9575 175.539 42.958L174.618 42.9696M174.618 42.9696L174.619 43.0196L177.866 36.8052C177.854 36.8039 177.843 36.8055 177.832 36.8099C177.821 36.8143 177.812 36.8213 177.804 36.8303C177.797 36.8393 177.792 36.8499 177.791 36.8611C177.789 36.8723 177.79 36.8838 177.794 36.8944L179.935 42.8649C179.94 42.8778 179.941 42.8916 179.94 42.9052C179.938 42.9188 179.933 42.9318 179.925 42.943C179.918 42.9542 179.908 42.9634 179.896 42.9697C179.884 42.976 179.871 42.9793 179.857 42.9793L178.834 42.9735C178.807 42.973 178.781 42.9634 178.759 42.9461C178.736 42.9288 178.719 42.9045 178.709 42.8766L176.429 36.1866M174.618 42.9696V43.0196C174.597 43.02 174.576 43.0157 174.557 43.0072C174.537 42.9986 174.519 42.986 174.505 42.9704C174.49 42.9547 174.479 42.9363 174.471 42.9163C174.463 42.8962 174.459 42.8749 174.459 42.8534V30.1947C174.459 30.1527 174.476 30.1123 174.506 30.0826C174.535 30.0528 174.576 30.0361 174.618 30.0361C176 30.0361 177.37 30.0413 178.727 30.0516C179.047 30.0543 179.296 30.1373 179.466 30.3089C179.636 30.4803 179.718 30.7321 179.721 31.0552C179.738 32.6713 179.746 34.2951 179.746 35.9268C179.746 36.1116 179.704 36.2727 179.617 36.4076C179.53 36.5425 179.401 36.6477 179.232 36.7246C178.899 36.876 178.44 36.9174 177.861 36.8549C177.858 36.8545 177.854 36.855 177.851 36.8562C177.848 36.8574 177.845 36.8594 177.843 36.8616C177.841 36.8639 177.84 36.8664 177.84 36.8689C177.84 36.8714 177.84 36.8739 177.841 36.8763V36.8775L179.982 42.8478C179.989 42.868 179.992 42.8899 179.989 42.9112C179.987 42.9327 179.979 42.9532 179.967 42.9711C179.955 42.989 179.938 43.0037 179.919 43.0138C179.9 43.024 179.879 43.0293 179.857 43.0293L178.833 43.0235C178.794 43.0228 178.758 43.0091 178.728 42.9855C178.698 42.962 178.675 42.9296 178.662 42.8931L176.382 36.2029L176.429 36.1866M176.429 36.1866L176.382 36.2029C176.366 36.1579 176.362 36.1098 176.368 36.0626C176.375 36.0155 176.392 35.9706 176.42 35.9317C176.447 35.8927 176.483 35.8609 176.525 35.8389C176.567 35.8168 176.614 35.8052 176.661 35.805H176.662H178.413C178.444 35.805 178.474 35.7925 178.497 35.7702C178.519 35.748 178.531 35.7178 178.531 35.6863M178.531 35.6863L178.52 31.2109C178.52 31.1993 178.515 31.1876 178.506 31.1786C178.497 31.1697 178.485 31.1642 178.471 31.1639" fill="black"/>
<path d="M176.662 35.855H178.413C178.457 35.855 178.5 35.8372 178.532 35.8056C178.564 35.774 178.581 35.731 178.581 35.6863M176.662 35.855L178.727 30.1016C177.369 30.0913 176 30.0861 174.618 30.0861C174.589 30.0861 174.561 30.0976 174.541 30.1179C174.521 30.1383 174.509 30.1659 174.509 30.1947V42.8533C174.509 42.8687 174.512 42.884 174.518 42.8983C174.523 42.9125 174.531 42.9254 174.541 42.9363C174.551 42.9471 174.563 42.9556 174.576 42.9613C174.59 42.9671 174.604 42.9699 174.618 42.9696M176.662 35.855C176.622 35.8552 176.583 35.8648 176.548 35.8832C176.514 35.9015 176.483 35.928 176.461 35.9604C176.438 35.9928 176.423 36.0302 176.418 36.0696C176.412 36.1089 176.416 36.149 176.429 36.1866M176.662 35.855L175.686 42.8475M178.581 35.6863L178.57 31.2108C178.57 31.1854 178.559 31.1611 178.541 31.1429C178.522 31.1248 178.497 31.1144 178.471 31.1139M178.581 35.6863H178.531M178.471 31.1139L175.799 31.1042M178.471 31.1139V31.1639M174.618 42.9696L175.539 42.958C175.565 42.9575 175.59 42.9456 175.608 42.9249C175.626 42.9043 175.636 42.8765 175.636 42.8475M174.618 42.9696L174.619 43.0196L177.866 36.8052C177.854 36.8039 177.843 36.8055 177.832 36.8099C177.821 36.8143 177.812 36.8213 177.804 36.8303C177.797 36.8393 177.792 36.8499 177.791 36.8611C177.789 36.8723 177.79 36.8838 177.794 36.8944L179.935 42.8649C179.94 42.8778 179.941 42.8916 179.94 42.9052C179.938 42.9188 179.933 42.9318 179.925 42.943C179.918 42.9542 179.908 42.9634 179.896 42.9697C179.884 42.976 179.871 42.9793 179.857 42.9793L178.834 42.9735C178.807 42.973 178.781 42.9634 178.759 42.9461C178.736 42.9288 178.719 42.9045 178.709 42.8766L176.429 36.1866M174.618 42.9696V43.0196C174.597 43.02 174.576 43.0157 174.557 43.0072C174.537 42.9986 174.519 42.986 174.505 42.9704C174.49 42.9547 174.479 42.9363 174.471 42.9163C174.463 42.8962 174.459 42.8749 174.459 42.8534V30.1947C174.459 30.1527 174.476 30.1123 174.506 30.0826C174.535 30.0528 174.576 30.0361 174.618 30.0361C176 30.0361 177.37 30.0413 178.727 30.0516C179.047 30.0543 179.296 30.1373 179.466 30.3089C179.636 30.4803 179.718 30.7321 179.721 31.0552C179.738 32.6713 179.746 34.2951 179.746 35.9268C179.746 36.1116 179.704 36.2727 179.617 36.4076C179.53 36.5425 179.401 36.6477 179.232 36.7246C178.899 36.876 178.44 36.9174 177.861 36.8549C177.858 36.8545 177.854 36.855 177.851 36.8562C177.848 36.8574 177.845 36.8594 177.843 36.8616C177.841 36.8639 177.84 36.8664 177.84 36.8689C177.84 36.8714 177.84 36.8739 177.841 36.8763V36.8775L179.982 42.8478C179.989 42.868 179.992 42.8899 179.989 42.9112C179.987 42.9327 179.979 42.9532 179.967 42.9711C179.955 42.989 179.938 43.0037 179.919 43.0138C179.9 43.024 179.879 43.0293 179.857 43.0293L178.833 43.0235C178.794 43.0228 178.758 43.0091 178.728 42.9855C178.698 42.962 178.675 42.9296 178.662 42.8931L176.382 36.2029M176.429 36.1866L176.382 36.2029M175.686 42.8475H175.636M175.686 42.8475L175.723 31.2288M175.636 42.8475L175.673 31.2283M175.799 31.1042C175.766 31.1042 175.734 31.1172 175.71 31.1404C175.687 31.1636 175.673 31.1952 175.673 31.2283M175.799 31.1042V31.1542M178.471 31.1639L175.799 31.1542M178.471 31.1639C178.485 31.1642 178.497 31.1697 178.506 31.1786C178.515 31.1876 178.52 31.1993 178.52 31.2109L178.531 35.6863M175.673 31.2283L175.723 31.2288M175.799 31.1542C175.779 31.1542 175.76 31.162 175.745 31.176C175.731 31.19 175.723 31.2089 175.723 31.2288M176.382 36.2029C176.366 36.1579 176.362 36.1098 176.368 36.0626C176.375 36.0155 176.392 35.9706 176.42 35.9317C176.447 35.8927 176.483 35.8609 176.525 35.8389C176.567 35.8168 176.614 35.8052 176.661 35.805H176.662H178.413C178.444 35.805 178.474 35.7925 178.497 35.7702C178.519 35.748 178.531 35.7178 178.531 35.6863" stroke="black" stroke-width="0.1"/>
<path d="M200.463 42.8722C200.469 42.8903 200.471 42.9097 200.469 42.9287C200.466 42.9477 200.459 42.9658 200.448 42.9814C200.437 42.9971 200.422 43.0098 200.405 43.0186C200.388 43.0274 200.369 43.032 200.35 43.032M200.463 42.8722L200.35 42.982L200.463 42.8722ZM200.463 42.8722L198.355 36.9157C198.355 36.9156 198.355 36.9158 198.355 36.9157C198.354 36.913 198.354 36.91 198.354 36.9073C198.355 36.9045 198.356 36.902 198.357 36.9C198.359 36.898 198.361 36.8966 198.363 36.8957C198.365 36.8948 198.367 36.8944 198.369 36.8945M200.463 42.8722L198.369 36.8945L200.463 42.8722ZM200.35 43.032V42.982V43.032ZM200.35 43.032V42.982V43.032ZM200.35 43.032H199.367H200.35ZM200.35 42.982H199.367H200.35ZM199.367 43.032V42.982V43.032ZM199.367 43.032V42.982V43.032ZM199.367 43.032C199.327 43.032 199.288 43.0196 199.256 42.9966C199.223 42.9736 199.199 42.941 199.186 42.9034L196.859 36.2095C196.843 36.1637 196.838 36.1146 196.845 36.0666C196.852 36.0185 196.87 35.9727 196.898 35.9332C196.926 35.8936 196.963 35.8613 197.006 35.8391C197.049 35.8169 197.096 35.8055 197.145 35.8057H198.942C198.953 35.8057 198.963 35.8035 198.973 35.7993C198.983 35.795 198.992 35.7887 199 35.7807C199.008 35.7727 199.014 35.7631 199.018 35.7524C199.022 35.7418 199.024 35.7303 199.024 35.7187L198.999 31.2389C198.999 31.2239 198.993 31.2099 198.985 31.2002C198.976 31.1908 198.965 31.1862 198.955 31.1859L196.28 31.1587C196.268 31.1588 196.254 31.164 196.245 31.1738C196.235 31.1836 196.229 31.1973 196.229 31.2121C196.229 31.212 196.229 31.2122 196.229 31.2121L196.192 42.85C196.192 42.8499 196.192 42.8501 196.192 42.85L196.142 42.8501L199.367 42.982M195.077 43.0281C195.057 43.0285 195.037 43.0244 195.019 43.0163C195.001 43.0082 194.985 42.9964 194.971 42.9817C194.958 42.9671 194.948 42.95 194.941 42.9315C194.934 42.9129 194.931 42.8933 194.93 42.8735L194.965 30.1877H195.015L195.077 43.0281ZM198.369 36.8945C198.798 36.9194 199.212 36.8637 199.61 36.7271L198.369 36.8945Z" fill="black"/>
<path d="M200.463 42.8722C200.469 42.8903 200.471 42.9097 200.469 42.9287C200.466 42.9477 200.459 42.9658 200.448 42.9814C200.437 42.9971 200.422 43.0098 200.405 43.0186C200.388 43.0274 200.369 43.032 200.35 43.032M200.463 42.8722L200.35 42.982M200.463 42.8722L198.355 36.9157M200.463 42.8722L198.369 36.8945M200.35 43.032V42.982M200.35 43.032H199.367M200.35 42.982H199.367M198.355 36.9157C198.355 36.9156 198.355 36.9158 198.355 36.9157ZM198.355 36.9157C198.354 36.913 198.354 36.91 198.354 36.9073C198.355 36.9045 198.356 36.902 198.357 36.9C198.359 36.898 198.361 36.8966 198.363 36.8957C198.365 36.8948 198.367 36.8944 198.369 36.8945M198.369 36.8945C198.798 36.9194 199.212 36.8637 199.61 36.7271L198.369 36.8945ZM199.367 43.032V42.982M199.367 43.032C199.327 43.032 199.288 43.0196 199.256 42.9966C199.223 42.9736 199.199 42.941 199.186 42.9034L196.859 36.2095C196.843 36.1637 196.838 36.1146 196.845 36.0666C196.852 36.0185 196.87 35.9727 196.898 35.9332C196.926 35.8936 196.963 35.8613 197.006 35.8391C197.049 35.8169 197.096 35.8055 197.145 35.8057M199.367 42.982L196.142 42.8501L196.192 42.85M197.145 35.8057V35.8557M197.145 35.8057H198.942C198.953 35.8057 198.963 35.8035 198.973 35.7993C198.983 35.795 198.992 35.7887 199 35.7807C199.008 35.7727 199.014 35.7631 199.018 35.7524C199.022 35.7418 199.024 35.7303 199.024 35.7187L198.999 31.2389C198.999 31.2239 198.993 31.2099 198.985 31.2002C198.976 31.1908 198.965 31.1862 198.955 31.1859L196.28 31.1587C196.268 31.1588 196.254 31.164 196.245 31.1738C196.235 31.1836 196.229 31.1973 196.229 31.2121M196.229 31.2121C196.229 31.2122 196.229 31.212 196.229 31.2121ZM196.229 31.2121L196.192 42.85M196.192 42.85C196.192 42.8501 196.192 42.8499 196.192 42.85ZM195.077 43.0281C195.057 43.0285 195.037 43.0244 195.019 43.0163C195.001 43.0082 194.985 42.9964 194.971 42.9817C194.958 42.9671 194.948 42.95 194.941 42.9315C194.934 42.9129 194.931 42.8933 194.93 42.8735L194.965 30.1877H195.015L195.077 43.0281ZM195.077 43.0281L196.048 43.0068" stroke="black" stroke-width="0.1"/>
<path d="M204.903 30.0361H203.864C203.808 30.0361 203.763 30.0811 203.763 30.1365V42.9309C203.763 42.9863 203.808 43.0313 203.864 43.0313H204.903C204.958 43.0313 205.003 42.9863 205.003 42.9309V30.1365C205.003 30.0811 204.958 30.0361 204.903 30.0361Z" fill="black" stroke="black" stroke-width="0.1"/>
<path d="M218.673 31.164H218.672L217.04 31.1562V31.1062L218.673 31.164ZM218.673 31.164C218.71 31.164 218.745 31.179 218.772 31.2062C218.799 31.2335 218.814 31.2709 218.815 31.3102C218.829 32.9607 218.824 34.562 218.801 36.1142C218.791 36.7717 218.797 37.8925 218.819 39.4761C218.834 40.5752 218.815 41.6963 218.76 42.8394C218.759 42.8642 218.763 42.8891 218.772 42.9124C218.781 42.9356 218.794 42.9568 218.811 42.9747C218.829 42.9927 218.849 43.0069 218.872 43.0167C218.895 43.0264 218.919 43.0314 218.944 43.0314M218.673 31.164L218.944 43.0314L218.673 31.164ZM221.785 31.0752L220.102 31.0965C220.057 31.097 220.014 31.1144 219.982 31.1449C219.951 31.1754 219.933 31.2165 219.933 31.2594M221.785 31.0752V31.1252L220.102 31.1465C220.07 31.1469 220.039 31.1595 220.017 31.1809C219.995 31.2022 219.983 31.2305 219.983 31.2594H219.933M221.785 31.0752V31.1252L221.947 30.9735L221.967 30.1941C221.967 30.1742 221.963 30.1544 221.955 30.1363C221.947 30.1182 221.935 30.1021 221.921 30.0888C221.906 30.0756 221.889 30.0653 221.87 30.0584C221.852 30.0514 221.832 30.0479 221.812 30.0479M221.785 31.0752C221.815 31.0752 221.843 31.0645 221.864 31.0452C221.885 31.026 221.897 30.9999 221.897 30.9724L221.917 30.1929C221.917 30.1805 221.915 30.1682 221.909 30.1567C221.904 30.1452 221.897 30.1347 221.887 30.1259C221.877 30.117 221.866 30.11 221.853 30.1052C221.84 30.1004 221.826 30.0979 221.812 30.0979M219.983 31.2594H219.933H219.983ZM219.933 31.2594V42.8728C219.933 42.9016 219.922 42.9292 219.901 42.9496C219.881 42.9699 219.853 42.9814 219.825 42.9814H218.944M219.983 31.2594L218.869 39.4754C218.884 40.5756 218.865 41.6977 218.81 42.8418C218.81 42.8598 218.813 42.8778 218.819 42.8947C218.825 42.9117 218.835 42.9271 218.847 42.9401C218.86 42.9532 218.875 42.9636 218.892 42.9707C218.908 42.9777 218.926 42.9814 218.944 42.9814M219.983 31.2594V42.8728C219.983 42.9148 219.966 42.9552 219.937 42.9849C219.907 43.0147 219.867 43.0314 219.825 43.0314H218.944M219.983 31.2594L218.944 43.0314L219.983 31.2594ZM218.944 42.9814V43.0314V42.9814ZM218.944 42.9814V43.0314V42.9814ZM221.812 30.0979V30.0479V30.0979ZM221.812 30.0979V30.0479V30.0979ZM221.812 30.0979V30.0479V30.0979Z" fill="black"/>
<path d="M218.673 31.164H218.672L217.04 31.1562V31.1062L218.673 31.164ZM218.673 31.164C218.71 31.164 218.745 31.179 218.772 31.2062C218.799 31.2335 218.814 31.2709 218.815 31.3102C218.829 32.9607 218.824 34.562 218.801 36.1142C218.791 36.7717 218.797 37.8925 218.819 39.4761C218.834 40.5752 218.815 41.6963 218.76 42.8394C218.759 42.8642 218.763 42.8891 218.772 42.9124C218.781 42.9356 218.794 42.9568 218.811 42.9747C218.829 42.9927 218.849 43.0069 218.872 43.0167C218.895 43.0264 218.919 43.0314 218.944 43.0314M218.673 31.164L218.944 43.0314M218.944 43.0314H219.825C219.867 43.0314 219.907 43.0147 219.937 42.9849C219.966 42.9552 219.983 42.9148 219.983 42.8728V31.2594M218.944 43.0314L219.983 31.2594M218.944 43.0314V42.9814M221.785 31.0752L220.102 31.0965C220.057 31.097 220.014 31.1144 219.982 31.1449C219.951 31.1754 219.933 31.2165 219.933 31.2594M221.785 31.0752V31.1252M221.785 31.0752C221.815 31.0752 221.843 31.0645 221.864 31.0452C221.885 31.026 221.897 30.9999 221.897 30.9724M219.933 31.2594H219.983M219.933 31.2594V42.8728C219.933 42.9016 219.922 42.9292 219.901 42.9496C219.881 42.9699 219.853 42.9814 219.825 42.9814H218.944M221.785 31.1252L220.102 31.1465C220.07 31.1469 220.039 31.1595 220.017 31.1809C219.995 31.2022 219.983 31.2305 219.983 31.2594M221.785 31.1252L221.947 30.9735M219.983 31.2594L218.869 39.4754C218.884 40.5756 218.865 41.6977 218.81 42.8418C218.81 42.8598 218.813 42.8778 218.819 42.8947C218.825 42.9117 218.835 42.9271 218.847 42.9401C218.86 42.9532 218.875 42.9636 218.892 42.9707C218.908 42.9777 218.926 42.9814 218.944 42.9814M221.947 30.9735L221.897 30.9724M221.947 30.9735L221.967 30.1941C221.967 30.1742 221.963 30.1544 221.955 30.1363C221.947 30.1182 221.935 30.1021 221.921 30.0888C221.906 30.0756 221.889 30.0653 221.87 30.0584C221.852 30.0514 221.832 30.0479 221.812 30.0479V30.0979C221.826 30.0979 221.84 30.1004 221.853 30.1052C221.866 30.11 221.877 30.117 221.887 30.1259C221.897 30.1347 221.904 30.1452 221.909 30.1567C221.915 30.1682 221.917 30.1805 221.917 30.1929L221.897 30.9724" stroke="black" stroke-width="0.1"/>
</svg>
