<svg width="270" height="72" viewBox="0 0 270 72" fill="none" xmlns="http://www.w3.org/2000/svg">
<path d="M121.147 38.7693L127.79 32.034C127.886 31.9363 127.883 31.7747 127.787 31.677L109.615 13.1415C109.52 13.045 109.54 12.9978 109.674 13.0001L124.561 13.0607C124.667 13.0607 124.766 13.1045 124.838 13.1786L135.513 24.0257C135.549 24.0628 135.605 24.0628 135.641 24.0257L146.187 13.2661C146.316 13.1381 146.487 13.0641 146.666 13.0641L182.597 13.0607C182.818 13.0607 183 13.2493 183 13.4816V23.8304C183 23.9281 182.924 24.0055 182.832 24.0055L162.421 24.0695C162.322 24.0695 162.243 24.1436 162.239 24.2379L162.213 26.2955C162.21 26.4235 162.322 26.5313 162.457 26.5313L182.769 26.5953C182.861 26.5953 182.937 26.6727 182.937 26.767L182.98 37.3717C182.98 37.466 182.904 37.5401 182.812 37.5401L162.418 37.5603C162.295 37.5603 162.196 37.6613 162.196 37.7859V47.6329C162.196 47.8664 162.114 47.9023 161.949 47.7407L151.565 37.5468C151.45 37.4323 151.384 37.2774 151.384 37.1124V23.7328C151.384 23.6115 151.343 23.5936 151.261 23.6789L143.351 31.7444C143.275 31.8218 143.278 31.9464 143.354 32.0239L158.812 47.7878C158.951 47.9293 158.921 48 158.723 48H144.236C143.952 48 143.678 47.8855 143.479 47.6834L135.658 39.7459C135.589 39.6785 135.483 39.6785 135.417 39.7459L127.529 47.7912C127.397 47.9259 127.216 48 127.031 48H87.1668C87.0743 48 87.0017 47.9259 87.0017 47.8316L87.0215 38.5874C87.0215 38.4965 87.0974 38.4224 87.1899 38.4224C94.7572 38.4 102.325 38.3932 109.892 38.4022C110.636 38.4022 111.153 38.3169 111.444 38.1463C112.003 37.8162 112.192 37.2269 112.012 36.3783C111.879 35.7631 111.506 35.4555 110.892 35.4555C106.437 35.451 101.94 35.423 97.4018 35.3713C96.2485 35.3579 95.0599 35.0918 93.8361 34.5732C92.7179 34.0972 91.6977 33.4574 90.7755 32.6536C87.9382 30.1863 86.7001 26.8815 87.0611 22.7393C87.2878 20.1507 88.3025 17.9516 90.1052 16.1421C92.1808 14.0564 94.6956 13.0225 97.6495 13.0405C100.346 13.054 103.162 13.0607 106.098 13.0607C106.316 13.0607 106.528 13.1483 106.683 13.3065L115.561 22.3621C115.699 22.5036 115.67 22.5743 115.472 22.5743C109.452 22.5743 103.456 22.5743 97.4844 22.5743C96.4983 22.5743 95.9744 23.0233 95.9128 23.9213C95.8776 24.413 96.0052 24.8115 96.2958 25.1169C96.6105 25.4469 97.0343 25.6119 97.5669 25.6119C101.529 25.6074 105.491 25.6052 109.453 25.6052C111.445 25.6052 113.253 25.9801 114.877 26.73C116.528 27.4955 117.906 28.6506 119.011 30.1953C120.737 32.6065 121.416 35.4488 121.048 38.7221C121.037 38.8322 121.07 38.8479 121.147 38.7693Z" fill="black"/>
<path d="M181.177 57.7781C181.578 57.6201 181.746 57.3193 181.68 56.8759C181.553 56.0385 181.769 55.7094 182.326 55.8887C182.428 55.9217 182.535 55.9312 182.648 55.917C182.929 55.8816 183.037 55.9842 182.971 56.2248C182.93 56.3687 182.911 56.4855 182.913 56.5751C182.931 57.0823 182.915 57.5882 182.862 58.093C182.852 58.2062 182.791 58.3053 182.696 58.3584C181.267 59.1651 179.911 59.2111 178.63 58.4964C177.959 58.1213 177.488 57.5941 177.216 56.9148C176.874 56.0562 176.938 55.2731 177.407 54.5654C177.93 53.7729 178.701 53.2752 179.72 53.0723C180.766 52.8647 181.787 53.1041 182.781 53.7906C183.055 53.9816 183.072 54.1302 182.832 54.2364C182.732 54.2812 182.646 54.346 182.574 54.431C182.336 54.7211 182.022 54.7258 181.633 54.4451C181.277 54.188 180.843 54.0889 180.332 54.1479C179.904 54.1998 179.512 54.3685 179.156 54.6539C178.327 55.3167 178.229 56.1022 178.861 57.0103C179.117 57.3807 179.454 57.6307 179.873 57.7604C180.373 57.9185 180.808 57.9244 181.177 57.7781Z" fill="black"/>
<path d="M92.5525 55.7023L91.0547 58.072C90.7144 58.6115 90.3897 58.6309 90.0807 58.1303L88.7206 55.932C88.5168 55.6039 88.4139 55.6306 88.4116 56.0122L88.3948 58.7136C88.3915 58.823 88.3209 58.9177 88.2235 58.936C87.8071 59.0162 87.4746 59.021 87.2261 58.9505C87.1321 58.9214 87.0683 58.823 87.0683 58.7099C87.0459 57.3125 87.038 55.915 87.0447 54.5175C87.0447 54.498 87.0313 54.2684 87.0044 53.8285C86.9552 53.092 87.3157 52.8466 88.0858 53.0921C88.1933 53.1249 88.2874 53.1978 88.3478 53.2962L90.3964 56.5809C90.467 56.6939 90.6181 56.6976 90.6853 56.5845C91.2674 55.6027 91.8741 54.6159 92.5055 53.6243C92.8525 53.0799 93.297 52.9122 93.8388 53.1212C93.9362 53.1577 94 53.2597 94 53.3728V58.7974C94 58.9032 93.9228 58.9907 93.8287 58.9907H92.8615C92.7708 58.9907 92.6969 58.9032 92.6936 58.7974L92.6566 55.7424C92.6544 55.6087 92.6197 55.5954 92.5525 55.7023Z" fill="black"/>
<path d="M101.647 57.9803C101.462 58.831 100.944 59.1494 100.095 58.9355C100.019 58.9175 99.977 58.8166 100.013 58.7301L102.262 53.3192C102.304 53.2147 102.38 53.1354 102.468 53.1029C103.049 52.8987 103.487 52.9984 103.784 53.4021C103.822 53.455 104.004 53.8684 104.329 54.6422C104.896 55.9856 105.449 57.3374 105.987 58.6976C106.024 58.7914 105.978 58.9031 105.903 58.9031L104.895 58.9211C104.828 58.9211 104.746 58.8382 104.692 58.712L104.341 57.9046C104.296 57.8 104.202 57.7315 104.102 57.7351L101.832 57.7748C101.75 57.7748 101.675 57.8577 101.647 57.9803ZM102.94 54.6638L102.265 56.3401C102.201 56.5023 102.322 56.6861 102.492 56.6789L103.69 56.6213C103.79 56.6177 103.851 56.4915 103.808 56.3869L103.115 54.6783C103.055 54.5293 102.996 54.5244 102.94 54.6638Z" fill="black"/>
<path d="M115.952 57.2531L116.899 58.6794C116.956 58.7641 116.921 58.8821 116.836 58.9042C116.051 59.0909 115.446 58.7912 115.019 58.0049C114.861 57.7138 114.634 57.4853 114.363 57.3452C113.45 56.8784 113.108 57.3661 113.337 58.8083C113.353 58.9079 113.29 59 113.205 59L112.161 58.9963C112.073 58.9963 112 58.9079 112 58.801V53.2285C112 53.1253 112.073 53.0405 112.161 53.0368C112.968 53.0123 113.777 53 114.587 53C114.98 53 115.355 53.0749 115.713 53.2248C116.066 53.3747 116.357 53.6339 116.586 54.0025C117.291 55.1351 117.095 56.1327 116 56.9951C115.921 57.0577 115.899 57.1757 115.952 57.2531ZM114.678 54.2052C114.382 54.1388 114.038 54.1192 113.647 54.1462C113.479 54.1572 113.347 54.3047 113.35 54.4853L113.36 55.9926C113.36 56.0958 113.435 56.188 113.539 56.2064C114.17 56.3366 114.644 56.3108 114.962 56.129C115.622 55.7482 115.803 55.3059 115.505 54.8022C115.322 54.4877 115.046 54.2887 114.678 54.2052Z" fill="black"/>
<path d="M125.411 55.5288C126.023 54.9131 126.614 54.266 127.184 53.5873C127.453 53.2649 127.709 53.0795 127.951 53.031C128.215 52.9753 128.481 52.9947 128.75 53.0892C128.849 53.1231 128.862 53.1837 128.788 53.271L126.931 55.4379C126.847 55.5397 126.838 55.7033 126.91 55.816C127.579 56.8194 128.238 57.7187 128.887 58.5137C129.209 58.9112 128.843 59.0094 127.791 58.8082C127.628 58.7791 127.48 58.6773 127.37 58.5246L126.155 56.8231C126.094 56.7395 126.001 56.7104 125.922 56.754C125.389 57.0424 125.174 57.589 125.277 58.3937C125.331 58.8252 125.199 59.0263 124.882 58.9972C124.742 58.9851 124.57 58.9827 124.364 58.99C124.097 58.9997 123.977 58.8252 124.004 58.4664C124.029 58.1465 124.042 57.9756 124.042 57.9538C124.034 56.4122 124.039 54.8707 124.056 53.3292C124.059 53.2092 124.114 53.111 124.196 53.0819C124.413 53.0116 124.711 53.0189 125.091 53.1037C125.198 53.1256 125.277 53.2455 125.277 53.3837L125.291 55.4633C125.291 55.5869 125.331 55.6087 125.411 55.5288Z" fill="black"/>
<path d="M136.721 57.8739C137.592 57.896 138.464 57.9022 139.337 57.8923C139.363 57.8923 139.445 57.8849 139.583 57.8702C139.981 57.8234 140.094 58.1458 139.923 58.8375C139.901 58.9335 139.815 59 139.723 59H135.2C135.089 59 135 58.9077 135 58.7932V53.1846C135 53.0812 135.079 53 135.178 53L139.53 53.0185C139.655 53.0221 139.766 53.0738 139.83 53.1625C139.989 53.3889 139.992 53.6252 139.837 53.8714C139.78 53.9637 139.676 54.0228 139.551 54.0375C138.416 54.1778 137.643 54.2012 137.231 54.1077C136.517 53.9452 136.311 54.3182 136.613 55.2265C136.649 55.3335 136.746 55.4037 136.856 55.4037L139.084 55.4148C139.209 55.4185 139.319 55.4628 139.394 55.544C139.613 55.7754 139.633 56.04 139.455 56.3378C139.398 56.4338 139.291 56.4892 139.169 56.4892L136.703 56.5077C136.556 56.5077 136.439 56.6222 136.449 56.7588L136.506 57.6929C136.514 57.7926 136.606 57.8702 136.721 57.8739Z" fill="black"/>
<path d="M149.144 54.609L149.132 58.6517C149.132 58.7627 149.07 58.8589 148.979 58.8885C148.088 59.1646 147.724 58.9279 147.888 58.1783C148.027 57.5421 147.988 56.271 147.773 54.3649C147.763 54.2576 147.689 54.1762 147.598 54.1688L146.255 54.0357C146.152 54.0283 146.068 53.9506 146.04 53.847C145.982 53.6251 145.987 53.4056 146.056 53.1886C146.087 53.0888 146.174 53.0222 146.273 53.0222L150.696 53C150.846 53 150.97 53.1295 150.992 53.307C151.064 53.9309 150.652 54.1602 149.754 53.995C149.347 53.921 149.144 54.1257 149.144 54.609Z" fill="black"/>
<path d="M158.158 53.1934L157.03 53.1974C156.955 53.1976 156.895 53.2584 156.895 53.333L156.913 58.418C156.913 58.4927 156.974 58.553 157.049 58.5527L158.176 58.5488C158.251 58.5485 158.311 58.4878 158.311 58.4131L158.293 53.3282C158.293 53.2535 158.232 53.1932 158.158 53.1934Z" fill="black"/>
<path d="M166.257 55.7119L166.225 58.73C166.225 58.8417 166.157 58.9319 166.077 58.9283L165.186 58.8958C165.101 58.8922 165.036 58.7985 165.033 58.6831L165 53.3644C164.997 53.2527 165.056 53.1553 165.142 53.1156C165.627 52.9017 166.013 52.9846 166.299 53.3644C167.06 54.3813 167.817 55.4042 168.568 56.433C168.643 56.534 168.681 56.5184 168.683 56.3862L168.743 53.4185C168.746 53.2707 168.823 53.1553 168.917 53.1517L169.855 53.1229C169.935 53.1192 170 53.231 170 53.3644V58.6362C170 58.748 169.944 58.849 169.858 58.8886C169.355 59.1122 168.945 58.9992 168.627 58.5497C167.74 57.29 166.987 56.3225 166.37 55.647C166.297 55.5676 166.259 55.5893 166.257 55.7119Z" fill="black"/>
</svg>
