<svg width="31" height="32" viewBox="0 0 31 32" fill="none" xmlns="http://www.w3.org/2000/svg">
<g clip-path="url(#clip0_91_6850)">
<path d="M22.2083 0.746704L29.3984 0.747476L29.5566 0.768264L29.7127 0.809472L29.8078 0.847616C29.933 0.899663 30.0502 0.975332 30.1531 1.07267L30.2174 1.13843L30.2862 1.22259L30.3717 1.35713L30.4327 1.49196L30.463 1.58762L30.4845 1.68317L30.4992 1.82379L30.5 8.58995C30.5 9.20831 29.9698 9.70958 29.3158 9.70958C28.7163 9.70958 28.2209 9.28837 28.1424 8.74188L28.1316 8.58995L28.1309 4.5669L17.9638 14.182C17.5434 14.5795 16.8855 14.6156 16.4219 14.2904L16.2891 14.182L11.5045 9.83699L2.52153 18.3303C2.05907 18.7676 1.30929 18.7676 0.846839 18.3303C0.426428 17.9328 0.388209 17.3108 0.732181 16.8725L0.846839 16.7469L10.6672 7.4619C11.0876 7.06442 11.7454 7.02828 12.209 7.35348L12.3418 7.46189L17.1264 11.8069L26.4541 2.98597H22.2083C21.6088 2.98597 21.1133 2.56476 21.0349 2.01826L21.0241 1.86634C21.0241 1.29951 21.4696 0.831063 22.0476 0.756924L22.2083 0.746704ZM1.68418 23.1394C2.33819 23.1394 2.86837 23.6406 2.86837 24.259V29.4839C2.86837 30.1024 2.33819 30.6036 1.68418 30.6036C1.03018 30.6036 0.5 30.1024 0.5 29.4839V24.259C0.5 23.6406 1.03018 23.1394 1.68418 23.1394ZM10.7629 18.2876C10.7629 17.6693 10.2327 17.168 9.57873 17.168C8.92473 17.168 8.39455 17.6693 8.39455 18.2876V29.4839C8.39455 30.1024 8.92473 30.6036 9.57873 30.6036C10.2327 30.6036 10.7629 30.1024 10.7629 29.4839V18.2876ZM17.4733 20.1537C18.1273 20.1537 18.6575 20.655 18.6575 21.2733V29.4839C18.6575 30.1024 18.1273 30.6036 17.4733 30.6036C16.8193 30.6036 16.2891 30.1024 16.2891 29.4839V21.2733C16.2891 20.655 16.8193 20.1537 17.4733 20.1537ZM26.552 13.8091C26.552 13.1907 26.0218 12.6894 25.3678 12.6894C24.7138 12.6894 24.1837 13.1907 24.1837 13.8091V29.4839C24.1837 30.1024 24.7138 30.6036 25.3678 30.6036C26.0218 30.6036 26.552 30.1024 26.552 29.4839V13.8091Z" fill="#151FE1"/>
</g>
<defs>
<clipPath id="clip0_91_6850">
<rect width="31" height="30.8521" fill="white" transform="translate(0 0.535767)"/>
</clipPath>
</defs>
</svg>
