<svg width="35" height="34" viewBox="0 0 35 34" fill="none" xmlns="http://www.w3.org/2000/svg">
<g clip-path="url(#clip0_91_6839)">
<path d="M16.2307 9.93982C14.6395 10.375 13.6807 11.5973 13.6807 12.7499C13.6807 13.9025 14.6395 15.1248 16.2307 15.5583V9.93982ZM18.7807 18.4415V24.0583C20.3719 23.6248 21.3307 22.4025 21.3307 21.2499C21.3307 20.0973 20.3719 18.875 18.7807 18.4415Z" fill="#7C51F1"/>
<path fill-rule="evenodd" clip-rule="evenodd" d="M34.5 17C34.5 26.3891 26.8891 34 17.5 34C8.1109 34 0.5 26.3891 0.5 17C0.5 7.6109 8.1109 0 17.5 0C26.8891 0 34.5 7.6109 34.5 17ZM17.5 5.525C17.8382 5.525 18.1625 5.65933 18.4016 5.89844C18.6407 6.13755 18.775 6.46185 18.775 6.8V7.3389C21.546 7.8353 23.875 9.9178 23.875 12.75C23.875 13.0882 23.7407 13.4125 23.5016 13.6516C23.2625 13.8907 22.9382 14.025 22.6 14.025C22.2618 14.025 21.9375 13.8907 21.6984 13.6516C21.4593 13.4125 21.325 13.0882 21.325 12.75C21.325 11.5974 20.3662 10.3751 18.775 9.9399V15.8389C21.546 16.3353 23.875 18.4178 23.875 21.25C23.875 24.0822 21.546 26.1647 18.775 26.6611V27.2C18.775 27.5382 18.6407 27.8625 18.4016 28.1016C18.1625 28.3407 17.8382 28.475 17.5 28.475C17.1618 28.475 16.8375 28.3407 16.5984 28.1016C16.3593 27.8625 16.225 27.5382 16.225 27.2V26.6611C13.454 26.1647 11.125 24.0822 11.125 21.25C11.125 20.9118 11.2593 20.5875 11.4984 20.3484C11.7375 20.1093 12.0618 19.975 12.4 19.975C12.7382 19.975 13.0625 20.1093 13.3016 20.3484C13.5407 20.5875 13.675 20.9118 13.675 21.25C13.675 22.4026 14.6338 23.6249 16.225 24.0584V18.1611C13.454 17.6647 11.125 15.5822 11.125 12.75C11.125 9.9178 13.454 7.8353 16.225 7.3389V6.8C16.225 6.46185 16.3593 6.13755 16.5984 5.89844C16.8375 5.65933 17.1618 5.525 17.5 5.525Z" fill="#151FE1"/>
</g>
<defs>
<clipPath id="clip0_91_6839">
<rect width="35" height="34" fill="white"/>
</clipPath>
</defs>
</svg>
