<svg width="49" height="48" viewBox="0 0 49 48" fill="none" xmlns="http://www.w3.org/2000/svg">
<g clip-path="url(#clip0_91_7722)">
<path d="M24.5 48C37.755 48 48.5 37.255 48.5 24C48.5 10.745 37.755 0 24.5 0C11.245 0 0.5 10.745 0.5 24C0.5 37.255 11.245 48 24.5 48Z" fill="white"/>
<path d="M14.1501 13.1689V21.3329C15.3931 19.8509 16.8831 19.1049 18.6111 19.1049C19.5011 19.1049 20.2981 19.2749 21.0131 19.6119C21.7301 19.9469 22.2661 20.3769 22.6281 20.8989C22.9921 21.4259 23.2381 22.0029 23.3711 22.6389C23.5031 23.2719 23.5691 24.2569 23.5691 25.5929V34.3219H19.7071V26.4599C19.7071 24.8999 19.6371 23.9119 19.4901 23.4919C19.3523 23.0805 19.0791 22.728 18.7151 22.4919C18.3431 22.2409 17.8801 22.1169 17.3211 22.1169C16.6811 22.1169 16.1071 22.2769 15.6081 22.5949C15.0981 22.9149 14.7321 23.3929 14.5001 24.0319C14.2641 24.6719 14.1461 25.6169 14.1501 26.8679L14.1461 34.3219H10.2891V13.1689H14.1511M29.3571 13.1689V21.3329C30.6011 19.8509 32.0901 19.1049 33.8171 19.1049C34.7041 19.1049 35.5071 19.2749 36.2231 19.6119C36.9371 19.9469 37.4731 20.3769 37.8331 20.8989C38.1964 21.4224 38.4492 22.0145 38.5761 22.6389C38.7091 23.2719 38.7751 24.2569 38.7751 25.5929V34.3219H34.9171V26.4599C34.9171 24.8999 34.8441 23.9119 34.6971 23.4919C34.5593 23.08 34.2852 22.7272 33.9201 22.4919C33.5521 22.2409 33.0851 22.1169 32.5261 22.1169C31.8871 22.1169 31.3131 22.2769 30.8131 22.5949C30.3101 22.9149 29.9421 23.3929 29.7071 24.0319C29.4751 24.6719 29.3571 25.6169 29.3571 26.8679V34.3219H25.5001V13.1689H29.3571Z" fill="#D6001C"/>
</g>
<defs>
<clipPath id="clip0_91_7722">
<rect width="48" height="48" fill="white" transform="translate(0.5)"/>
</clipPath>
</defs>
</svg>
