<svg width="270" height="72" viewBox="0 0 270 72" fill="none" xmlns="http://www.w3.org/2000/svg">
<path d="M143 29.9185C142.967 31.147 143.007 32.3731 143.121 33.5968C143.249 34.9581 142.307 35.4372 140.296 35.034C140.142 35.0023 140.005 34.9186 139.907 34.7976C139.81 34.6766 139.758 34.5261 139.763 34.3724C139.815 30.3359 139.763 26.373 139.606 22.4836C139.601 22.4551 139.571 22.1658 139.514 21.6156C139.381 20.297 140.057 19.7894 141.541 20.093C142.424 20.2733 144.677 20.3325 148.3 20.2709C149.652 20.2472 150.67 21.0061 151.353 22.5476C152.202 24.4686 151.934 26.1335 150.549 27.5422C150.481 27.615 150.438 27.7081 150.426 27.8078C150.415 27.9076 150.435 28.0089 150.485 28.0971C151.31 29.558 151.716 31.1446 151.701 32.8569C151.701 32.947 151.732 33.3241 151.794 33.9882C151.893 35.0886 151.08 35.4585 149.353 35.0981C149.087 35.0415 148.842 34.875 148.654 34.6229C148.466 34.3708 148.344 34.0462 148.308 33.6965L147.966 30.4023C147.95 30.2517 147.879 30.107 147.763 29.9875C147.648 29.868 147.493 29.7794 147.319 29.7335C145.777 29.3209 144.456 29.2355 143.356 29.4774C143.256 29.4997 143.167 29.5553 143.103 29.6353C143.038 29.7153 143.002 29.815 143 29.9185ZM148.489 23.8601C148.484 23.6073 148.379 23.3668 148.197 23.1915C148.015 23.0162 147.771 22.9204 147.518 22.9253L143.833 22.996C143.58 23.0008 143.34 23.1059 143.164 23.2881C142.989 23.4703 142.893 23.7147 142.898 23.9675L142.932 25.7316C142.937 25.9844 143.042 26.2249 143.224 26.4003C143.406 26.5756 143.651 26.6713 143.903 26.6665L147.588 26.5958C147.841 26.5909 148.082 26.4858 148.257 26.3036C148.432 26.1214 148.528 25.8771 148.523 25.6243L148.489 23.8601Z" fill="black"/>
<path d="M209.303 26.0557C209.156 28.0289 209.599 28.1712 210.633 26.4826C211.847 24.4999 213.512 23.7102 215.628 24.1134C216.164 24.2177 216.24 24.4596 215.855 24.8391L213.045 27.6494C212.914 27.7782 212.827 27.9404 212.796 28.1105C212.765 28.2806 212.792 28.4489 212.874 28.5886L216.119 34.2875C216.522 34.9942 216.37 35.3073 215.663 35.2267L213.209 34.9563C213.114 34.9451 213.015 34.9034 212.92 34.8343C212.825 34.7653 212.736 34.6707 212.661 34.5579C212.139 33.78 211.684 32.9642 211.295 32.1104C211.077 31.6218 210.828 31.2851 210.548 31.1001C209.936 30.6969 209.547 30.927 209.381 31.7902C209.333 32.0369 209.341 32.4258 209.402 32.957C209.63 35.0298 208.714 35.6915 206.656 34.9421C206.558 34.9047 206.473 34.8384 206.414 34.7521C206.354 34.6657 206.322 34.5633 206.322 34.4583L206.407 20.7552C206.406 20.6505 206.439 20.5477 206.5 20.4601C206.561 20.3725 206.647 20.3043 206.748 20.2643C208.532 19.5765 209.416 20.2311 209.402 22.228C209.388 24.0541 209.355 25.33 209.303 26.0557Z" fill="black"/>
<path d="M60.3905 24.3907L51.5042 24.4761C51.4035 24.476 51.3068 24.5155 51.235 24.5861C51.1631 24.6566 51.1218 24.7525 51.12 24.8531L51.0132 34.6217C51.0132 34.7312 50.9713 34.8361 50.8966 34.9135C50.8218 34.9909 50.7205 35.0344 50.6148 35.0344H46.4954C46.3758 35.0344 46.2611 34.9874 46.1759 34.9035C46.0907 34.8197 46.0419 34.7057 46.04 34.5861C45.9689 31.3276 45.9926 28.2089 46.1112 25.2302C46.1776 23.5322 46.5499 22.344 47.2282 21.6657C48.1341 20.7598 49.4527 20.2949 51.184 20.2712C55.8845 20.2048 60.585 20.2451 65.2855 20.3922C65.3848 20.3959 65.4788 20.4364 65.5478 20.5054C65.6168 20.5744 65.6554 20.6664 65.6554 20.7621L65.6128 34.5008C65.6129 34.609 65.5742 34.7129 65.505 34.7901C65.4358 34.8673 65.3417 34.9116 65.2428 34.9134L61.415 34.9703C61.3443 34.9713 61.2743 34.9561 61.2095 34.9257C61.1447 34.8954 61.0867 34.8506 61.039 34.7943C60.9914 34.738 60.9553 34.6713 60.9331 34.5987C60.9108 34.5261 60.9029 34.4491 60.9099 34.3727C61.0142 33.296 60.9431 32.3972 60.6964 31.6762C60.6611 31.5747 60.5956 31.4866 60.509 31.4241C60.4223 31.3617 60.3188 31.328 60.2126 31.3276L52.8275 31.413C52.7767 31.4138 52.7262 31.4058 52.679 31.3892C52.6319 31.3727 52.5891 31.3481 52.5532 31.3169C52.5173 31.2857 52.4891 31.2484 52.4702 31.2075C52.4513 31.1665 52.4422 31.1227 52.4433 31.0786L52.5216 27.6919C52.5235 27.6024 52.5663 27.5173 52.6408 27.4547C52.7153 27.3922 52.8156 27.3573 52.92 27.3575L60.298 27.2722C60.4069 27.2725 60.5116 27.2341 60.5899 27.1651C60.6682 27.0961 60.7141 27.0018 60.7178 26.9022L60.7818 24.7606C60.7838 24.7128 60.7751 24.6652 60.7563 24.6204C60.7375 24.5757 60.7089 24.5348 60.6724 24.5003C60.6359 24.4657 60.5921 24.4382 60.5437 24.4194C60.4952 24.4006 60.4431 24.3908 60.3905 24.3907Z" fill="black"/>
<path d="M72.891 31.5062C72.7259 31.5136 72.5642 31.5562 72.4173 31.631C72.2704 31.7058 72.142 31.811 72.0409 31.9392C71.9398 32.0674 71.8687 32.2155 71.8324 32.373C71.7961 32.5305 71.7956 32.6936 71.8309 32.8509C72.2056 34.5727 71.7811 35.3363 70.5574 35.1418C70.0925 35.0707 69.4498 35.0351 68.6292 35.0351C68.5311 35.0351 68.437 34.9969 68.3676 34.9289C68.2983 34.8608 68.2593 34.7685 68.2593 34.6723L68.302 20.6775C68.302 20.5775 68.3394 20.4816 68.4062 20.4109C68.4729 20.3402 68.5634 20.3004 68.6577 20.3004L71.5961 20.2862C71.6499 20.2853 71.7034 20.2958 71.7534 20.3172C71.8034 20.3386 71.8489 20.3704 71.8873 20.4108C71.9257 20.4512 71.9562 20.4993 71.9771 20.5525C71.9979 20.6056 72.0087 20.6626 72.0088 20.7202L72.1084 28.148C72.1084 28.243 72.1472 28.3343 72.2164 28.4021C72.2856 28.47 72.3796 28.509 72.4783 28.5109L76.2207 28.582C76.2693 28.583 76.3176 28.5748 76.3629 28.5578C76.4082 28.5408 76.4495 28.5154 76.4845 28.483C76.5195 28.4506 76.5476 28.4119 76.567 28.3691C76.5864 28.3262 76.5969 28.2801 76.5978 28.2334L76.6689 25.8286C76.6704 25.7145 76.7069 25.6055 76.7706 25.5245C76.8343 25.4436 76.9202 25.397 77.0104 25.3946L80.1623 25.3092C80.2105 25.3083 80.2583 25.3183 80.3031 25.3386C80.3479 25.3589 80.3887 25.3891 80.4232 25.4275C80.4576 25.4659 80.485 25.5118 80.5037 25.5623C80.5225 25.6128 80.5322 25.6671 80.5323 25.7219C80.5323 26.4761 80.556 27.2065 80.6034 27.9132C80.6603 28.8097 80.2785 29.405 79.4579 29.699C78.6468 29.9884 78.6587 30.2398 79.4935 30.4532C80.0959 30.605 80.3971 31.8264 80.3971 34.1173C80.397 34.3406 80.3219 34.5574 80.1838 34.7328C80.0458 34.9083 79.8528 35.0323 79.6358 35.0849C79.522 35.1086 79.2445 35.1039 78.8034 35.0707C78.6089 35.0565 78.3385 35.0683 77.9923 35.1063C76.7591 35.2438 76.3345 34.4873 76.7187 32.8367C76.9464 31.8453 76.5432 31.371 75.5092 31.4137L72.891 31.5062Z" fill="black"/>
<path d="M88.0384 26.1839L88.0028 34.6789C88.0028 34.7732 87.9653 34.8637 87.8986 34.9304C87.8319 34.9972 87.7414 35.0346 87.6471 35.0346H83.3782C83.3315 35.0346 83.2852 35.0254 83.2421 35.0076C83.1989 34.9897 83.1597 34.9635 83.1267 34.9304C83.0936 34.8974 83.0674 34.8582 83.0495 34.815C83.0317 34.7719 83.0225 34.7256 83.0225 34.6789V20.6699C83.0225 20.5642 83.0644 20.4629 83.1392 20.3882C83.2139 20.3135 83.3152 20.2715 83.4209 20.2715H87.4052C87.5789 20.2713 87.7541 20.3125 87.9187 20.3924C88.0833 20.4722 88.2334 20.5887 88.3585 20.7339L92.7412 25.885C92.7694 25.9185 92.8049 25.9451 92.8451 25.9628C92.8854 25.9806 92.9295 25.9891 92.9743 25.9877C93.019 25.9863 93.0634 25.9752 93.1043 25.955C93.1452 25.9348 93.1815 25.906 93.2108 25.8708L97.6006 20.5916C97.6739 20.5025 97.7649 20.4307 97.867 20.3815C97.9691 20.3323 98.0798 20.3068 98.1912 20.3071L102.403 20.2715C102.499 20.2715 102.592 20.3105 102.66 20.3798C102.728 20.4492 102.766 20.5433 102.766 20.6415L102.723 34.4512C102.724 34.5632 102.687 34.6707 102.622 34.7506C102.557 34.8304 102.468 34.8762 102.375 34.8781L98.3548 34.9777C98.3038 34.9787 98.2531 34.9683 98.2058 34.9473C98.1584 34.9263 98.1152 34.895 98.0788 34.8552C98.0423 34.8155 98.0134 34.7681 97.9936 34.7159C97.9738 34.6636 97.9636 34.6075 97.9635 34.5508V25.8708C97.9635 25.4629 97.833 25.4155 97.5722 25.7285L93.1468 31.1002C93.1135 31.1412 93.0711 31.1737 93.0225 31.1956C92.9739 31.2174 92.9203 31.228 92.8654 31.2267C92.8106 31.2253 92.7557 31.212 92.7048 31.1877C92.6539 31.1634 92.608 31.1287 92.5705 31.0859L88.3087 26.0771C88.1332 25.8732 88.0431 25.9088 88.0384 26.1839Z" fill="black"/>
<path d="M118.44 23.8359C119.403 24.1822 120.18 24.0162 120.773 23.3379C121.504 22.5031 121.89 22.5339 121.933 23.4304C121.937 23.5311 121.911 23.6332 121.858 23.7259C121.804 23.8186 121.724 23.8983 121.627 23.9569C119.678 25.1189 119.78 26.0083 121.933 26.6249C122.063 26.6623 122.179 26.7187 122.272 26.7893C122.365 26.8598 122.432 26.9426 122.467 27.0304C122.585 27.3293 122.457 27.5024 122.082 27.5498C121.954 27.5688 121.769 27.5498 121.528 27.4929C120.735 27.3032 120.019 27.4075 119.379 27.806C119.309 27.85 119.229 27.876 119.146 27.8814C119.064 27.8869 118.981 27.8718 118.905 27.8373C118.829 27.8029 118.762 27.7503 118.711 27.684C118.66 27.6177 118.625 27.5399 118.61 27.4573C118.203 25.2091 116.957 24.1015 114.875 24.1347C114.793 24.136 114.711 24.1173 114.637 24.0802C114.563 24.043 114.5 23.9886 114.451 23.9215C114.403 23.8544 114.372 23.7766 114.36 23.6948C114.348 23.613 114.357 23.5296 114.384 23.4517C114.707 22.5647 114.704 21.7987 114.377 21.1536C114.324 21.0493 114.297 20.9376 114.3 20.8317C114.302 20.7258 114.334 20.6301 114.391 20.556C114.847 19.9773 115.229 20.1007 115.537 20.926C116.253 22.8517 117.04 22.8232 117.899 20.8406C118.079 20.4232 118.321 20.2453 118.625 20.307C118.667 20.3149 118.706 20.3337 118.74 20.3623C118.774 20.3908 118.802 20.4286 118.822 20.4732C118.843 20.5178 118.856 20.5684 118.86 20.6217C118.864 20.6751 118.859 20.7302 118.845 20.7837L118.184 23.3521C118.158 23.4491 118.171 23.5522 118.218 23.6415C118.265 23.7309 118.344 23.8001 118.44 23.8359Z" fill="black"/>
<path d="M129.534 20.2822L127.727 20.2885C127.488 20.2893 127.294 20.4843 127.295 20.724L127.344 34.7258C127.344 34.9655 127.539 35.1591 127.779 35.1583L129.586 35.152C129.826 35.1512 130.02 34.9562 130.019 34.7165L129.97 20.7147C129.969 20.475 129.774 20.2814 129.534 20.2822Z" fill="black"/>
<path d="M134.545 20.2881L132.638 20.2981C132.516 20.2987 132.418 20.398 132.419 20.5198L132.493 34.806C132.494 34.9279 132.593 35.0261 132.715 35.0255L134.622 35.0155C134.744 35.0148 134.842 34.9156 134.841 34.7938L134.766 20.5075C134.766 20.3857 134.667 20.2875 134.545 20.2881Z" fill="black"/>
<path d="M222.522 24.0276C224.182 24.2316 224.36 24.9051 223.055 26.0482C222.932 26.1533 222.711 26.232 222.436 26.2688C222.104 26.3114 221.938 26.5059 221.938 26.8522C221.938 28.2751 221.938 29.9329 221.938 31.8254C221.939 32.0711 222.013 32.311 222.151 32.5141C222.289 32.7171 222.485 32.8738 222.714 32.9638C223.606 33.3148 223.966 33.8199 223.795 34.4792C223.771 34.5805 223.718 34.6773 223.64 34.7614C223.562 34.8455 223.462 34.9146 223.347 34.963C222.071 35.5275 220.99 35.4824 220.103 34.8278C219.463 34.3488 219.102 33.5045 219.021 32.295C218.903 30.5732 218.87 28.804 218.922 26.9874C218.924 26.8786 218.895 26.7711 218.839 26.6768C218.782 26.5825 218.7 26.5053 218.602 26.4538C217.122 25.7043 217.103 24.7841 218.545 23.6932C218.738 23.5454 218.89 23.3499 218.986 23.1256C219.082 22.9012 219.119 22.6557 219.093 22.4126C219.007 21.6442 219.273 21.222 219.889 21.1461C220.34 21.0845 220.757 21.0726 221.142 21.1105C221.872 21.177 222.102 21.8268 221.832 23.06C221.808 23.1694 221.808 23.2824 221.83 23.392C221.853 23.5015 221.898 23.6051 221.963 23.6962C222.028 23.7873 222.111 23.8638 222.208 23.9209C222.304 23.9779 222.411 24.0143 222.522 24.0276Z" fill="black"/>
<path d="M170.57 26.7242C170.043 27.0847 170.098 27.3669 170.733 27.5709L175.913 29.2215C176.624 29.4492 177.018 29.9994 177.094 30.8721C177.251 32.741 176.584 34.024 175.095 34.7212C173.534 35.4517 171.91 35.6035 170.221 35.1766C168.713 34.7971 167.705 33.7726 167.197 32.103C167.178 32.0425 167.172 31.9784 167.181 31.9155C167.189 31.8525 167.212 31.7923 167.247 31.7391C167.281 31.6859 167.328 31.6412 167.382 31.6081C167.436 31.5751 167.497 31.5546 167.56 31.5481C168.836 31.4105 169.775 31.6145 170.378 32.1599C171.298 32.9995 172.358 33.2461 173.558 32.8999C174.81 32.5394 174.869 32.1243 173.736 31.6548C173.01 31.3559 172.273 31.0903 171.523 30.8579C170.465 30.5354 169.737 30.265 169.339 30.0468C167.261 28.9132 166.835 27.4903 168.058 25.778C168.936 24.54 170.105 23.8428 171.566 23.6862C173.506 23.4823 175.164 24.2554 176.539 26.0056C177.516 27.2578 177.189 27.763 175.557 27.5211C174.623 27.3835 173.795 27.0183 173.074 26.4254C172.872 26.2557 172.65 26.1597 172.448 26.1551C171.775 26.1408 171.148 26.3306 170.57 26.7242Z" fill="black"/>
<path d="M160.396 32.629C161.472 32.3397 162.449 32.0598 163.327 31.7894C164.788 31.3436 165.117 31.7681 164.316 33.063C163.23 34.8275 161.624 35.6267 159.499 35.4607C156.852 35.2615 155.233 33.8907 154.64 31.3483C154.208 29.4843 154.419 27.8194 155.273 26.3538C155.894 25.2818 156.772 24.5276 157.905 24.0913C159.139 23.6217 160.381 23.6193 161.634 24.0841C162.687 24.4778 163.519 25.1727 164.131 26.1688C164.781 27.2218 165.072 28.3293 165.006 29.4914C164.991 29.7491 164.871 29.992 164.669 30.1714C164.467 30.3507 164.199 30.4535 163.917 30.459L158.126 30.5799C158.022 30.5833 157.923 30.6261 157.846 30.7005C157.769 30.7748 157.72 30.8759 157.706 30.9855C157.588 31.8487 157.917 32.4155 158.695 32.6859C159.127 32.8377 159.694 32.8187 160.396 32.629ZM160.794 26.6312C159.869 25.7917 159.011 25.9103 158.219 26.987C157.507 27.9498 157.685 28.4455 158.752 28.474C159.421 28.4929 159.8 28.5072 159.89 28.5166C162.091 28.7016 162.392 28.0732 160.794 26.6312Z" fill="black"/>
<path d="M183.312 34.8992L183.213 38.3854C183.206 38.599 183.136 38.8017 183.017 38.9513C182.898 39.101 182.739 39.1862 182.573 39.1894L180.609 39.2463C180.563 39.2483 180.517 39.2387 180.474 39.2181C180.431 39.1976 180.392 39.1664 180.359 39.1266C180.326 39.0868 180.299 39.039 180.281 38.9862C180.263 38.9335 180.253 38.8767 180.253 38.8194L180.168 24.7677C180.168 24.6569 180.199 24.5487 180.257 24.4556C180.315 24.3625 180.397 24.2882 180.495 24.2412C181.349 23.8333 182.198 23.8689 183.042 24.348C183.139 24.4033 183.247 24.436 183.355 24.4435C183.464 24.4509 183.571 24.4328 183.668 24.3906C185.935 23.3898 187.764 23.5724 189.154 24.9385C190.154 25.9203 190.717 27.2294 190.84 28.8658C190.958 30.4406 190.615 31.9062 189.808 33.2628C189.168 34.349 188.307 35.013 187.226 35.2549C186.054 35.5158 184.878 35.3379 183.697 34.7213C183.658 34.7002 183.614 34.6881 183.57 34.6862C183.525 34.6843 183.482 34.6927 183.444 34.7104C183.405 34.7282 183.373 34.7549 183.35 34.7879C183.327 34.8209 183.314 34.8592 183.312 34.8992ZM185.313 32.8348C185.621 32.8429 185.927 32.7681 186.215 32.6146C186.503 32.4612 186.767 32.2322 186.992 31.9407C187.218 31.6492 187.399 31.3009 187.527 30.9156C187.655 30.5304 187.726 30.1158 187.737 29.6955C187.748 29.2752 187.698 28.8574 187.591 28.466C187.484 28.0746 187.32 27.7173 187.111 27.4144C186.901 27.1115 186.65 26.869 186.37 26.7007C186.09 26.5325 185.788 26.4417 185.481 26.4337C185.174 26.4256 184.867 26.5004 184.579 26.6538C184.291 26.8072 184.027 27.0362 183.802 27.3278C183.577 27.6193 183.395 27.9676 183.267 28.3528C183.14 28.7381 183.068 29.1527 183.057 29.573C183.046 29.9933 183.096 30.4111 183.203 30.8024C183.311 31.1938 183.474 31.5512 183.683 31.8541C183.893 32.157 184.144 32.3995 184.424 32.5677C184.704 32.736 185.006 32.8268 185.313 32.8348Z" fill="black"/>
<path d="M195.969 30.9356C196.131 31.87 196.569 32.47 197.286 32.7356C197.755 32.9111 198.405 32.8471 199.235 32.5435C200.098 32.2257 200.971 31.9293 201.853 31.6542C203.191 31.232 203.516 31.6329 202.828 32.8566C201.604 35.0479 199.674 35.8329 197.037 35.2116C195.362 34.8179 194.226 33.9997 193.629 32.757C192.41 30.2146 192.493 27.9047 193.878 25.8272C194.973 24.1861 196.674 23.5505 198.979 23.9204C201.792 24.3663 203.222 26.2114 203.269 29.4557C203.271 29.606 203.242 29.7552 203.185 29.8942C203.127 30.0333 203.041 30.1594 202.933 30.265C202.825 30.3707 202.696 30.4536 202.555 30.5089C202.413 30.5642 202.262 30.5908 202.109 30.587L196.375 30.4518C196.315 30.4507 196.256 30.4631 196.201 30.488C196.147 30.5129 196.099 30.5499 196.06 30.5961C196.021 30.6423 195.993 30.6968 195.977 30.7555C195.962 30.8141 195.959 30.8757 195.969 30.9356ZM199.192 26.6667C198.021 26.0169 197.077 26.2138 196.361 27.2573C195.863 27.9877 196.055 28.379 196.937 28.4312C197.407 28.4597 197.954 28.4691 198.581 28.4597C199.055 28.4549 199.432 28.3695 199.712 28.2035C200.433 27.7766 200.26 27.2644 199.192 26.6667Z" fill="black"/>
<path d="M108.856 31.5201C108.671 31.7667 108.659 31.9802 108.821 32.1604C108.92 32.2695 109.084 32.3264 109.312 32.3312C110.64 32.3738 112.072 32.3833 113.609 32.3596C113.706 32.3578 113.798 32.318 113.866 32.2488C113.934 32.1796 113.972 32.0866 113.972 31.9897V28.3113C113.972 28.2599 113.962 28.209 113.942 28.1616C113.922 28.1141 113.893 28.071 113.857 28.0346C113.821 27.9983 113.778 27.9695 113.73 27.9498C113.683 27.9301 113.632 27.92 113.58 27.92L106.366 27.8844C106.26 27.8848 106.157 27.8518 106.072 27.7902C105.987 27.7286 105.926 27.6419 105.896 27.5429C105.697 26.8978 105.685 26.248 105.861 25.5935C105.888 25.4954 105.947 25.4089 106.031 25.3472C106.114 25.2854 106.217 25.252 106.323 25.252C108.301 25.252 110.277 25.252 112.25 25.252C114.332 25.252 115.475 25.2757 115.679 25.3231C117.131 25.6694 117.799 26.8338 117.686 28.8165C117.581 30.709 117.529 32.649 117.529 34.6364C117.529 34.742 117.487 34.8434 117.412 34.9181C117.338 34.9928 117.236 35.0348 117.131 35.0348C114.019 35.0348 111.069 35.0277 108.28 35.0134C106.772 35.0039 105.821 34.2996 105.427 32.9003C105.114 31.7904 105.23 30.856 105.775 30.0971C106.212 29.49 106.954 29.1082 108.002 28.9516C109.312 28.7524 110.768 28.7263 112.371 28.8734C112.521 28.8878 112.661 28.9519 112.77 29.0552C112.878 29.1585 112.948 29.295 112.968 29.4426C113.22 31.2165 112.724 31.8355 111.482 31.2995C110.244 30.7683 109.368 30.8418 108.856 31.5201Z" fill="black"/>
<path d="M77.6437 49.8406C76.4911 49.8216 76.1354 49.4849 76.5765 48.8303C76.6373 48.7409 76.7212 48.6681 76.8206 48.6184C76.9199 48.5687 77.0317 48.5437 77.1457 48.5457L79.2446 48.5813C79.3415 48.5813 79.4345 48.6201 79.5037 48.6893C79.5729 48.7584 79.6127 48.8525 79.6145 48.9512L79.643 51.7687C79.6452 52.0016 79.5626 52.2257 79.4134 52.3923C79.2641 52.5589 79.0602 52.6545 78.8461 52.658L72.9551 52.7505C72.6248 52.755 72.3031 52.6269 72.0511 52.3907C71.7992 52.1546 71.6347 51.8268 71.5891 51.4699C71.4088 50.0801 71.4776 48.4674 71.7954 46.6318C71.814 46.5292 71.8635 46.4347 71.9372 46.361C72.0109 46.2873 72.1054 46.2378 72.208 46.2192C74.2144 45.835 76.2326 45.7543 78.2627 45.9773C78.5378 46.0057 78.7655 46.0721 78.9457 46.1765C79.5481 46.5085 79.4106 46.8121 78.5331 47.0872C77.4896 47.4097 76.318 47.4239 75.0184 47.1299C73.714 46.831 73.0808 47.2224 73.1187 48.3038C73.1519 49.1481 73.1685 49.677 73.1685 49.8904C73.1733 50.3742 73.2563 50.8414 73.4176 51.292C73.4572 51.4043 73.5258 51.5017 73.6137 51.5705C73.7017 51.6393 73.8047 51.6763 73.9085 51.6762H77.3805C77.4873 51.676 77.5935 51.6425 77.6867 51.5795C77.7799 51.5166 77.8562 51.4267 77.907 51.3205C78.0777 50.9647 78.1346 50.5876 78.0777 50.1892C78.0639 50.0953 78.0128 50.009 77.9335 49.9453C77.8542 49.8816 77.7517 49.8445 77.6437 49.8406Z" fill="black"/>
<path d="M107.44 50.5028L108.906 52.0823C109.48 52.7037 109.371 53.0048 108.579 52.9859C107.336 52.9622 106.333 52.2104 105.569 50.7305C105.351 50.3131 104.95 50.1115 104.367 50.1257C104.182 50.1305 103.949 50.1044 103.67 50.0475C102.972 49.9147 102.754 50.4791 103.015 51.7408C103.066 51.9845 103.025 52.2382 102.9 52.4526C102.775 52.6669 102.575 52.8265 102.339 52.9005C101.4 53.1946 100.975 52.8412 101.066 51.8404C101.132 51.072 101.165 50.657 101.165 50.5953C101.165 49.3241 101.165 48.0506 101.165 46.7747C101.164 46.608 101.296 46.4378 101.535 46.298C101.774 46.1583 102.101 46.0592 102.453 46.0205C104.417 45.7976 106.376 45.8379 108.33 46.1415C108.443 46.1595 108.551 46.2007 108.644 46.2622C108.738 46.3236 108.815 46.4039 108.87 46.4972C109.957 48.3328 109.532 49.5376 107.597 50.1115C107.554 50.1234 107.513 50.1452 107.479 50.1746C107.445 50.204 107.419 50.2401 107.403 50.2795C107.388 50.3188 107.383 50.36 107.389 50.3992C107.396 50.4383 107.413 50.474 107.44 50.5028ZM107.517 47.6591C107.516 47.589 107.502 47.5197 107.475 47.4551C107.448 47.3905 107.408 47.3319 107.359 47.2826C107.309 47.2333 107.25 47.1943 107.185 47.1678C107.12 47.1414 107.05 47.1279 106.98 47.1283L103.451 47.1468C103.31 47.1475 103.175 47.2045 103.075 47.305C102.975 47.4056 102.92 47.5416 102.921 47.6832L102.924 48.3804C102.925 48.4505 102.939 48.5198 102.966 48.5844C102.993 48.649 103.033 48.7076 103.083 48.7569C103.132 48.8062 103.191 48.8452 103.256 48.8717C103.321 48.8982 103.391 48.9116 103.461 48.9112L106.99 48.8927C107.131 48.892 107.267 48.8351 107.366 48.7345C107.466 48.6339 107.521 48.4979 107.52 48.3564L107.517 47.6591Z" fill="black"/>
<path d="M138.867 51.6768C138.868 51.8319 138.838 51.9856 138.779 52.1291C138.72 52.2726 138.633 52.4031 138.524 52.5132C138.415 52.6232 138.285 52.7107 138.142 52.7705C137.999 52.8304 137.845 52.8615 137.69 52.862L132.07 52.8816C131.915 52.8822 131.761 52.8522 131.617 52.7933C131.474 52.7345 131.343 52.6479 131.233 52.5386C131.123 52.4293 131.036 52.2995 130.976 52.1564C130.916 52.0133 130.885 51.8598 130.884 51.7047L130.868 47.1228C130.868 46.9677 130.898 46.814 130.957 46.6705C131.016 46.527 131.102 46.3965 131.211 46.2865C131.321 46.1764 131.451 46.089 131.594 46.0291C131.737 45.9692 131.89 45.9382 132.045 45.9376L137.666 45.918C137.821 45.9174 137.975 45.9475 138.118 46.0063C138.262 46.0652 138.392 46.1517 138.502 46.261C138.612 46.3703 138.7 46.5002 138.76 46.6433C138.819 46.7863 138.851 46.9398 138.851 47.0949L138.867 51.6768ZM137.142 47.5805C137.142 47.5216 137.13 47.4634 137.107 47.4091C137.084 47.3549 137.051 47.3056 137.009 47.2642C136.967 47.2228 136.918 47.1901 136.863 47.1678C136.809 47.1456 136.75 47.1343 136.692 47.1346L132.921 47.1543C132.862 47.1546 132.804 47.1665 132.749 47.1893C132.695 47.2121 132.646 47.2454 132.604 47.2873C132.563 47.3291 132.53 47.3787 132.508 47.4332C132.486 47.4877 132.475 47.546 132.475 47.6049L132.494 51.2334C132.494 51.2922 132.506 51.3504 132.529 51.4047C132.552 51.459 132.585 51.5082 132.627 51.5496C132.669 51.591 132.718 51.6238 132.773 51.646C132.827 51.6683 132.886 51.6796 132.944 51.6792L136.715 51.6595C136.774 51.6592 136.832 51.6473 136.887 51.6245C136.941 51.6017 136.99 51.5684 137.031 51.5266C137.073 51.4848 137.106 51.4352 137.128 51.3807C137.15 51.3262 137.161 51.2678 137.161 51.209L137.142 47.5805Z" fill="black"/>
<path d="M168.229 46.0694C168.331 46.1048 168.419 46.1703 168.481 46.2569C168.544 46.3436 168.577 46.4471 168.578 46.5533V51.4411C168.578 52.3613 168.118 52.8214 167.197 52.8214H161.826C161.571 52.8212 161.325 52.7326 161.128 52.5706C160.931 52.4085 160.795 52.1829 160.744 51.932C160.427 50.2956 160.341 48.8798 160.488 47.6845C160.512 47.4805 160.502 47.1153 160.46 46.5888C160.408 45.8774 160.875 45.7066 161.861 46.0766C161.956 46.1128 162.038 46.1797 162.096 46.2684C162.155 46.3572 162.187 46.4639 162.189 46.5746L162.274 51.2704C162.276 51.3797 162.318 51.4838 162.39 51.5599C162.462 51.6359 162.558 51.6776 162.658 51.6759L166.408 51.6047C166.504 51.6024 166.598 51.5594 166.675 51.483C166.751 51.4066 166.805 51.3014 166.827 51.185C167.103 49.8379 167.112 48.4837 166.856 47.1224C166.647 46.0315 167.105 45.6805 168.229 46.0694Z" fill="black"/>
<path d="M196.944 46.1613C197.26 46.1731 197.561 46.2991 197.794 46.5167C198.028 46.7344 198.178 47.0295 198.218 47.3494C198.479 49.4507 197.727 50.423 195.962 50.2665C195.137 50.1906 194.068 50.1527 192.754 50.1527C192.539 50.1525 192.332 50.2353 192.177 50.3838C192.022 50.5323 191.93 50.735 191.921 50.9495C191.836 52.5954 191.345 53.2049 190.449 52.778C190.355 52.7311 190.275 52.6563 190.22 52.562C190.165 52.4678 190.136 52.3578 190.135 52.2444V46.2893C190.135 46.2423 190.145 46.1958 190.163 46.1525C190.181 46.1093 190.207 46.0702 190.241 46.0376C190.274 46.0051 190.313 45.9797 190.356 45.963C190.399 45.9464 190.445 45.9388 190.491 45.9407L196.944 46.1613ZM196.503 47.8362C196.503 47.7437 196.484 47.6522 196.449 47.5668C196.413 47.4814 196.361 47.4038 196.296 47.3385C196.23 47.2732 196.152 47.2215 196.067 47.1862C195.981 47.151 195.89 47.1329 195.797 47.1331L192.439 47.1389C192.346 47.1391 192.255 47.1574 192.17 47.193C192.084 47.2285 192.007 47.2805 191.941 47.3461C191.876 47.4116 191.824 47.4893 191.789 47.5748C191.754 47.6604 191.736 47.752 191.736 47.8445L191.737 48.3852C191.737 48.4777 191.755 48.5693 191.791 48.6547C191.826 48.7401 191.878 48.8176 191.944 48.8829C192.009 48.9482 192.087 49 192.173 49.0352C192.258 49.0705 192.35 49.0885 192.442 49.0884L195.801 49.0825C195.893 49.0824 195.985 49.064 196.07 49.0284C196.155 48.9929 196.233 48.9409 196.298 48.8754C196.364 48.8098 196.415 48.7321 196.451 48.6466C196.486 48.5611 196.504 48.4694 196.504 48.3769L196.503 47.8362Z" fill="black"/>
</svg>
