<svg width="270" height="72" viewBox="0 0 270 72" fill="none" xmlns="http://www.w3.org/2000/svg">
<path fill-rule="evenodd" clip-rule="evenodd" d="M104.473 48.6536C104.485 50.0329 104.757 51.9383 103.555 52.4883C102.89 52.7922 101.23 52.9083 100.549 52.4404C100.185 52.1911 100.232 52.1051 100.119 51.639L96.2949 51.1488C96.2737 51.9766 96.6923 53.3235 97.4609 54.0393C98.1127 54.6466 99.2837 54.9956 100.426 55.1352C103.108 55.4628 105.457 55.1636 106.719 53.5474C108.02 51.8813 107.698 48.8688 107.698 46.4465C107.698 43.7562 107.698 41.0661 107.698 38.3761L104.657 38.3773L104.655 39.8223C104.135 39.6002 103.759 38.604 102.185 38.2325C100.948 37.9411 99.7443 38.1053 98.7898 38.6409C96.8169 39.7478 95.9727 41.8241 95.9984 44.0861C96.0303 46.9064 96.8661 48.6765 98.5609 49.759C99.8911 50.6082 101.995 50.5985 103.397 49.6116C104.132 49.0945 104.219 48.6896 104.474 48.6538L104.473 48.6536ZM101.543 40.5969C99.837 40.934 99.1977 42.5563 99.3349 44.5691C99.4611 46.4268 100.256 48.1056 102.345 47.7343C104.712 47.3139 105.226 43.432 103.72 41.4187C103.371 40.951 102.486 40.4106 101.543 40.5969Z" fill="black"/>
<path fill-rule="evenodd" clip-rule="evenodd" d="M142.985 55.0162L143.009 55.2413C146.796 55.2448 146.21 55.5258 146.21 53.9389L146.213 49.4649C146.455 49.5731 146.782 49.8398 146.977 50.0028C147.954 50.8139 148.577 50.9083 150.021 50.906C151.684 50.9024 152.924 49.8317 153.545 48.9956C154.921 47.142 155.064 43.3408 153.982 41.1518C153.573 40.3223 152.634 39.3783 151.922 38.9521C151.046 38.4276 149.55 38.1851 148.411 38.5233C146.91 38.9693 146.24 40.1371 145.937 40.2743L145.933 38.3763H142.982L142.985 55.0162ZM148.419 40.9805C146.337 41.3424 146.19 43.4744 146.21 45.113C146.233 47.005 147.165 48.7353 149.228 48.3751C150.976 48.07 151.53 46.2058 151.37 44.2602C151.3 43.4138 151.127 42.4062 150.661 41.8552C150.238 41.3553 149.473 40.7978 148.419 40.9805Z" fill="black"/>
<path fill-rule="evenodd" clip-rule="evenodd" d="M96.5496 34.215L99.5867 34.2282L99.5932 32.7001C99.8971 32.8548 100.036 33.2588 100.679 33.684C101.093 33.9582 101.545 34.2104 102.104 34.3616C103.338 34.6943 104.519 34.5047 105.5 33.9582C107.216 33.0027 108.206 31.1831 108.318 28.4869C108.432 25.7338 107.465 23.7065 105.829 22.6842C104.91 22.1095 103.741 21.805 102.468 22.0514C101.9 22.1614 101.404 22.3678 100.978 22.6117C100.754 22.7395 100.54 22.8909 100.366 23.0273C100.136 23.2071 100.015 23.3242 99.7751 23.5064C99.7712 22.7736 99.8233 18.0254 99.7434 17.7407L96.5703 17.7383L96.5496 34.215ZM101.838 24.5225C100.151 24.8751 99.6133 26.8349 99.7898 28.7926C99.9542 30.6157 100.886 32.1985 102.943 31.9083C103.702 31.8013 104.382 31.0805 104.636 30.4776C105.16 29.235 105.173 26.4331 104.171 25.2667C103.714 24.7358 102.883 24.3044 101.838 24.5225Z" fill="black"/>
<path fill-rule="evenodd" clip-rule="evenodd" d="M151.461 23.5197C151.225 23.386 151.085 23.2071 150.898 23.0419C149.38 21.6933 147.11 21.6788 145.458 22.6938C144.606 23.2178 144.006 23.8385 143.556 24.8982C143.116 25.9348 142.912 27.222 142.958 28.4864C143.145 33.7052 147.263 35.8973 150.532 33.6679C150.757 33.5146 150.895 33.3994 151.101 33.2111C151.218 33.1027 151.52 32.7742 151.643 32.7062L151.648 34.2306L154.679 34.2292L154.686 17.7555L151.461 17.7393V23.5197ZM148.346 24.5252C146.659 24.8995 146.128 26.796 146.298 28.7617C146.463 30.663 147.251 32.2898 149.435 31.9003C152.417 31.3687 152.258 23.6577 148.346 24.5252Z" fill="black"/>
<path fill-rule="evenodd" clip-rule="evenodd" d="M89.5476 54.5541L89.5886 54.9196L89.9649 54.969L92.4297 54.9601C92.8369 54.9601 92.8641 54.9758 92.8641 54.5542V17.7393H89.5476V54.5541Z" fill="black"/>
<path fill-rule="evenodd" clip-rule="evenodd" d="M122.126 38.1791C120.452 38.4758 119.234 39.46 118.562 40.5514C117.661 42.0152 117.428 43.4033 117.615 45.4259C117.784 47.2499 118.536 48.6055 119.537 49.4166C120.589 50.2707 122.405 50.8778 124.205 50.5574C125.869 50.261 126.977 49.1977 127.681 48.1285C128.553 46.8051 128.841 45.2437 128.639 43.3452C128.42 41.3007 127.694 40.3476 126.647 39.4352C126.154 39.0062 125.624 38.5688 124.825 38.3344C123.989 38.0883 123.006 38.0233 122.126 38.1791ZM122.772 40.7865C119.41 41.3757 119.88 48.4917 123.419 47.9769C124.307 47.8477 124.799 47.3905 125.214 46.6887C125.695 45.8734 125.672 45.085 125.666 44.0348C125.659 42.951 125.47 42.3338 124.939 41.6566C124.571 41.1892 123.739 40.617 122.772 40.7865Z" fill="black"/>
<path fill-rule="evenodd" clip-rule="evenodd" d="M117.754 25.4784L120.66 25.9306C120.66 25.9306 120.936 24.3369 123.229 24.48C124.316 24.5477 124.741 24.9079 124.823 25.8691C124.857 26.2746 124.83 26.4383 124.489 26.5654C121.563 27.6571 117.055 26.9339 117.494 31.5611C117.713 33.8804 120.243 34.8804 122.509 34.4356C124.056 34.1319 124.725 33.2242 125.128 33.0535C125.244 33.4355 125.364 33.8176 125.483 34.2296L128.684 34.2308C128.684 34.2308 128.35 33.4868 128.254 33.0017C127.48 29.3636 129.068 24.6876 126.796 22.8654C125.274 21.6452 120.748 21.5113 118.93 23.2164C118.42 23.6952 117.911 24.5069 117.754 25.4784ZM124.833 28.6202C124.334 28.6861 122.185 29.1852 121.735 29.3568C121.312 29.5179 120.824 29.8081 120.719 30.2404C120.578 30.8152 120.86 31.4603 121.122 31.7718C121.697 32.4591 123.08 32.3153 124 31.6715C124.909 31.0348 124.86 30.0219 124.833 28.6202Z" fill="black"/>
<path fill-rule="evenodd" clip-rule="evenodd" d="M167.102 30.908L163.963 30.3827C162.992 33.5086 159.252 32.0098 159.399 29.2542L166.912 29.2575C167.272 29.2527 167.316 29.2156 167.317 28.8497C167.325 27.3581 167.155 25.9232 166.426 24.6566C164.371 21.0884 159.625 21.3097 157.536 23.7872C155.227 26.5251 155.729 31.6308 158.282 33.5165C158.945 34.0057 159.678 34.3429 160.683 34.4622C162.612 34.6914 164.56 34.4196 165.888 33.06C166.217 32.7222 167.064 31.6424 167.102 30.908ZM159.497 27.222L164.058 27.2282C164.254 26.2849 163.531 24.512 161.775 24.465C160.433 24.4291 159.23 25.7615 159.497 27.222Z" fill="black"/>
<path fill-rule="evenodd" clip-rule="evenodd" d="M133.323 23.8839L133.31 22.2533C132.802 22.2533 130.347 22.2548 130.347 22.2548L130.351 34.2175L133.581 34.2296C133.651 32.9269 133.587 29.7861 133.587 28.2811C133.587 26.7833 133.754 24.6426 135.8 24.4684C136.759 24.3867 137.489 24.8082 137.775 25.4883C138.101 26.2664 138.01 27.3357 138.01 28.23C138.01 29.6666 137.945 33.0302 138.018 34.2243L141.322 34.2284C141.396 32.4299 141.327 30.4911 141.327 28.6914C141.327 27.054 141.42 25.0453 140.723 23.7203C139.55 21.4896 135.995 21.4892 133.999 23.1933C133.755 23.4015 133.554 23.7035 133.323 23.8839Z" fill="black"/>
<path fill-rule="evenodd" clip-rule="evenodd" d="M130.271 45.4204C130.271 47.5272 130.507 49.6375 132.766 50.4046C134.427 50.9689 136.599 50.4848 137.724 49.2909C137.89 49.115 137.953 48.9591 138.191 48.8233L138.195 50.3528L141.235 50.3401L141.234 38.3948L138.01 38.3825C138.034 40.4629 138.117 43.7824 137.906 45.7791C137.793 46.8542 137.49 47.6504 136.308 48.0314C135.142 48.4069 133.982 47.956 133.722 46.9839C133.388 45.7369 133.555 38.3889 133.555 38.3889L130.359 38.3682C130.359 38.3682 130.271 44.6015 130.271 45.4204Z" fill="black"/>
<path fill-rule="evenodd" clip-rule="evenodd" d="M171.805 28.0752L167.615 34.2292L171.369 34.2289L173.683 30.6772C173.805 30.8473 176.147 34.2295 176.147 34.2295L180 34.2291L175.79 28.1798L179.711 22.2544L175.89 22.2535L173.713 25.4787L171.579 22.2529H167.784L171.805 28.0752Z" fill="black"/>
<path fill-rule="evenodd" clip-rule="evenodd" d="M112.955 23.6694L112.954 22.255C112.954 22.255 110.842 22.2437 109.922 22.252V34.2298H113.122C113.198 33.2352 113.116 31.9775 113.12 30.9489C113.127 29.494 113.012 26.0819 114.089 25.2518C114.421 24.9961 114.749 24.8437 115.371 24.8757C115.994 24.9073 116.708 25.3627 116.708 25.3627C117.067 24.4731 117.719 22.6358 117.719 22.6358C117.313 22.1482 115.877 21.7989 114.958 22.066C114.475 22.2062 114.109 22.4688 113.809 22.714C113.497 22.9683 113.261 23.4504 112.955 23.6694Z" fill="black"/>
<path fill-rule="evenodd" clip-rule="evenodd" d="M112.953 39.7935C112.954 39.3576 112.914 38.3789 112.914 38.3789L109.91 38.3754V50.3525H113.135C113.127 48.1961 113.055 45.9687 113.23 43.8271C113.375 42.0667 113.69 41.0242 115.427 41.0479C116.129 41.0579 116.708 41.4852 116.708 41.4852C117.058 40.6163 117.717 38.7491 117.717 38.7491C117.173 38.2577 115.803 37.9651 114.948 38.1674C114.372 38.3038 114.121 38.5323 113.832 38.8509C113.69 39.0083 113.094 39.717 112.953 39.7935Z" fill="black"/>
<path fill-rule="evenodd" clip-rule="evenodd" d="M157.608 47.0863C156.72 47.2117 155.88 48.0132 155.986 49.0526C156.077 49.9474 156.951 50.7589 157.967 50.6829C160.323 50.5061 159.96 46.7534 157.608 47.0863Z" fill="black"/>
</svg>
