<svg width="270" height="72" viewBox="0 0 270 72" fill="none" xmlns="http://www.w3.org/2000/svg">
<path d="M126.885 54.2713C125.401 54.2843 123.918 54.3025 122.434 54.3258C121.885 54.334 121.295 54.3083 120.663 54.2487C120.607 54.2435 120.563 54.1973 120.56 54.1397C120.532 53.5695 120.523 52.9966 120.533 52.4209C120.547 51.5608 120.553 50.9882 120.549 50.7031C120.526 48.6423 120.53 46.5814 120.561 44.5206C120.565 44.2533 120.591 44.0529 120.638 43.9192C120.648 43.8905 120.676 43.8689 120.708 43.8648C120.926 43.8367 121.145 43.8257 121.364 43.8319C121.674 43.8394 121.892 43.8384 122.017 43.8288C122.283 43.8082 122.538 43.7842 122.781 43.7568C122.874 43.7465 122.955 43.8195 122.955 43.9131L122.967 52.3715C122.968 52.4044 122.996 52.4291 123.028 52.426C123.132 52.4144 123.224 52.4147 123.304 52.4271C123.463 52.4517 123.552 52.4641 123.571 52.4641C125.04 52.4894 126.509 52.5059 127.978 52.5134C128.239 52.5148 128.395 52.5131 128.447 52.5083C128.569 52.4973 128.675 52.523 128.765 52.5854C128.839 52.6375 128.883 52.7248 128.897 52.8475C128.949 53.3108 128.926 53.772 128.829 54.2312C128.823 54.26 128.797 54.2816 128.768 54.2826C128.454 54.2997 128.139 54.3032 127.825 54.2929C127.345 54.2771 127.032 54.2699 126.885 54.2713ZM122.918 44.4445C122.918 44.4302 122.906 44.4178 122.891 44.4178H122.869C122.854 44.4178 122.842 44.4302 122.842 44.4446L122.848 47.8247C122.848 47.839 122.86 47.8514 122.875 47.8514H122.897C122.912 47.8514 122.924 47.839 122.924 47.8246L122.918 44.4445Z" fill="black"/>
<path d="M85.9834 44.0016C85.9814 43.9927 85.9773 43.9858 85.9711 43.981C85.9628 43.9759 85.9515 43.9831 85.9494 43.9944C85.8821 44.3063 85.8821 44.6171 85.9494 44.9269L85.9237 45.0297C85.7884 45.1936 85.7125 45.3807 85.696 45.5911C83.9185 45.5884 82.1414 45.6038 80.3646 45.6374C80.1036 45.6422 79.864 45.6007 79.6455 45.513C79.558 45.478 79.4632 45.5418 79.4632 45.6363L79.456 48.5573C79.456 48.5933 79.4848 48.6221 79.5209 48.6221C80.7008 48.6125 81.8883 48.6063 83.0834 48.6036C83.1466 48.6029 83.308 48.5929 83.5676 48.5737C83.7448 48.5607 83.9076 48.5672 84.0559 48.5933C84.1919 48.6173 84.2451 48.6968 84.2156 48.8318C84.1545 49.1149 84.1342 49.3898 84.1548 49.6564C84.1679 49.8216 84.1521 49.983 84.1074 50.1406C84.0992 50.1705 84.0734 50.192 84.0415 50.1962C83.8595 50.216 83.6212 50.2246 83.3265 50.2219C82.5669 50.2143 81.365 50.2315 79.7208 50.2733C79.5278 50.2781 79.4385 50.3665 79.4529 50.5385C79.4605 50.6263 79.4642 50.6722 79.4642 50.6763C79.478 51.8594 79.4673 53.0421 79.4323 54.2244C79.4313 54.2542 79.4086 54.2779 79.3787 54.2789L77.1833 54.3272C77.0958 54.3293 77.0247 54.2594 77.0236 54.171C77.0127 50.7733 77.0123 47.4747 77.0226 44.2751C77.0226 44.2696 77.0157 44.186 77.002 44.0242C76.9855 43.8296 77.0703 43.7408 77.2565 43.7579C77.4577 43.7771 77.5607 43.7867 77.5655 43.7867C78.2118 43.7751 79.0161 43.7867 79.9783 43.8217C81.5058 43.8772 83.1733 43.8707 84.981 43.8021C84.9865 43.8015 85.0851 43.7946 85.2767 43.7816C85.5295 43.7644 85.7551 43.7864 85.9536 43.8474C86.0264 43.87 86.0363 43.9214 85.9834 44.0016Z" fill="black"/>
<path d="M104.436 53.1634C104.426 52.9686 104.372 52.7483 104.275 52.5025C104.051 51.9387 103.857 51.4953 103.694 51.1724C103.291 50.3807 102.903 49.5818 102.529 48.7756C102.436 48.5773 102.203 48.1288 101.83 47.4301C101.776 47.3268 101.706 47.2772 101.621 47.2814L101.432 46.9199C101.42 46.8277 101.371 46.7846 101.285 46.7908C101.282 46.6449 101.218 46.5846 101.096 46.6101C101.058 46.6115 101.034 46.6459 101.022 46.7134C100.996 46.8676 100.979 47.0111 100.973 47.144C100.969 47.206 100.982 47.2669 101.011 47.3227C101.138 47.5684 101.193 47.7612 101.177 47.901C101.169 47.9698 101.178 48.1595 101.204 48.47C101.221 48.6703 101.229 48.8596 101.228 49.0379C101.219 50.7349 101.211 52.4495 101.203 54.1816C101.202 54.2446 101.151 54.2952 101.086 54.2963L98.9705 54.3272C98.8774 54.3293 98.8009 54.257 98.7998 54.1661C98.7536 50.7033 98.7529 47.2937 98.7978 43.9376C98.7988 43.8653 98.8557 43.8064 98.9281 43.8033C99.593 43.7765 100.257 43.7768 100.919 43.8044C101.27 43.8188 101.595 43.8195 101.893 43.8064C101.981 43.8023 102.065 43.8457 102.113 43.92C102.317 44.2388 102.501 44.5472 102.664 44.8453C102.668 44.8529 102.723 44.9362 102.828 45.0952C102.877 45.1702 102.915 45.2515 102.94 45.3389C102.968 45.4332 103.004 45.512 103.047 45.5754C103.146 45.7193 103.249 45.8986 103.356 46.1134C103.532 46.4652 104.006 47.386 104.779 48.8758C104.888 49.0851 104.972 49.2568 105.032 49.3911C105.089 49.5171 105.171 49.6716 105.279 49.8548C105.367 50.0048 105.436 50.1697 105.486 50.3494C105.533 50.5201 105.597 50.5267 105.678 50.369C105.859 50.0207 106.019 49.6751 106.157 49.3322C106.278 49.0279 106.405 48.7495 106.538 48.4968C106.654 48.2737 106.792 47.9997 106.952 47.6748C107.206 47.1578 107.67 46.2948 108.344 45.0859C108.366 45.046 108.431 44.9541 108.538 44.8102C108.606 44.7186 108.658 44.6178 108.695 44.5076C108.746 44.3548 108.788 44.2515 108.82 44.1978C108.891 44.0801 108.957 43.9892 109.019 43.9252C109.14 43.7999 109.287 43.7441 109.461 43.7579C110.285 43.8254 111.104 43.8257 111.918 43.7589C112.068 43.7472 112.14 43.8161 112.134 43.9655C112.098 44.9561 112.082 45.984 112.084 47.049C112.091 49.1749 112.093 51.3008 112.093 53.4268C112.093 53.4288 112.103 53.5479 112.123 53.7841C112.135 53.9362 112.114 54.0849 112.06 54.2302C112.049 54.2601 112.021 54.2797 111.989 54.2797L110.085 54.2859C110.006 54.287 109.943 54.2209 109.942 54.1393C109.918 51.7938 109.911 49.5078 109.921 47.2814C109.922 47.0445 109.888 46.8215 109.818 46.6122C109.769 46.4676 109.717 46.4662 109.662 46.6081C109.611 46.7409 109.559 46.8735 109.507 47.0056C109.462 47.1185 109.401 47.2462 109.323 47.3887C109.219 47.5801 109.066 47.8734 108.866 48.2686C108.074 49.83 107.288 51.3945 106.508 52.9621C106.392 53.1941 106.201 53.3046 105.936 53.2935C105.566 53.2784 105.196 53.2725 104.824 53.276C104.683 53.2781 104.554 53.2405 104.436 53.1634Z" fill="black"/>
<path d="M117.704 45.469C117.658 45.0692 117.649 44.8015 117.678 44.6662C117.729 44.4195 117.66 44.2447 117.469 44.1416C117.44 44.1261 117.418 44.1004 117.407 44.0695C117.351 43.9272 117.232 43.8685 117.048 43.8932C116.76 43.9324 116.375 43.9348 115.892 43.9004C115.784 43.8929 115.637 43.9228 115.452 43.9901C115.401 44.0087 115.369 44.0561 115.368 44.1086C115.326 47.3915 115.326 50.6867 115.368 53.9943C115.369 54.0345 115.398 54.0675 115.439 54.0727C116.062 54.1544 116.692 54.1702 117.33 54.1201C117.365 54.117 117.396 54.1005 117.415 54.0747C117.534 53.9174 117.585 53.7357 117.567 53.5295C117.551 53.3413 117.558 53.1561 117.588 52.974C117.63 52.7281 117.65 52.5463 117.648 52.4288C117.627 50.1271 117.628 48.1064 117.651 46.3667C117.652 46.3234 117.677 46.2977 117.726 46.2894C117.731 48.5479 117.732 50.8066 117.73 53.0658C117.729 53.5687 117.716 53.9572 117.689 54.2314C117.686 54.2623 117.662 54.285 117.632 54.286L115.367 54.3283C115.31 54.3293 115.263 54.2829 115.263 54.2262L115.244 43.886C115.244 43.8221 115.299 43.7716 115.364 43.7757C116.051 43.8211 116.792 43.8149 117.587 43.7572C117.661 43.752 117.724 43.8067 117.723 43.8757L117.704 45.469Z" fill="black" fill-opacity="0.992"/>
<path d="M128.901 46.6111C128.068 45.7398 127.283 44.8889 126.547 44.0582C126.364 43.8507 126.409 43.75 126.685 43.7562C127.465 43.7734 128.245 43.7799 129.024 43.7758C129.253 43.7744 129.434 43.8404 129.568 43.9737C129.938 44.3413 130.281 44.7343 130.596 45.1527C131.159 45.9003 131.764 46.6121 132.411 47.2882C132.414 47.2909 132.443 47.3263 132.499 47.3943C132.551 47.4596 132.621 47.5091 132.709 47.5427C132.773 47.5675 132.811 47.6334 132.801 47.7025C132.791 47.7808 132.805 47.8265 132.842 47.8396C132.867 47.8478 132.899 47.8303 132.922 47.7983C133.47 47.0268 134.06 46.2888 134.691 45.5845C134.912 45.3386 135.124 45.0771 135.328 44.8002C135.521 44.5371 135.725 44.2698 135.942 43.9984C136.029 43.8905 136.137 43.8345 136.265 43.8304L138.702 43.7562C138.889 43.75 138.923 43.8229 138.806 43.9747C137.979 45.0335 137.127 46.072 136.251 47.0903C136.235 47.1095 135.965 47.4359 135.441 48.0694C135.17 48.3965 134.886 48.7111 134.587 49.0135C134.402 49.2003 134.243 49.4058 134.111 49.6298C134.018 49.7885 133.966 49.973 133.954 50.1832C133.939 50.4773 133.936 50.7721 133.946 51.0675C133.982 52.0803 133.983 53.0927 133.947 54.1048C133.944 54.1975 133.921 54.2604 133.879 54.2934C133.834 54.3277 133.779 54.336 133.713 54.3181C133.643 54.2989 133.592 54.29 133.558 54.2913C132.963 54.3174 132.329 54.3267 131.656 54.3192C131.596 54.3181 131.548 54.2717 131.546 54.212C131.522 53.3524 131.516 52.4846 131.527 51.6086C131.535 50.9813 131.534 50.354 131.523 49.7267C131.522 49.6937 131.51 49.6628 131.487 49.6391C130.947 49.0502 130.429 48.4418 129.935 47.8138C129.577 47.3596 129.233 46.9587 128.901 46.6111Z" fill="black"/>
<path d="M147.19 50.8024C147.211 50.9131 147.223 51.0574 147.223 51.2353C147.227 52.4927 147.218 53.4866 147.194 54.217C147.193 54.25 147.171 54.2778 147.141 54.284C147.083 54.2977 147.024 54.2977 146.965 54.284C146.894 54.2675 146.838 54.261 146.797 54.2644C146.219 54.3146 145.61 54.3352 144.969 54.3263C144.887 54.3252 144.816 54.2665 144.8 54.1851C144.784 54.1122 144.778 54.0281 144.783 53.9325C144.79 53.7786 144.793 53.6941 144.793 53.679C144.786 50.4242 144.784 47.1426 144.787 43.8342C144.787 43.7909 144.822 43.7558 144.865 43.7569C146.944 43.7713 149.032 43.7888 151.13 43.8094C151.455 43.8129 151.77 43.8458 152.076 43.9084C152.285 43.9503 152.493 43.9932 152.7 44.0372C152.938 44.0881 153.136 44.1616 153.292 44.2578C153.618 44.4591 153.897 44.7154 154.127 45.0266C154.173 45.0899 154.233 45.2197 154.306 45.4162C154.341 45.509 154.387 45.5959 154.446 45.677C154.513 45.7718 154.555 45.8577 154.574 45.9346C154.729 46.5895 154.769 47.2429 154.695 47.895C154.611 48.6254 154.384 49.2145 154.013 49.6625C153.584 50.1806 153.005 50.5159 152.275 50.6685C151.904 50.7461 151.177 50.7674 150.095 50.7324C149.14 50.7021 148.185 50.708 147.23 50.7499C147.203 50.7509 147.184 50.7756 147.19 50.8024ZM147.219 49.0452C148.642 49.0493 149.804 49.0644 150.705 49.0905C150.985 49.0981 151.245 49.0579 151.483 48.9699C151.609 48.9232 151.713 48.8342 151.795 48.703C151.983 48.4007 152.092 48.1798 152.121 48.0403C152.267 47.3456 152.18 46.6881 151.861 46.0676C151.748 45.8491 151.587 45.7079 151.378 45.644C150.98 45.5231 150.536 45.4715 150.044 45.4894C149.533 45.508 148.585 45.5007 147.198 45.4678C147.159 45.4643 147.131 45.4729 147.114 45.4935C147.1 45.511 147.1 45.5482 147.116 45.5873C147.14 45.6519 147.148 45.7168 147.141 45.7821C147.128 45.9085 147.121 45.9728 147.121 45.9728C147.121 46.9656 147.124 47.9589 147.127 48.9524C147.127 48.9785 147.13 49.0022 147.135 49.0235C147.158 49.1197 147.186 49.1269 147.219 49.0452ZM146.914 48.536C146.917 48.6308 146.899 48.7212 146.858 48.8071C146.795 48.9397 146.807 49.0342 146.896 49.0905C146.989 49.1489 147.016 49.1201 146.975 49.0039C146.949 48.9304 146.958 48.8679 147.001 48.8164C147.024 48.7875 147.037 48.7566 147.037 48.7298L147.012 46.8354C147.011 46.8011 147 46.7966 146.977 46.822L146.847 46.9705C146.825 46.9952 146.813 47.0271 146.812 47.0612C146.806 47.492 146.812 47.9224 146.831 48.3526C146.832 48.378 146.828 48.4051 146.819 48.434C146.795 48.5178 146.81 48.5446 146.865 48.5144C146.887 48.502 146.913 48.5144 146.914 48.536Z" fill="black"/>
<path d="M175.883 49.7C175.92 49.8671 176.008 49.9939 176.147 50.0806C176.416 50.2476 176.66 50.4277 176.88 50.6209C177.054 50.7742 177.254 51.0018 177.478 51.3036C178.308 52.418 178.865 53.1255 179.149 53.4259C179.358 53.6466 179.508 53.881 179.598 54.1292C179.625 54.2045 179.571 54.2849 179.492 54.2829L177.084 54.2313C176.981 54.2292 176.887 54.1918 176.804 54.1189C176.657 53.9903 176.533 53.8326 176.433 53.6456C176.317 53.4256 176.218 53.2674 176.138 53.1712C175.654 52.5909 175.177 52.0055 174.706 51.415C174.503 51.1606 174.172 50.8732 173.711 50.5529C173.707 50.5501 173.647 50.5003 173.532 50.4033C173.418 50.3085 173.282 50.2655 173.125 50.2744C172.992 50.282 172.924 50.2858 172.92 50.2858C172.422 50.2803 171.923 50.2806 171.423 50.2868C171.394 50.2878 171.37 50.3105 171.369 50.3404C171.355 50.711 171.358 51.0626 171.376 51.3954C171.423 52.2025 171.435 53.0103 171.415 53.8188C171.412 53.9522 171.396 54.0677 171.368 54.1653C171.348 54.2344 171.283 54.2829 171.208 54.2839L169.22 54.3282C169.135 54.3303 169.064 54.2633 169.063 54.1808C169.024 50.7254 169.024 47.2904 169.062 43.8756C169.063 43.8075 169.119 43.7539 169.186 43.757C171.295 43.8498 173.353 43.8694 175.36 43.8158C175.666 43.8075 176.125 43.8687 176.737 43.9993C177.1 44.0763 177.397 44.1908 177.629 44.3427C178.445 44.8769 178.865 45.6637 178.889 46.7032C178.912 47.7379 178.522 48.5512 177.718 49.1432C177.528 49.2827 177.316 49.3786 177.08 49.4309C176.834 49.4852 176.599 49.5127 176.375 49.5134C176.199 49.5141 176.046 49.5501 175.918 49.6216C175.891 49.6371 175.876 49.6691 175.883 49.7ZM171.378 45.8782C171.385 45.9367 171.358 45.9906 171.296 46.0401C171.266 46.0639 171.248 46.102 171.248 46.1412C171.245 46.4485 171.26 46.7424 171.294 47.0229C171.329 47.3055 171.343 47.5409 171.336 47.7293C171.328 47.9651 171.319 48.2013 171.308 48.4378C171.302 48.5712 171.358 48.6361 171.475 48.6327C172.608 48.6093 173.741 48.6018 174.874 48.61C174.878 48.61 174.947 48.6141 175.084 48.6224C175.273 48.6341 175.437 48.5897 175.574 48.4893C175.671 48.4192 175.802 48.28 175.967 48.0717C176.239 47.7293 176.355 47.3251 176.318 46.859C176.309 46.7455 176.259 46.6658 176.169 46.6197C176.139 46.6053 176.118 46.5785 176.113 46.5496C176.09 46.4018 176.059 46.255 176.022 46.1092C175.971 45.9099 175.85 45.7748 175.658 45.704C175.251 45.5534 174.83 45.4792 174.395 45.4812C173.476 45.4847 172.558 45.4898 171.64 45.4967C171.524 45.4981 171.445 45.5249 171.402 45.5771C171.342 45.6514 171.333 45.7517 171.378 45.8782Z" fill="black"/>
<path d="M183.5 43.7559H181.618C181.537 43.7559 181.471 43.8248 181.471 43.9097V54.1736C181.471 54.2585 181.537 54.3274 181.618 54.3274H183.5C183.581 54.3274 183.647 54.2585 183.647 54.1736V43.9097C183.647 43.8248 183.581 43.7559 183.5 43.7559Z" fill="black"/>
<path d="M93.8264 51.6915C93.803 51.6397 93.752 51.6066 93.696 51.6076C92.1583 51.6111 90.6623 51.6035 89.2081 51.5848C88.912 51.5813 88.7368 51.5865 88.6824 51.6003C88.4916 51.6508 88.3533 51.7841 88.2678 52.0004C88.206 52.1559 88.1513 52.3618 88.1037 52.6181C88.0684 52.8074 87.9856 52.9909 87.8551 53.1684C87.8015 53.2424 87.7546 53.4227 87.7146 53.7094C87.6643 54.0653 87.5003 54.2708 87.2225 54.3261C87.2164 54.3275 86.9881 54.3282 86.5378 54.3282C86.114 54.3282 85.6715 54.3282 85.2103 54.3282C85.084 54.3282 85.0524 54.2726 85.1156 54.1613C85.1482 54.1047 85.1818 54.0041 85.2164 53.8597C85.2721 53.6234 85.3472 53.394 85.4416 53.1715C85.5897 52.8219 85.6644 52.645 85.6657 52.6409C86.0685 51.5969 86.4896 50.5612 86.9291 49.5337C87.3243 48.6086 87.721 47.6841 88.119 46.7603C88.208 46.5544 88.3676 46.221 88.5979 45.7601C88.7629 45.4285 88.9137 45.0903 89.0502 44.7455C89.0801 44.6695 89.1446 44.5396 89.2438 44.3558C89.3199 44.2155 89.3688 44.0763 89.3905 43.9381C89.4095 43.8165 89.4795 43.7561 89.6004 43.7568C90.6029 43.7609 91.5874 43.7692 92.5539 43.7816C92.5593 43.7816 92.632 43.7778 92.7719 43.7702C92.9648 43.7599 93.121 43.8203 93.2406 43.9516C93.3119 44.0304 93.373 44.1748 93.424 44.3848C93.4742 44.5921 93.5299 44.7984 93.5911 45.0036C93.5999 45.034 93.6169 45.0619 93.642 45.0875C93.7262 45.176 93.7839 45.2782 93.8152 45.3943C93.8702 45.6002 93.9004 45.71 93.9059 45.7239C94.0682 46.1246 94.219 46.5299 94.3582 46.9396C94.399 47.0605 94.4659 47.2173 94.5589 47.4101C94.6336 47.5649 94.6965 47.7245 94.7474 47.8889C94.7793 47.9905 94.8337 48.1121 94.9104 48.2538C94.9532 48.3332 94.9885 48.4165 95.0164 48.5035C95.053 48.6217 95.0829 48.7063 95.106 48.7575C95.3655 49.3337 95.6141 49.9148 95.8518 50.5007C95.9041 50.6292 95.9944 50.8272 96.1228 51.0946C96.2172 51.2922 96.3014 51.4943 96.3755 51.7009C96.3965 51.7589 96.4434 51.8646 96.5161 52.018C96.5548 52.0982 96.6013 52.2053 96.6556 52.3393C96.9035 52.9515 97.18 53.5409 97.4849 54.1074C97.559 54.2442 97.5189 54.3116 97.3647 54.3095C96.8254 54.3019 96.3072 54.2992 95.81 54.3012C95.8026 54.3012 95.7255 54.3054 95.5788 54.3137C95.2962 54.3296 95.0714 54.2411 94.9043 54.0484C94.8432 53.9779 94.7688 53.8065 94.6812 53.5343C94.6343 53.3885 94.5728 53.2486 94.4968 53.1145C94.3881 52.9225 94.3175 52.7891 94.2849 52.7145C94.1293 52.36 93.9765 52.0191 93.8264 51.6915ZM92.99 49.8975C93.0239 49.9258 93.0507 49.9258 93.0704 49.8975C93.1655 49.7586 93.1781 49.6122 93.1081 49.4581C93.0735 49.3835 93.0548 49.3423 93.0521 49.3347C92.8286 48.7502 92.6045 48.1657 92.3797 47.5811C92.3776 47.5763 92.2707 47.2837 92.0588 46.7033C91.8985 46.2645 91.7243 45.8631 91.5361 45.499C91.4655 45.3629 91.3487 45.3103 91.1856 45.3414C91.1211 45.3324 91.0766 45.3463 91.0522 45.3829C90.9157 45.5846 90.7768 45.8572 90.6355 46.2006C90.1526 47.3738 89.6618 48.507 89.1633 49.6001C89.073 49.7984 89.1351 49.8975 89.3497 49.8975H92.99Z" fill="black"/>
<path d="M185.805 50.4513C185.627 50.2752 185.163 49.8749 184.414 49.2504C184.412 49.2484 184.358 49.1966 184.253 49.0951C184.179 49.0238 184.096 48.9721 184.001 48.9398C183.948 48.9217 183.944 48.8954 183.988 48.8612C185.46 47.7163 186.771 46.4273 187.921 44.9941C188.224 44.6163 188.501 44.3262 188.75 44.1239C188.777 44.1027 188.81 44.0906 188.842 44.0906L191.482 44.0674C191.608 44.0661 191.627 44.1104 191.54 44.2005C191.11 44.6435 190.694 45.0986 190.292 45.5658C189.357 46.6528 188.263 47.6525 187.011 48.5647C186.933 48.6212 186.904 48.719 186.938 48.8067C186.982 48.9237 187.072 49.0262 187.206 49.1143C187.316 49.1855 187.372 49.2225 187.376 49.2252C187.845 49.5707 188.282 49.9522 188.685 50.3697C189.308 51.015 189.905 51.6822 190.477 52.3713C190.972 52.9689 191.473 53.5621 191.978 54.151C192.084 54.2747 192.058 54.3335 191.899 54.3275C191.097 54.2959 190.295 54.2774 189.493 54.272C189.319 54.2707 189.181 54.2307 189.079 54.152C188.953 54.0539 188.828 53.9211 188.705 53.7537C187.929 52.701 186.962 51.6002 185.805 50.4513Z" fill="black"/>
<path d="M163.897 51.6396C162.437 51.6624 160.977 51.6617 159.517 51.6376C159.336 51.6342 159.164 51.6403 159 51.6557C158.828 51.6718 158.657 51.6895 158.486 51.709C158.455 51.712 158.428 51.7331 158.419 51.7623C158.361 51.9593 158.313 52.159 158.274 52.3614C158.24 52.5377 158.157 52.6858 158.025 52.8058C158 52.8289 157.983 52.8581 157.978 52.8882C157.892 53.3849 157.712 53.8463 157.437 54.2726C157.421 54.2977 157.391 54.3128 157.357 54.3138L155.195 54.3279C155.103 54.3289 155.031 54.2525 155.043 54.168C155.07 53.9757 155.125 53.8078 155.207 53.6644C155.331 53.4486 155.404 53.3118 155.425 53.2542C155.553 52.909 155.689 52.5675 155.834 52.2297C156.125 51.5568 156.27 51.2184 156.27 51.2184C156.685 50.2264 157.025 49.4449 157.292 48.8739C157.68 48.0435 157.956 47.4457 158.118 47.0804C158.387 46.4732 158.671 45.8726 158.969 45.2788C158.972 45.2741 159.055 45.0868 159.219 44.7168C159.305 44.5211 159.414 44.3301 159.545 44.1438C159.579 44.0955 159.635 44.0674 159.695 44.0674C160.705 44.0674 161.674 44.0808 162.602 44.1076C162.672 44.1096 162.757 44.1032 162.856 44.0885C162.95 44.0744 163.035 44.0687 163.111 44.0714C163.205 44.0744 163.287 44.1297 163.323 44.2122C163.685 45.0419 164.031 45.8609 164.362 46.6692C164.69 47.4701 164.95 48.0911 165.142 48.5321C165.525 49.4155 165.912 50.2968 166.302 51.1761C166.305 51.1815 166.381 51.3256 166.531 51.6084C166.614 51.7639 166.672 51.9291 166.704 52.1041C166.71 52.1376 166.724 52.1674 166.745 52.1936C166.932 52.4301 167.058 52.6955 167.124 52.9898C167.149 53.1004 167.209 53.1862 167.304 53.2471C167.334 53.2662 167.356 53.2914 167.368 53.3195C167.476 53.591 167.604 53.8544 167.75 54.1097C167.84 54.2666 167.779 54.3279 167.568 54.2937C167.447 54.2736 167.325 54.2672 167.203 54.2746C166.587 54.3121 165.934 54.3098 165.246 54.2676C165.198 54.2656 165.156 54.2374 165.138 54.1972L163.969 51.6848C163.955 51.6567 163.927 51.6386 163.897 51.6396ZM163.231 49.7134C163.098 49.58 163.007 49.4396 162.957 49.2921C162.882 49.0723 162.844 48.9607 162.843 48.9574C162.697 48.6343 162.525 48.2087 162.327 47.6806C162.186 47.3059 161.95 46.7557 161.62 46.0298C161.616 46.0224 161.598 45.9742 161.565 45.885C161.507 45.7322 161.41 45.6719 161.274 45.7041C161.183 45.7255 161.097 45.7905 161.017 45.8991C160.917 46.0338 160.835 46.1776 160.772 46.3304C160.657 46.6085 160.593 46.7594 160.582 46.7828C160.074 47.8083 159.6 48.8501 159.159 49.9084C159.142 49.9516 159.174 49.9979 159.222 49.9979L163.12 49.9738C163.365 49.9724 163.402 49.8856 163.231 49.7134Z" fill="black"/>
<path d="M117.708 45.6486L117.731 46.469C117.68 46.4772 117.654 46.503 117.653 46.5463C117.629 48.2859 117.628 50.3065 117.65 52.6081C117.652 52.7256 117.631 52.9073 117.588 53.1533C117.556 53.3354 117.549 53.5205 117.566 53.7088C117.584 53.9149 117.531 54.0966 117.408 54.2539C117.388 54.2797 117.355 54.2962 117.319 54.2993C116.655 54.3494 115.999 54.3336 115.351 54.2519C115.308 54.2467 115.278 54.2138 115.276 54.1736C115.233 50.8661 115.233 47.571 115.276 44.2883C115.278 44.2357 115.311 44.1883 115.364 44.1698C115.557 44.1024 115.71 44.0725 115.822 44.0801C116.325 44.1144 116.726 44.112 117.025 44.0729C117.217 44.0481 117.341 44.1069 117.399 44.2491C117.411 44.28 117.434 44.3058 117.463 44.3212C117.662 44.4243 117.735 44.5992 117.681 44.8458C117.651 44.9812 117.66 45.2488 117.708 45.6486Z" fill="black"/>
<path d="M122.966 44.5088H122.943C122.928 44.5089 122.917 44.5208 122.917 44.5355L122.922 47.9068C122.922 47.9215 122.934 47.9334 122.949 47.9334H122.972C122.986 47.9333 122.998 47.9214 122.998 47.9067L122.992 44.5354C122.992 44.5207 122.98 44.5088 122.966 44.5088Z" fill="black" fill-opacity="0.992"/>
<path d="M85.9984 45C86.0373 45.2147 86.0143 45.3989 85.9296 45.5525C85.8934 45.6173 85.8188 45.6367 85.7058 45.6106C85.727 45.3817 85.8245 45.1782 85.9984 45Z" fill="black" fill-opacity="0.992"/>
<path d="M91.3025 45.3204C91.4571 45.2887 91.5679 45.3421 91.6349 45.4806C91.8133 45.8509 91.9786 46.2591 92.1306 46.7053C92.3316 47.2956 92.433 47.5932 92.435 47.5981C92.6482 48.1925 92.8608 48.787 93.0727 49.3815C93.0753 49.3892 93.093 49.431 93.1259 49.5069C93.1922 49.6636 93.1803 49.8126 93.0901 49.9538C93.0714 49.9826 93.046 49.9826 93.0138 49.9538C93.1091 49.8435 93.121 49.718 93.0495 49.5775C92.9832 49.4475 92.9204 49.3154 92.8611 49.1812C92.8263 49.1018 92.7812 48.9623 92.7258 48.7628C92.6846 48.6152 92.6308 48.4736 92.5644 48.338C92.482 48.1715 92.4237 48.0334 92.3896 47.9238C92.2291 47.4094 91.9937 46.7443 91.6832 45.9285C91.5801 45.6594 91.4532 45.4567 91.3025 45.3204Z" fill="black" fill-opacity="0.992"/>
<path d="M147.211 45.6228L147.269 49.2953C147.181 49.3793 147.105 49.3718 147.042 49.2731C147.028 49.2512 147.02 49.2269 147.02 49.2001C147.011 48.1801 147.005 47.1605 147.004 46.1413C147.004 46.1413 147.022 46.0753 147.059 45.9455C147.077 45.8785 147.054 45.8119 146.99 45.7456C146.948 45.7054 146.948 45.6673 146.984 45.6493C147.03 45.6281 147.106 45.6193 147.211 45.6228Z" fill="black" fill-opacity="0.984"/>
<path d="M171.388 45.9326C171.426 46.4236 171.434 46.9146 171.413 47.4056C171.394 47.8504 171.43 48.2922 171.521 48.7308C171.361 48.7343 171.285 48.6683 171.294 48.5328C171.308 48.2925 171.32 48.0526 171.331 47.8131C171.34 47.6217 171.322 47.3825 171.274 47.0955C171.228 46.8105 171.207 46.5119 171.211 46.1997C171.211 46.1599 171.236 46.1212 171.277 46.0971C171.361 46.0468 171.398 45.992 171.388 45.9326Z" fill="black" fill-opacity="0.992"/>
<path d="M101.383 46.8667C101.488 46.862 101.548 46.8943 101.563 46.9636C101.456 46.9434 101.401 46.9628 101.399 47.0217C101.39 47.2279 101.341 47.229 101.252 47.0248C101.347 46.9907 101.391 46.938 101.383 46.8667Z" fill="black" fill-opacity="0.6"/>
<path d="M146.725 48.7018C146.65 48.7343 146.629 48.7055 146.662 48.6154C146.674 48.5844 146.68 48.5552 146.678 48.5279C146.653 48.0655 146.644 47.6028 146.653 47.1397C146.654 47.1031 146.671 47.0688 146.7 47.0422L146.877 46.8827C146.908 46.8553 146.924 46.8601 146.924 46.8971L146.958 48.9333C146.958 48.9622 146.941 48.9954 146.909 49.0264C146.851 49.0818 146.839 49.149 146.874 49.228C146.929 49.3529 146.893 49.3839 146.767 49.3211C146.646 49.2605 146.629 49.159 146.715 49.0164C146.77 48.9241 146.795 48.827 146.791 48.7251C146.789 48.7018 146.754 48.6885 146.725 48.7018Z" fill="black"/>
<path d="M101.563 47.4875C101.647 47.4836 101.717 47.5308 101.771 47.629C102.142 48.2938 102.373 48.7206 102.465 48.9092C102.837 49.6762 103.223 50.4364 103.623 51.1896C103.785 51.4968 103.978 51.9187 104.201 52.4551C104.298 52.689 104.351 52.8986 104.361 53.0839C104.235 53.0532 104.167 52.9808 104.156 52.8668C104.13 52.61 104.021 52.3215 103.828 52.0012C103.802 51.9586 103.749 51.8335 103.669 51.6259C103.621 51.5014 103.563 51.3793 103.495 51.2594C103.243 50.8133 103.015 50.3565 102.811 49.8888C102.783 49.8239 102.725 49.7345 102.638 49.6206C102.571 49.5328 102.521 49.4355 102.489 49.3288C102.428 49.1296 102.338 48.9436 102.221 48.7707C102.134 48.643 101.915 48.2152 101.563 47.4875Z" fill="black" fill-opacity="0.992"/>
<path d="M133.038 61.7963C133.105 61.7783 133.166 61.7354 133.222 61.6674C133.299 61.5754 133.346 61.5211 133.363 61.5044C133.676 61.2059 133.983 60.9033 134.284 60.5967C134.405 60.4747 134.534 60.3891 134.671 60.3398C134.853 60.2745 135.011 60.2398 135.147 60.2358C135.388 60.2285 135.427 60.3088 135.263 60.4767L134.008 61.7664C133.97 61.8063 133.97 61.8663 134.008 61.9093C134.562 62.5345 135.032 63.1393 135.417 63.7238C135.489 63.8357 135.456 63.8917 135.315 63.8917C135.003 63.8917 134.741 63.7974 134.529 63.6088C134.517 63.5981 134.354 63.4032 134.042 63.024C133.866 62.8107 133.687 62.5888 133.505 62.3582C133.486 62.3352 133.454 62.3282 133.432 62.3422L132.944 62.6691C132.92 62.6851 132.905 62.7161 132.902 62.7541C132.877 63.0933 132.858 63.4329 132.845 63.7728C132.838 63.948 132.738 64.0044 132.544 63.9417C132.51 63.9304 132.475 63.9254 132.439 63.9267C132.283 63.934 132.17 63.8887 132.099 63.7907C132.054 63.7301 132.032 63.6305 132.034 63.4918C132.043 62.4695 132.089 61.4488 132.17 60.4298C132.173 60.3968 132.192 60.3688 132.22 60.3528C132.387 60.2615 132.561 60.2388 132.742 60.2848C132.811 60.3028 132.856 60.3638 132.851 60.4298C132.814 60.8603 132.823 61.2835 132.878 61.6994C132.888 61.7704 132.964 61.8163 133.038 61.7963Z" fill="black"/>
<path d="M152.558 63.6028C152.385 63.4795 152.256 63.3166 152.171 63.1142C152.099 62.9439 152.036 62.7519 151.981 62.5381C151.927 62.3343 151.919 62.1288 151.955 61.9217C151.981 61.7669 152.035 61.5721 152.116 61.3375C152.324 60.7343 152.716 60.3797 153.293 60.2738C153.78 60.1846 154.213 60.2506 154.593 60.4718C155.022 60.7212 155.261 61.1512 155.309 61.7618C155.332 62.0467 155.346 62.2391 155.35 62.339C155.387 63.0937 155.06 63.5924 154.369 63.8351C153.704 64.0684 153.1 63.9909 152.558 63.6028ZM153.268 63.3786C153.438 63.4262 153.61 63.4403 153.785 63.4208C153.97 63.4001 154.126 63.3381 154.253 63.2348C154.444 63.0787 154.553 62.8638 154.58 62.5903C154.602 62.3551 154.607 62.1201 154.594 61.8855C154.578 61.6053 154.512 61.3855 154.397 61.2259C154.153 60.8874 153.782 60.7886 153.283 60.9293C153.115 60.9769 152.982 61.0848 152.883 61.2531C152.635 61.6734 152.579 62.1044 152.713 62.5461C152.724 62.583 152.75 62.6822 152.79 62.8437C152.816 62.9469 152.857 63.0421 152.914 63.1293C152.994 63.2513 153.112 63.3344 153.268 63.3786Z" fill="black"/>
<path d="M110.984 63.9155C110.902 63.8775 110.848 63.7922 110.844 63.6977C110.832 63.4005 110.819 63.096 110.806 62.7844C110.799 62.6064 110.758 62.4413 110.684 62.2893C110.461 61.8366 110.215 61.3983 109.946 60.9743C109.833 60.7949 109.735 60.6107 109.653 60.4217C109.636 60.3816 109.656 60.3343 109.696 60.322C110.002 60.2241 110.237 60.2782 110.399 60.4843C110.409 60.4973 110.506 60.6953 110.69 61.0781C110.816 61.3431 110.948 61.5935 111.084 61.829C111.117 61.8855 111.196 61.8825 111.23 61.8249L112.073 60.4052C112.143 60.2867 112.253 60.2302 112.402 60.2357C112.754 60.2501 112.844 60.3977 112.67 60.6785C112.364 61.175 112.063 61.6763 111.77 62.1824C111.671 62.353 111.607 62.5362 111.579 62.732C111.527 63.0957 111.486 63.4604 111.456 63.8261C111.453 63.86 111.437 63.8898 111.411 63.9052C111.277 63.9833 111.135 63.9867 110.984 63.9155Z" fill="black"/>
<path d="M129.1 61.5611C129.04 61.5071 129.011 61.5208 129.011 61.602L129.026 63.7966C129.027 63.8744 128.96 63.9369 128.878 63.9369C128.787 63.9369 128.698 63.9416 128.612 63.9512C128.398 63.9744 128.298 63.8898 128.313 63.6972C128.32 63.6119 128.323 63.5668 128.323 63.5621C128.332 62.8589 128.326 62.156 128.305 61.4536C128.296 61.1368 128.309 60.8371 128.342 60.5544C128.364 60.3694 128.471 60.2851 128.661 60.3015C128.817 60.3152 128.947 60.3681 129.051 60.4602C129.084 60.4896 129.167 60.5944 129.301 60.7746C129.588 61.1597 129.838 61.5662 130.052 61.9943C130.105 62.098 130.174 62.2018 130.262 62.3056C130.343 62.4032 130.419 62.5052 130.489 62.6117C130.643 62.8486 130.733 62.821 130.757 62.5288C130.798 62.0359 130.799 61.5433 130.761 61.0511C130.761 61.047 130.745 60.9624 130.715 60.7971C130.692 60.6715 130.71 60.5544 130.768 60.4459C130.824 60.3414 130.912 60.2752 131.03 60.2472C131.233 60.1981 131.339 60.3015 131.348 60.5575C131.366 61.0743 131.387 62.0898 131.412 63.604C131.416 63.871 131.285 63.9905 131.019 63.9625C130.851 63.9447 130.713 63.9027 130.605 63.8365C130.528 63.7901 130.44 63.6863 130.34 63.5252C129.872 62.7688 129.601 62.3086 129.527 62.1448C129.426 61.9236 129.284 61.729 129.1 61.5611Z" fill="black"/>
<path d="M146.956 63.6068C146.528 63.8237 146.24 63.9392 146.093 63.9532C145.311 64.0293 144.746 63.777 144.399 63.1963C144.22 62.8966 144.142 62.5045 144.163 62.0199C144.188 61.4819 144.375 61.0464 144.725 60.7134C145.07 60.385 145.486 60.2258 145.971 60.2358C146.476 60.2458 146.916 60.4521 147.293 60.8545C147.403 60.9713 147.463 61.0968 147.471 61.231C147.475 61.3011 147.423 61.3641 147.35 61.3752C147.123 61.4092 146.925 61.3571 146.755 61.219C146.389 60.9219 145.996 60.8175 145.576 60.9056C145.27 60.9703 145.071 61.1672 144.977 61.4963C144.823 62.0343 144.864 62.5759 145.101 63.1212C145.141 63.2123 145.22 63.2834 145.318 63.3135C145.71 63.4363 146.134 63.4386 146.59 63.3205C146.703 63.2918 146.778 63.216 146.816 63.0932L146.924 62.7448C146.944 62.6817 146.907 62.6166 146.845 62.6076L146.144 62.5075C146.105 62.5015 146.073 62.4875 146.053 62.4685C145.968 62.389 145.956 62.2993 146.017 62.1991C146.033 62.1721 146.066 62.1561 146.1 62.1561H147.499C147.526 62.1561 147.548 62.1791 147.549 62.2071L147.58 63.6989C147.581 63.781 147.52 63.8501 147.44 63.8581C147.283 63.8728 147.147 63.7957 147.029 63.6268C147.014 63.6028 146.981 63.5948 146.956 63.6068Z" fill="black"/>
<path d="M157.132 63.3359C157.491 63.4402 157.84 63.4385 158.18 63.3309C158.236 63.3138 158.278 63.2647 158.287 63.2035C158.349 62.821 158.379 62.4362 158.375 62.049C158.369 61.5134 158.387 60.9781 158.429 60.4432C158.434 60.382 158.473 60.3288 158.527 60.3088C158.699 60.2459 158.871 60.2456 159.042 60.3078C159.068 60.3178 159.085 60.3449 159.084 60.376C159.066 61.1175 159.062 61.8591 159.071 62.6007C159.074 62.9076 159.026 63.2031 158.925 63.4873C158.915 63.5184 158.895 63.5455 158.868 63.5635C158.132 64.0891 157.396 64.1005 156.66 63.5977C156.555 63.5254 156.476 63.4225 156.423 63.2887C156.389 63.2011 156.37 63.0744 156.369 62.9086C156.36 62.2118 156.334 61.5164 156.29 60.8223C156.277 60.605 156.294 60.4572 156.341 60.379C156.429 60.2319 156.598 60.1978 156.848 60.2767C156.915 60.2977 156.962 60.3619 156.964 60.4361C156.987 61.0848 157.002 61.7561 157.009 62.4502C157.013 62.7839 157.035 63.058 157.076 63.2727C157.082 63.3028 157.104 63.3268 157.132 63.3359Z" fill="black"/>
<path d="M136.257 63.7219C136.175 63.681 136.115 63.6053 136.095 63.5142C136.05 63.311 135.978 63.1186 135.879 62.9372C135.816 62.8199 135.784 62.6624 135.784 62.4646C135.784 62.2102 135.782 62.052 135.778 61.9899C135.744 61.445 135.775 60.9034 135.87 60.3653C135.876 60.3326 135.897 60.306 135.925 60.2927C136.061 60.234 136.242 60.2204 136.469 60.2518C136.538 60.261 136.587 60.3234 136.581 60.3929C136.515 61.1527 136.501 61.9156 136.537 62.6815C136.549 62.929 136.646 63.1251 136.828 63.2697C136.986 63.3959 137.176 63.4559 137.399 63.4498C137.624 63.4429 137.833 63.3751 138.027 63.2462C138.053 63.2298 138.069 63.2001 138.072 63.1674C138.146 62.3592 138.17 61.4893 138.145 60.5576C138.142 60.4274 138.201 60.3425 138.324 60.3029C138.461 60.2579 138.629 60.2507 138.827 60.2814C138.856 60.2855 138.876 60.3111 138.874 60.3408C138.825 61.0801 138.819 61.8197 138.859 62.5597C138.89 63.1626 138.69 63.5681 138.259 63.7761C137.99 63.905 137.659 63.9684 137.265 63.9664C136.916 63.9644 136.58 63.8828 136.257 63.7219Z" fill="black"/>
<path d="M140.99 63.9105C140.636 63.9001 140.288 63.9184 139.945 63.9653C139.872 63.9756 139.806 63.9146 139.807 63.836L139.832 60.3549C139.833 60.3125 139.86 60.2762 139.899 60.2669C140.061 60.2235 140.23 60.2249 140.405 60.2711C140.454 60.2835 140.491 60.33 140.493 60.3838C140.544 61.3859 140.529 62.347 140.448 63.267C140.439 63.3674 140.517 63.4532 140.617 63.4522L142.179 63.4294C142.209 63.4284 142.238 63.447 142.251 63.476C142.32 63.6263 142.306 63.766 142.21 63.895C142.193 63.9198 142.163 63.9353 142.13 63.9343C141.75 63.9301 141.37 63.9222 140.99 63.9105Z" fill="black"/>
<path d="M108.816 62.3273C109.042 62.6804 109.085 63.0458 108.945 63.4236C108.82 63.759 108.563 63.9323 108.172 63.9436C107.545 63.9613 106.918 63.9687 106.291 63.9659C106.264 63.9659 106.241 63.9415 106.241 63.9118L106.227 60.3943C106.226 60.3053 106.295 60.2333 106.378 60.2354C106.828 60.246 107.301 60.2594 107.798 60.2756C108.047 60.2834 108.236 60.3265 108.366 60.4049C108.556 60.5186 108.692 60.6817 108.775 60.8942C108.922 61.2769 108.849 61.6183 108.555 61.9184C108.531 61.9417 108.521 61.9756 108.53 62.0042C108.563 62.1222 108.633 62.209 108.742 62.2648C108.774 62.281 108.799 62.3019 108.816 62.3273ZM108.223 61.1522C108.228 61.0192 108.133 60.908 108.011 60.9023L106.98 60.8572C106.858 60.8518 106.755 60.9556 106.75 61.0878L106.733 61.5323C106.728 61.6653 106.824 61.7765 106.945 61.7822L107.977 61.8273C108.099 61.8327 108.202 61.7289 108.207 61.5967L108.223 61.1522ZM108.145 62.3199C107.747 62.2288 107.361 62.2101 106.985 62.2637C106.954 62.268 106.929 62.2902 106.918 62.3209C106.798 62.6691 106.759 63.0172 106.803 63.3653C106.809 63.4119 106.845 63.4479 106.888 63.45C107.324 63.4748 107.715 63.4599 108.061 63.4056C108.204 63.383 108.272 63.301 108.263 63.1598L108.218 62.4036C108.216 62.3633 108.185 62.3294 108.145 62.3199Z" fill="black"/>
<path d="M120.048 60.3387L119.512 60.3359C119.456 60.3356 119.41 60.3813 119.409 60.4379L119.391 63.8686C119.391 63.9252 119.437 63.9713 119.493 63.9716L120.029 63.9744C120.085 63.9747 120.131 63.9291 120.132 63.8724L120.15 60.4418C120.15 60.3851 120.104 60.339 120.048 60.3387Z" fill="black"/>
<path d="M149.236 62.6375L149.165 63.6973C149.158 63.7904 149.093 63.863 149.014 63.864L148.607 63.8681C148.582 63.8681 148.561 63.8384 148.562 63.8016C148.581 62.7146 148.565 61.6279 148.514 60.5415C148.503 60.324 148.588 60.2224 148.768 60.2367C148.897 60.2469 148.964 60.252 148.971 60.252C149.276 60.2452 149.58 60.2507 149.885 60.2684C149.89 60.2691 150.003 60.2697 150.223 60.2704C150.536 60.2725 150.804 60.3782 151.026 60.5875C151.16 60.7144 151.237 60.8777 151.258 61.0775C151.302 61.5024 151.189 61.871 150.921 62.1833C150.821 62.3006 150.834 62.4016 150.96 62.4861C151.137 62.6041 151.231 62.7623 151.242 62.9608C151.252 63.1292 151.257 63.2168 151.259 63.2237C151.288 63.4351 151.306 63.6489 151.311 63.865C151.313 63.9223 151.266 63.9694 151.212 63.9663C150.987 63.9527 150.808 63.8841 150.675 63.7607C150.655 63.7423 150.642 63.7116 150.638 63.6748L150.518 62.6324C150.512 62.5874 150.474 62.5536 150.427 62.5547L149.286 62.5864C149.259 62.5874 149.238 62.6089 149.236 62.6375ZM149.347 62.0053C149.502 62.0244 149.667 62.0258 149.843 62.0094C149.855 62.0081 149.947 62.0057 150.12 62.0023C150.26 62.0002 150.388 61.9579 150.505 61.8754C150.53 61.858 150.548 61.8294 150.558 61.7967C150.752 61.0929 150.495 60.7788 149.787 60.8545C149.677 60.8668 149.528 60.8665 149.341 60.8535C149.281 60.8504 149.228 60.8914 149.213 60.9517C149.136 61.2518 149.127 61.5508 149.186 61.8488C149.202 61.9327 149.267 61.9951 149.347 62.0053Z" fill="black"/>
<path d="M160.174 63.8964C160.068 63.8321 160.016 63.7357 160.017 63.6072L160.046 60.4186C160.047 60.3201 160.122 60.2403 160.215 60.2382C160.509 60.2327 160.792 60.2351 161.063 60.2455C161.495 60.2614 161.728 60.2718 161.762 60.2766C161.994 60.3111 162.218 60.3951 162.435 60.5285C162.608 60.6356 162.717 60.7852 162.762 60.9773C162.884 61.5025 162.795 61.9272 162.494 62.2513C162.339 62.4178 162.129 62.5208 161.864 62.5602C161.598 62.5996 161.304 62.6072 160.981 62.583C160.858 62.574 160.793 62.6404 160.786 62.782L160.73 63.8414C160.727 63.9088 160.671 63.9627 160.602 63.9648C160.404 63.9731 160.262 63.9503 160.174 63.8964ZM160.845 62.0585C160.984 62.1082 161.126 62.1352 161.271 62.1393C161.461 62.1449 161.604 62.138 161.7 62.1186C161.835 62.0903 161.944 62.0201 162.029 61.9082C162.102 61.8107 162.136 61.6902 162.132 61.5464C162.126 61.3529 162.073 61.1746 161.973 61.0115C161.955 60.9835 161.93 60.9628 161.899 60.9514C161.559 60.827 161.21 60.8073 160.854 60.8923C160.798 60.9058 160.756 60.9535 160.749 61.0126C160.705 61.327 160.714 61.648 160.776 61.9756C160.784 62.0139 160.81 62.0461 160.845 62.0585Z" fill="black" fill-opacity="0.996"/>
<path d="M115.406 61.4456C115.33 61.4732 115.286 61.536 115.274 61.6341C115.192 62.3269 115.211 63.0206 115.331 63.7154C115.341 63.7766 115.304 63.8356 115.244 63.8543C115.068 63.9102 114.901 63.9233 114.744 63.8936C114.691 63.8833 114.653 63.8377 114.655 63.7859C114.701 62.7913 114.692 61.7978 114.626 60.8053C114.616 60.6396 114.624 60.4804 114.652 60.3277C114.663 60.2728 114.71 60.2335 114.763 60.2366L115.652 60.2946C115.783 60.3029 115.856 60.3782 115.872 60.5204C115.911 60.9079 116.006 61.286 116.155 61.6548C116.236 61.8524 116.306 62.0309 116.366 62.1905C116.435 62.37 116.514 62.5455 116.604 62.7167C116.65 62.8051 116.691 62.8031 116.726 62.7105C116.867 62.3431 117.016 61.9777 117.175 61.6144C117.239 61.4694 117.287 61.323 117.321 61.1752C117.355 61.0239 117.39 60.8727 117.425 60.7214C117.476 60.5011 117.615 60.3581 117.842 60.2925C118.033 60.2373 118.27 60.2221 118.555 60.2469C118.594 60.25 118.623 60.2811 118.624 60.3194L118.664 63.7776C118.664 63.8097 118.647 63.8398 118.617 63.8553C118.259 64.0459 118.066 63.9914 118.04 63.6916C118.034 63.6274 118.048 63.4782 118.083 63.2441C118.162 62.7026 118.156 62.1597 118.065 61.6155C118.054 61.5492 118.023 61.5032 117.974 61.4777C117.949 61.4642 117.917 61.4787 117.906 61.5077C117.846 61.6687 117.782 61.8285 117.715 61.9874C117.683 62.0647 117.604 62.217 117.478 62.4443C117.352 62.6708 117.276 62.8863 117.249 63.0907C117.221 63.3104 117.163 63.4975 117.075 63.6522C117.014 63.7572 116.932 63.828 116.827 63.8646C116.7 63.9095 116.579 63.9071 116.467 63.8574C116.347 63.8049 116.258 63.6902 116.2 63.5134C116.16 63.3905 116.119 63.241 116.077 63.0648C115.982 62.6642 115.782 62.1362 115.479 61.4808C115.465 61.4508 115.433 61.4352 115.406 61.4456Z" fill="black" fill-opacity="0.992"/>
<path d="M121.811 62.5353L121.8 63.7878C121.8 63.8177 121.782 63.8435 121.757 63.8487C121.578 63.8838 121.402 63.8693 121.23 63.8053C121.203 63.795 121.186 63.7671 121.186 63.7361L121.151 60.303C121.151 60.274 121.172 60.2503 121.199 60.2493C121.722 60.2272 122.244 60.2314 122.765 60.2617C123.037 60.2775 123.243 60.3267 123.386 60.4093C123.582 60.5236 123.744 60.6905 123.87 60.9101C123.965 61.0739 123.975 61.2436 123.9 61.4191C123.789 61.6814 123.665 61.9578 123.527 62.2483C123.488 62.3309 123.497 62.3993 123.552 62.4537C123.581 62.4813 123.6 62.5071 123.609 62.5312C123.707 62.7976 123.782 63.0722 123.832 63.3551C123.834 63.3675 123.856 63.4498 123.899 63.6019C123.942 63.7547 123.889 63.8497 123.74 63.8869C123.725 63.891 123.653 63.9141 123.523 63.9561C123.396 63.9974 123.327 63.9155 123.316 63.7103C123.297 63.3689 123.233 63.035 123.124 62.7088C123.096 62.6241 123.031 62.5663 122.958 62.5611L121.859 62.4826C121.833 62.4806 121.811 62.5054 121.811 62.5353ZM121.872 62.0944C122.219 62.0579 122.568 61.9939 122.921 61.9024C123.062 61.8666 123.168 61.7912 123.241 61.6762C123.308 61.5695 123.331 61.4432 123.31 61.2973C123.27 61.0206 123.105 60.864 122.814 60.8275C122.542 60.7938 122.238 60.7862 121.903 60.8048C121.856 60.8068 121.817 60.845 121.809 60.8967C121.751 61.2505 121.728 61.606 121.738 61.9633C121.741 62.0417 121.803 62.1016 121.872 62.0944Z" fill="black"/>
<path d="M124.703 63.9164C124.594 63.8577 124.552 63.7643 124.579 63.6363C124.665 63.2314 124.795 62.8278 124.969 62.4257C124.996 62.362 125.041 62.2228 125.104 62.0081C125.14 61.8864 125.192 61.7501 125.259 61.599C125.364 61.364 125.45 61.1213 125.515 60.8709C125.585 60.603 125.648 60.4397 125.705 60.381C125.827 60.2544 126.009 60.2103 126.252 60.2488C126.373 60.2684 126.459 60.3383 126.51 60.4586C126.694 60.9006 126.872 61.3671 127.043 61.8581C127.045 61.8644 127.116 62.0473 127.254 62.4068C127.347 62.646 127.416 62.8936 127.461 63.1495C127.495 63.3398 127.562 63.5237 127.663 63.7014C127.706 63.7769 127.664 63.8755 127.583 63.8892C127.319 63.9353 127.15 63.8811 127.074 63.7266C126.986 63.5482 126.9 63.3639 126.815 63.1737C126.779 63.0939 126.702 63.0436 126.619 63.0467L125.675 63.0793C125.547 63.0835 125.455 63.1478 125.4 63.2723C125.317 63.4625 125.221 63.643 125.113 63.8136C125.011 63.9738 124.874 64.0081 124.703 63.9164ZM126.437 62.6166C126.492 62.6411 126.555 62.6068 126.625 62.5138C126.643 62.4897 126.647 62.455 126.635 62.4246L126.11 61.1279C126.079 61.0496 126.053 61.05 126.031 61.129L125.813 61.9179C125.79 62.0046 125.758 62.0718 125.719 62.1193C125.45 62.4481 125.544 62.5897 126.003 62.5442C126.153 62.5295 126.298 62.5537 126.437 62.6166Z" fill="black"/>
<path d="M130.43 8.06348C130.666 8.11748 130.906 8.12329 131.148 8.08091" stroke="black" stroke-width="2"/>
<path d="M142.405 16.6465C142.383 16.814 142.399 17.0447 142.452 17.3386C142.51 17.6646 142.527 18.0389 142.502 18.4613C142.493 18.6131 142.456 18.8174 142.389 19.0745C142.337 19.2768 142.298 19.4825 142.272 19.6917C142.268 19.7231 142.256 19.7532 142.235 19.7819C142.116 19.9508 142.079 20.136 142.123 20.3377" stroke="black" stroke-width="2"/>
<path d="M141.892 20.7726C141.895 20.6305 141.869 20.4975 141.814 20.3738C141.731 20.1885 141.683 20.0665 141.669 20.0078C141.416 18.9298 141.153 18.0333 140.882 17.3183C140.572 16.5042 140.117 15.6105 139.515 14.6371C139.44 14.5168 139.323 14.3681 139.164 14.1911C138.293 13.2232 137.351 12.3954 136.339 11.7078C135.676 11.258 134.946 10.8875 134.147 10.5963C132.882 10.1356 131.609 9.83042 130.326 9.68073C129.212 9.55085 128.17 9.48011 127.2 9.46849C125.73 9.45071 124.141 9.48421 122.431 9.56897C122.397 9.56999 122.367 9.55564 122.348 9.53103C122.255 9.4032 122.273 9.28837 122.403 9.18652" stroke="black" stroke-width="2"/>
<path d="M126.047 16.5913C126.099 16.3917 126.014 16.2564 125.79 16.1853C124.064 15.6357 122.39 15.3709 120.766 15.3907C120.177 15.3982 119.619 15.4426 119.092 15.524C118.558 15.6067 118.062 15.7455 117.603 15.9403C117.079 16.1624 116.631 16.4256 116.261 16.7298C115.304 17.5165 114.175 18.5835 112.873 19.9308C111.1 21.7655 109.354 23.6254 107.636 25.5106C106.133 27.1587 104.603 28.7814 103.048 30.3788C102.638 30.7992 102.215 31.2053 101.778 31.5969C101.651 31.7111 101.658 31.7945 101.798 31.8471C101.936 31.8991 101.936 31.9404 101.798 31.9712" stroke="black" stroke-width="2"/>
<path d="M151.863 30.9492C151.781 30.7742 151.653 30.6737 151.478 30.6477C151.425 30.6395 151.341 30.6546 151.225 30.6929C151.147 30.7188 151.059 30.7359 150.962 30.7441C150.074 30.8186 149.219 30.8617 148.398 30.8733C147.601 30.8849 146.919 30.8795 146.349 30.8569C144.847 30.7974 143.335 30.5719 141.811 30.1802C139.159 29.4987 136.918 28.1764 135.089 26.2132C135.064 26.1873 135.058 26.1438 135.07 26.083" stroke="black" stroke-width="2"/>
<path d="M136.099 26.5918C136.123 26.6581 136.165 26.7046 136.224 26.7312C136.305 26.7682 136.349 26.7883 136.355 26.7917C136.486 26.8731 136.626 26.9305 136.775 26.964C136.896 26.9913 137.043 27.0207 137.215 27.0522C137.36 27.0788 137.542 27.0963 137.761 27.1045C138.061 27.1154 138.361 27.1233 138.661 27.128C138.735 27.1294 138.797 27.1455 138.848 27.1762C138.906 27.2104 138.959 27.2507 139.007 27.2972C139.031 27.3218 139.063 27.3352 139.095 27.3352C139.535 27.3352 139.975 27.3352 140.415 27.3352C140.604 27.3352 140.793 27.3013 140.984 27.2336C141.167 27.1687 141.353 27.1072 141.543 27.0491C141.649 27.017 141.647 27.0081 141.537 27.0224C141.435 27.0368 141.347 27.0313 141.273 27.006" stroke="black" stroke-width="2"/>
<path d="M142.682 26.8691L142.956 27.0916C142.993 27.1224 143.021 27.1402 143.039 27.1449L144.759 27.5694" stroke="black" stroke-width="2"/>
<path d="M144.759 27.5693C145.764 27.868 146.832 28.0461 147.963 28.1035C149.405 28.1767 150.731 27.8619 151.941 27.1592C152.621 26.7634 153.253 26.3017 153.836 25.774C154.831 24.8731 155.791 23.9366 156.717 22.9646C157.457 22.1888 158.193 21.4078 158.923 20.6217C159.286 20.2314 159.746 19.7256 160.303 19.1043C162.426 16.7371 164.589 14.4069 166.792 12.1136C166.868 12.0343 166.979 11.9298 167.126 11.7999C167.285 11.6584 167.389 11.5456 167.438 11.4615C167.514 11.3296 167.482 11.2705 167.341 11.2841" stroke="black" stroke-width="2"/>
<path d="M144.759 27.5692C145.045 27.4721 145.66 27.2913 146.604 27.0268C147.408 26.8019 148.224 26.456 149.055 25.9891C149.611 25.6768 150.174 25.2902 150.742 24.8295C151.69 24.0598 152.568 23.2133 153.377 22.2898C154.903 20.5467 156.504 18.8755 158.18 17.276C160.604 14.9628 163.37 13.1805 166.479 11.9289C166.51 11.9166 166.531 11.8899 166.536 11.8592C166.568 11.5851 166.443 11.4289 166.158 11.3906" stroke="black" stroke-width="2"/>
<path d="M86.0121 44.0984C86.01 44.0895 86.0059 44.0826 85.9998 44.0778C85.9915 44.0727 85.9803 44.0799 85.9782 44.0912C85.9112 44.4022 85.9112 44.7122 85.9782 45.0211" stroke="black" stroke-width="2"/>
<path d="M85.9524 45.124C85.8178 45.2874 85.7422 45.474 85.7258 45.6838" stroke="black" stroke-width="2"/>
<path d="M104.438 53.2204C104.428 53.0269 104.375 52.8082 104.278 52.5641C104.056 52.0043 103.864 51.5641 103.702 51.2435C103.303 50.4574 102.919 49.6642 102.547 48.8638C102.456 48.6669 102.225 48.2216 101.855 47.5278C101.801 47.4252 101.732 47.376 101.648 47.3801" stroke="black" stroke-width="2"/>
<path d="M101.461 47.0213C101.448 46.9297 101.4 46.887 101.315 46.8932" stroke="black" stroke-width="2"/>
<path d="M101.315 46.8931C101.311 46.7482 101.249 46.6884 101.127 46.7136" stroke="black" stroke-width="2"/>
<path d="M101.315 46.8936C101.321 46.9879 101.285 47.0576 101.208 47.1027" stroke="black" stroke-width="2"/>
<path d="M117.639 45.5644C117.594 45.1666 117.585 44.9003 117.613 44.7657C117.664 44.5203 117.596 44.3463 117.409 44.2438C117.382 44.2284 117.36 44.2028 117.349 44.172C117.295 44.0305 117.178 43.9721 116.998 43.9967C116.717 44.0357 116.341 44.038 115.869 44.0039C115.764 43.9963 115.621 44.0261 115.44 44.0931C115.39 44.1115 115.359 44.1587 115.358 44.211C115.317 47.477 115.317 50.7553 115.358 54.0459C115.359 54.0859 115.387 54.1187 115.427 54.1238C116.036 54.2051 116.651 54.2209 117.274 54.171C117.308 54.1679 117.339 54.1515 117.357 54.1258C117.473 53.9693 117.523 53.7885 117.506 53.5834C117.489 53.3962 117.496 53.2119 117.526 53.0308C117.567 52.7861 117.586 52.6053 117.585 52.4884C117.563 50.1985 117.564 48.1882 117.588 46.4575C117.588 46.4144 117.613 46.3888 117.661 46.3806" stroke="black"/>
<path d="M139.74 27.3729C139.912 27.39 140.103 27.3934 140.312 27.3832C140.531 27.3716 140.53 27.3641 140.311 27.3606C140.117 27.3579 139.927 27.3596 139.741 27.3658C139.704 27.3664 139.704 27.3688 139.74 27.3729Z" stroke="black" stroke-width="2"/>
<path d="M122.992 44.5364C122.992 44.5221 122.98 44.5098 122.966 44.5098H122.943C122.929 44.5098 122.916 44.5221 122.917 44.5365L122.922 47.9078C122.923 47.9221 122.935 47.9344 122.949 47.9344L122.972 47.9343C122.986 47.9344 122.998 47.9221 122.998 47.9076L122.992 44.5364Z" stroke="black" stroke-width="2"/>
<path d="M147.168 45.5906C147.129 45.5872 147.101 45.5957 147.084 45.6162C147.071 45.6337 147.071 45.6706 147.086 45.7095C147.11 45.7738 147.119 45.8384 147.112 45.9033C147.098 46.0291 147.091 46.093 147.091 46.093C147.092 47.0807 147.094 48.0688 147.098 49.0572C147.098 49.0832 147.1 49.1068 147.106 49.1279C147.129 49.2236 147.157 49.2308 147.19 49.1495" stroke="black" stroke-width="2"/>
<path d="M146.884 48.6421C146.888 48.7365 146.869 48.8264 146.829 48.9118C146.765 49.0437 146.778 49.1377 146.867 49.1938C146.96 49.2519 146.986 49.2232 146.946 49.1076C146.92 49.0345 146.928 48.9723 146.971 48.921C146.995 48.8923 147.007 48.8616 147.007 48.8349L146.983 46.9504C146.982 46.9162 146.97 46.9117 146.948 46.937L146.818 47.0847C146.796 47.1093 146.784 47.1411 146.783 47.1749C146.777 47.6035 146.783 48.0317 146.801 48.4596C146.803 48.4849 146.799 48.5119 146.79 48.5406C146.765 48.624 146.781 48.6507 146.836 48.6206C146.858 48.6083 146.883 48.6206 146.884 48.6421Z" stroke="black" stroke-width="2"/>
<path d="M171.293 45.9961C171.301 46.0542 171.273 46.1079 171.211 46.1571C171.18 46.1807 171.162 46.2186 171.162 46.2575C171.159 46.5631 171.175 46.8553 171.209 47.1342C171.244 47.4151 171.258 47.6493 171.251 47.8365C171.243 48.071 171.234 48.3058 171.223 48.5409C171.217 48.6736 171.273 48.7381 171.392 48.7347" stroke="black" stroke-width="2"/>
<path d="M93.0273 49.969C93.0614 49.997 93.0884 49.997 93.1083 49.969C93.204 49.8316 93.2166 49.6867 93.1462 49.5343C93.1113 49.4605 93.0925 49.4198 93.0898 49.4123C92.8649 48.834 92.6394 48.2557 92.4131 47.6774C92.4111 47.6726 92.3034 47.3832 92.0901 46.809C91.9288 46.3749 91.7535 45.9778 91.5641 45.6176C91.493 45.4829 91.3755 45.4309 91.2114 45.4617" stroke="black" stroke-width="2"/>
<path d="M130.53 8.03554C130.766 8.08955 131.005 8.09536 131.247 8.05297C131.654 8.0769 132.209 8.18082 132.912 8.36473C134.491 8.77767 135.976 9.40939 137.368 10.2599C138.362 10.8677 139.257 11.5972 140.051 12.4484C140.288 12.7027 140.521 12.9608 140.751 13.2226C140.958 13.4599 141.157 13.7275 141.346 14.0256C141.525 14.3073 141.704 14.589 141.884 14.8706C141.909 14.9096 141.93 14.9602 141.946 15.0224C141.96 15.0805 141.978 15.1304 142.001 15.1721C142.25 15.6247 142.416 16.1074 142.497 16.6202C142.476 16.7877 142.491 17.0184 142.544 17.3124C142.602 17.6385 142.619 18.0128 142.594 18.4354C142.585 18.5871 142.548 18.7916 142.481 19.0486C142.429 19.251 142.39 19.4568 142.365 19.666C142.361 19.6974 142.348 19.7275 142.328 19.7562C142.209 19.9251 142.171 20.1104 142.215 20.3121L141.984 20.7479C141.987 20.6057 141.961 20.4727 141.907 20.349C141.824 20.1637 141.776 20.0417 141.762 19.9829C141.509 18.9047 141.246 18.0081 140.975 17.2929C140.666 16.4787 140.21 15.5847 139.609 14.6112C139.534 14.4909 139.417 14.3422 139.259 14.1651C138.388 13.197 137.447 12.3691 136.435 11.6813C135.773 11.2314 135.043 10.8608 134.244 10.5696C132.981 10.1088 131.708 9.80354 130.427 9.65381C129.313 9.52391 128.272 9.45315 127.302 9.44153C125.834 9.42375 124.245 9.45725 122.537 9.54203C122.503 9.54305 122.472 9.52869 122.454 9.50408C122.36 9.37623 122.378 9.26138 122.508 9.15951C123.541 8.72537 124.499 8.40917 125.381 8.2109C126.078 8.05434 126.853 7.98494 127.707 8.00272C127.774 8.00409 127.844 8.01776 127.917 8.04374C127.962 8.05946 128.007 8.07416 128.052 8.08784C128.097 8.10151 128.144 8.10835 128.194 8.10835C128.836 8.10561 129.478 8.10561 130.119 8.10835C130.149 8.10835 130.182 8.09809 130.213 8.07861C130.306 8.02186 130.411 8.00751 130.53 8.03554Z" fill="black"/>
<path d="M122.451 9.24414C122.321 9.34594 122.303 9.46073 122.396 9.58849C122.415 9.61309 122.446 9.62744 122.48 9.62641C124.193 9.54169 125.786 9.50821 127.259 9.52598C128.231 9.53759 129.275 9.60831 130.392 9.73812C131.677 9.88775 132.953 10.1928 134.221 10.6533C135.021 10.9444 135.754 11.3147 136.418 11.7643C137.432 12.4516 138.376 13.279 139.25 14.2465C139.409 14.4234 139.526 14.572 139.601 14.6923C140.204 15.6652 140.66 16.5585 140.971 17.3723C141.243 18.0869 141.506 18.983 141.76 20.0605C141.774 20.1192 141.822 20.2412 141.905 20.4263C141.96 20.55 141.986 20.6829 141.983 20.825C141.85 21.1072 141.652 21.2695 141.388 21.3118C141 21.3747 140.597 21.3627 140.182 21.276C139.874 21.2124 139.502 21.0758 139.067 20.866C138.195 20.4472 137.349 19.9317 136.527 19.3195C135.624 18.6479 134.828 17.9988 134.137 17.3723C134.002 17.2507 133.806 17.1567 133.547 17.0904C133.509 17.0809 133.419 17.0153 133.277 16.8937C133.26 16.8793 133.23 16.865 133.188 16.8506L132.591 16.6518C132.56 16.6416 132.54 16.6129 132.54 16.579V16.4243C132.539 16.3925 132.521 16.3659 132.494 16.3587C132.328 16.3136 132.098 16.2907 131.806 16.29C130.796 16.2873 130.16 16.3023 129.899 16.3351C129.582 16.3741 129.338 16.3891 129.165 16.3802C128.41 16.3406 127.655 16.3447 126.899 16.3925C126.787 16.3993 126.521 16.4834 126.103 16.6446C126.156 16.4451 126.07 16.3098 125.846 16.2388C124.116 15.6895 122.438 15.4247 120.811 15.4445C120.22 15.452 119.661 15.4964 119.133 15.5778C118.598 15.6604 118.101 15.7991 117.641 15.9938C117.115 16.2159 116.667 16.4789 116.296 16.783C115.337 17.5694 114.205 18.6359 112.901 19.9826C111.124 21.8164 109.374 23.6755 107.652 25.5599C106.145 27.2071 104.613 28.8291 103.053 30.4259C102.643 30.8461 102.219 31.2519 101.781 31.6434C101.654 31.7575 101.66 31.8409 101.801 31.8935C101.94 31.9454 101.94 31.9867 101.801 32.0175C101.68 32.0195 101.568 32.0451 101.465 32.0943C101.307 32.1688 101.203 32.2101 101.155 32.2183C101.008 32.2436 100.847 32.2549 100.671 32.2522C99.6005 32.2344 98.5229 32.2259 97.4378 32.2265C97.1748 32.2265 97.1395 32.137 97.332 31.958C98.017 31.3185 98.6986 30.6619 99.3768 29.9883C101.774 27.6051 104.17 25.2213 106.567 22.8368C109.858 19.5614 112.805 16.6511 115.41 14.1061C115.851 13.6749 116.328 13.2336 116.841 12.7819C117.526 12.18 118.021 11.7588 118.326 11.5183C119.569 10.5406 120.944 9.78253 122.451 9.24414Z" fill="black"/>
<path d="M151.906 31.0086C151.824 30.8329 151.696 30.7321 151.521 30.706C151.469 30.6978 151.385 30.7129 151.269 30.7513C151.191 30.7773 151.104 30.7945 151.007 30.8027C150.121 30.8775 149.268 30.9207 148.448 30.9324C147.653 30.9441 146.972 30.9386 146.404 30.9159C144.905 30.8562 143.396 30.6298 141.875 30.2367C139.229 29.5527 136.993 28.2255 135.168 26.2551C135.143 26.229 135.137 26.1854 135.148 26.1244C135.425 26.1909 135.661 26.323 135.854 26.5206C135.869 26.535 135.898 26.5487 135.941 26.5617L136.176 26.6348C136.2 26.7014 136.242 26.748 136.3 26.7748C136.382 26.8118 136.425 26.8321 136.431 26.8355C136.562 26.9171 136.702 26.9748 136.85 27.0084C136.971 27.0358 137.117 27.0653 137.29 27.0969C137.434 27.1236 137.616 27.1411 137.834 27.1494C138.134 27.1603 138.433 27.1682 138.732 27.173C138.806 27.1744 138.868 27.1905 138.919 27.2214C138.977 27.2557 139.029 27.2962 139.077 27.3428C139.102 27.3675 139.133 27.3809 139.165 27.3809C139.604 27.3809 140.044 27.3809 140.483 27.3809C140.671 27.3809 140.86 27.347 141.05 27.279C141.233 27.2139 141.419 27.1521 141.608 27.0938C141.713 27.0615 141.711 27.0526 141.602 27.067C141.501 27.0814 141.413 27.076 141.338 27.0506C141.814 27.0746 142.283 27.029 142.745 26.9137L143.018 27.137C143.055 27.1679 143.083 27.1857 143.101 27.1905L144.817 27.6166C145.819 27.9164 146.885 28.0951 148.014 28.1528C149.453 28.2262 150.776 27.9102 151.984 27.2049C152.662 26.8077 153.293 26.3443 153.874 25.8146C154.867 24.9104 155.825 23.9704 156.749 22.9948C157.488 22.2161 158.222 21.4323 158.95 20.6433C159.312 20.2515 159.771 19.7438 160.327 19.1202C162.446 16.7443 164.604 14.4055 166.803 12.1037C166.878 12.0241 166.989 11.9191 167.136 11.7888C167.295 11.6468 167.399 11.5335 167.447 11.4492C167.523 11.3167 167.491 11.2574 167.351 11.2711C167.702 11.1785 168.18 11.1284 168.783 11.1209C169.766 11.1085 170.726 11.1061 171.663 11.1137C171.856 11.1157 171.884 11.1843 171.745 11.3195C169.756 13.2638 167.779 15.2216 165.816 17.1927C162.241 20.7836 158.659 24.3663 155.067 27.9408C153.577 29.4234 152.523 30.446 151.906 31.0086ZM139.809 27.419C139.981 27.4361 140.171 27.4396 140.38 27.4293C140.598 27.4176 140.598 27.4101 140.379 27.4066C140.186 27.4039 139.996 27.4056 139.81 27.4118C139.773 27.4125 139.773 27.4149 139.809 27.419Z" fill="black"/>
<path d="M167.343 11.4218C167.483 11.4082 167.515 11.4672 167.439 11.5988C167.391 11.6826 167.287 11.7951 167.128 11.9363C166.981 12.0658 166.87 12.1702 166.794 12.2493C164.593 14.5369 162.432 16.8613 160.311 19.2226C159.754 19.8424 159.294 20.347 158.932 20.7363C158.203 21.5204 157.468 22.2994 156.728 23.0733C155.803 24.0429 154.844 24.9771 153.85 25.8758C153.268 26.4022 152.637 26.8627 151.957 27.2575C150.748 27.9585 149.423 28.2725 147.983 28.1995C146.852 28.1422 145.785 27.9646 144.781 27.6667C145.068 27.5698 145.682 27.3895 146.625 27.1256C147.428 26.9013 148.244 26.5563 149.074 26.0906C149.629 25.7789 150.191 25.3934 150.759 24.9338C151.706 24.166 152.583 23.3215 153.391 22.4004C154.916 20.6616 156.516 18.9945 158.19 17.399C160.612 15.0916 163.375 13.3136 166.481 12.0652C166.512 12.0529 166.534 12.0263 166.538 11.9956C166.57 11.7222 166.445 11.5664 166.161 11.5282L167.343 11.4218Z" fill="black"/>
<path d="M166.162 11.4199C166.448 11.4582 166.574 11.6143 166.541 11.8882C166.537 11.9189 166.515 11.9456 166.484 11.9579C163.365 13.2086 160.589 14.9898 158.157 17.3014C156.475 18.8999 154.868 20.5701 153.336 22.312C152.525 23.2349 151.643 24.0809 150.692 24.8501C150.122 25.3105 149.558 25.6968 149 26.009C148.166 26.4756 147.346 26.8212 146.54 27.0459C145.593 27.3103 144.976 27.491 144.688 27.588L142.963 27.1638C142.945 27.159 142.917 27.1412 142.88 27.1105L142.605 26.8882C144.261 26.1982 145.743 25.2425 147.053 24.0212C148.119 23.0259 149.158 22.0029 150.169 20.9523C151.001 20.0882 151.856 19.2493 152.736 18.4357C154.123 17.1529 155.608 15.994 157.189 14.9591C158.821 13.8921 160.55 13.0156 162.377 12.3298C163.601 11.8701 164.863 11.5668 166.162 11.4199Z" fill="black"/>
<path d="M126.111 16.6545C125.388 16.9645 124.745 17.3071 124.18 17.6822C122.932 18.5119 121.782 19.4565 120.729 20.5162C120.091 21.1565 119.451 21.7949 118.811 22.4312C118.807 22.436 118.447 22.8019 117.732 23.5292C116.148 25.141 114.294 26.6772 112.168 28.1377C109.957 29.6573 107.554 30.778 104.958 31.4997C104.252 31.6965 103.382 31.8372 102.346 31.922C102.024 31.9485 101.8 31.9471 101.674 31.918C101.814 31.8874 101.814 31.8464 101.674 31.7948C101.533 31.7426 101.526 31.6598 101.654 31.5466C102.095 31.1578 102.521 30.7549 102.934 30.3377C104.501 28.7523 106.043 27.1419 107.557 25.5063C109.289 23.6353 111.049 21.7895 112.835 19.9687C114.147 18.6316 115.285 17.5727 116.249 16.7919C116.623 16.49 117.074 16.2288 117.602 16.0083C118.064 15.815 118.564 15.6773 119.102 15.5952C119.633 15.5145 120.196 15.4704 120.79 15.4629C122.426 15.4433 124.113 15.7061 125.853 16.2515C126.078 16.3221 126.164 16.4564 126.111 16.6545Z" fill="black"/>
<path d="M142.359 16.7061C142.779 17.9857 142.661 19.2294 142.005 20.4372C141.95 20.2333 141.998 20.0461 142.147 19.8754C142.172 19.8464 142.188 19.816 142.193 19.7842C142.225 19.5728 142.274 19.3648 142.34 19.1603C142.423 18.9005 142.47 18.6939 142.481 18.5405C142.512 18.1135 142.491 17.7352 142.418 17.4056C142.352 17.1085 142.332 16.8753 142.359 16.7061Z" fill="#184259"/>
<path d="M135.11 26.052C135.098 26.1129 135.105 26.1563 135.129 26.1823C136.962 28.1465 139.206 29.4696 141.863 30.1515C143.389 30.5434 144.905 30.7691 146.409 30.8286C146.979 30.8511 147.663 30.8566 148.461 30.845C149.284 30.8333 150.141 30.7903 151.03 30.7157C151.127 30.7075 151.215 30.6904 151.293 30.6644C151.409 30.6261 151.494 30.6111 151.547 30.6193C151.722 30.6453 151.851 30.7458 151.933 30.9209C151.782 31.0495 151.329 31.4106 150.574 32.0042C149.715 32.6799 148.829 33.2052 147.916 33.58C146.946 33.978 145.965 34.3491 144.975 34.6931C144.545 34.8422 144.106 34.9625 143.661 35.0542C143.289 35.0186 142.921 35.0415 142.556 35.1229C142.404 35.1004 142.252 35.101 142.1 35.125C142.064 35.1305 142.064 35.1356 142.1 35.1404L142.293 35.165C142.326 35.1691 142.326 35.1705 142.293 35.1691C141.976 35.1568 141.661 35.1711 141.348 35.2122C141.042 35.2519 140.767 35.2713 140.524 35.2707C140.07 35.2693 139.617 35.2997 139.167 35.362C139.019 35.3107 138.908 35.2837 138.833 35.2809C137.745 35.2412 136.598 35.0361 135.392 34.6654C133.129 33.9698 131.143 32.8075 129.434 31.1784C128.529 30.3166 127.826 29.4121 127.323 28.4649C126.886 27.6428 126.604 26.711 126.476 25.6694C126.417 25.1947 126.425 24.7922 126.5 24.4619C126.57 24.148 126.64 23.8341 126.709 23.5201C126.779 23.2042 126.86 22.9665 126.952 22.8071C127.087 22.5732 127.258 22.3817 127.464 22.2326C127.736 22.037 128.06 21.9608 128.436 22.0039C128.916 22.0586 129.378 22.1841 129.82 22.3804C130.165 22.5336 130.504 22.6994 130.836 22.8779C131.133 23.038 131.452 23.2377 131.795 23.477C132.944 24.2786 134.048 25.1369 135.11 26.052Z" fill="black"/>
<path d="M136.076 26.6562L136.904 26.7549C136.936 26.7583 136.964 26.7772 136.977 26.8038L136.996 26.8458C137.009 26.8707 137.036 26.887 137.066 26.8878C138.197 26.9101 139.329 26.9238 140.46 26.9289C140.558 26.9295 140.7 26.9453 140.886 26.9762C141.027 27.0002 141.172 27.0091 141.319 27.0028C141.395 27.0239 141.484 27.0285 141.588 27.0165C141.698 27.0045 141.701 27.0118 141.594 27.0387C141.401 27.0873 141.212 27.1388 141.026 27.1931C140.834 27.2497 140.642 27.278 140.451 27.278C140.005 27.278 139.558 27.278 139.112 27.278C139.08 27.278 139.048 27.2669 139.023 27.2463C138.974 27.2074 138.921 27.1737 138.862 27.1451C138.811 27.1193 138.747 27.1059 138.673 27.1047C138.369 27.1007 138.064 27.0943 137.76 27.0851C137.539 27.0783 137.354 27.0636 137.207 27.0413C137.032 27.015 136.883 26.9905 136.761 26.9676C136.61 26.9396 136.469 26.8916 136.335 26.8235C136.329 26.8207 136.285 26.8038 136.202 26.7729C136.143 26.7506 136.101 26.7116 136.076 26.6562ZM138.727 27.0096C138.889 27.0239 139.088 27.0256 139.325 27.0147C139.476 27.0073 139.476 27.0025 139.325 27.0002C139.103 26.9974 138.904 26.9982 138.728 27.0028C138.689 27.0039 138.689 27.0062 138.727 27.0096Z" fill="black"/>
</svg>
