<svg width="270" height="72" viewBox="0 0 270 72" fill="none" xmlns="http://www.w3.org/2000/svg">
<path d="M78.2022 17.3367C79.1867 16.3422 79.9974 15.5795 80.6342 15.0484C82.2151 13.7318 84.0517 12.7827 86.1438 12.2013C86.9624 11.9733 87.7731 11.8192 88.5759 11.7391C91.1579 11.4806 93.6626 11.9076 96.0901 13.0202C97.4604 13.6479 98.6924 14.4338 99.7859 15.3779C99.9817 15.5472 100.579 16.1184 101.577 17.0914C102.544 18.033 103.511 18.9742 104.478 19.915C104.995 20.418 105.582 20.9994 106.238 21.6594C108.047 23.4798 109.883 25.273 111.744 27.0389C112.344 27.608 112.912 28.2068 113.448 28.8354C115.853 31.6561 117.054 34.8736 117.052 38.4881C117.049 41.4368 116.221 44.1414 114.568 46.6019C114.145 47.2305 113.631 47.8756 113.025 48.5372C112.377 49.2467 111.688 49.9165 110.959 50.5468C110.24 51.1687 109.44 51.7308 108.558 52.233C107.577 52.7913 106.729 53.2539 106.014 53.6206C101.789 55.7879 97.4811 57.8021 93.0894 59.663C93.0436 59.6828 92.9928 59.6481 92.9928 59.5985C92.9837 52.525 92.9812 45.439 92.9853 38.3406C92.9853 38.2927 92.9746 38.0197 92.9531 37.5217C92.9407 37.2243 92.9539 36.9501 92.9928 36.699C93.12 35.8846 93.5767 35.3254 94.363 35.0215C96.7303 34.1063 99.1264 33.187 101.551 32.2636C101.665 32.2202 101.794 32.24 101.89 32.3156C102.351 32.6848 102.866 32.914 103.435 33.0032C103.966 33.0858 104.51 33.0429 105.068 32.8744C105.743 32.6695 106.302 32.304 106.743 31.7779C107.221 31.2063 107.505 30.5518 107.595 29.8142C107.688 29.0468 107.529 28.3117 107.117 27.6088C106.775 27.0241 106.311 26.5743 105.724 26.2596C105.166 25.959 104.561 25.8157 103.909 25.8297C103.088 25.8462 102.357 26.1159 101.716 26.6387C101.368 26.922 101.091 27.2471 100.882 27.6138C100.672 27.9863 100.524 28.3968 100.44 28.8453C100.423 28.9358 100.361 29.0101 100.275 29.0435C98.1567 29.8695 96.0984 30.6752 94.1004 31.4607C93.0134 31.8878 92.2312 32.1512 91.7538 32.2512C90.158 32.5857 88.5672 32.4511 86.9814 31.8473C84.5836 30.9354 82.1606 29.9893 79.7125 29.0089C79.6679 28.9903 79.6344 28.9506 79.6233 28.9035C79.2929 27.4713 78.5421 26.5334 77.3708 26.0899C76.5581 25.7818 75.7491 25.7504 74.9437 25.9957C74.3135 26.1882 73.782 26.5371 73.3492 27.0426C72.9445 27.5143 72.6694 28.0615 72.5241 28.6842C72.2664 29.7828 72.5228 30.7975 73.2935 31.7283C74.1112 32.7154 75.1515 33.1457 76.4144 33.0193C76.7167 32.9888 77.0363 32.8992 77.3733 32.7505C77.6806 32.615 77.9804 32.4668 78.2728 32.3057C78.3732 32.2499 78.4933 32.2413 78.5986 32.2834C80.6735 33.0945 82.721 33.8928 84.7414 34.6783C85.2122 34.8617 85.6759 35.0603 86.1327 35.2742C86.5209 35.4568 86.7856 35.7463 86.9269 36.1427C87.0012 36.3517 87.0384 36.7213 87.0384 37.2516C87.0384 44.6349 87.0384 52.0583 87.0384 59.5217C87.0384 59.6035 86.9554 59.658 86.881 59.627C81.912 57.5365 77.0628 55.237 72.3333 52.7286C71.8831 52.489 71.3479 52.1669 70.7276 51.7622C70.1643 51.3954 69.6637 51.0229 69.226 50.6446C68.585 50.0921 67.9172 49.4548 67.2226 48.7329C64.6051 46.0114 63.2039 42.8128 63.0188 39.1373C62.9767 38.2997 63.0052 37.4758 63.1043 36.6656C63.4273 34.0167 64.4135 31.6173 66.0629 29.4673C66.6337 28.7231 67.2606 28.0288 67.9437 27.3846C69.2214 26.1795 70.9791 24.4578 73.2166 22.2194C73.5974 21.8386 74.6732 20.7934 76.4441 19.0836C76.8488 18.6929 77.4349 18.1106 78.2022 17.3367ZM94.3767 23.0334C94.3767 20.6274 92.4266 18.6772 90.0205 18.6772C87.6145 18.6772 85.6644 20.6274 85.6644 23.0334C85.6644 25.4394 87.6145 27.3895 90.0205 27.3895C92.4266 27.3895 94.3767 25.4394 94.3767 23.0334Z" fill="black"/>
<path d="M133.068 21.8936H130.738C130.697 21.8936 130.664 21.9269 130.664 21.968V37.4301C130.664 37.4711 130.697 37.5044 130.738 37.5044H133.068C133.109 37.5044 133.142 37.4711 133.142 37.4301V21.968C133.142 21.9269 133.109 21.8936 133.068 21.8936Z" fill="black"/>
<path d="M142.194 24.1919L142.186 37.4078C142.186 37.461 142.143 37.5044 142.091 37.5032L139.777 37.497C139.743 37.497 139.716 37.4697 139.716 37.4363L139.708 24.2253C139.708 24.1696 139.663 24.1238 139.607 24.1238H135.206C135.161 24.1238 135.124 24.0866 135.124 24.042V22.0076C135.124 21.9444 135.175 21.8936 135.238 21.8936H146.706C146.742 21.8936 146.77 21.9221 146.77 21.9581V24.042C146.77 24.0866 146.733 24.1238 146.687 24.1238L142.254 24.1312C142.221 24.1312 142.194 24.1584 142.194 24.1919Z" fill="black"/>
<path d="M163.409 23.2222C163.754 23.5203 164.045 23.8598 164.281 24.2406C164.496 24.5883 164.666 24.9951 164.791 25.4609C165.136 26.7453 165.026 27.9525 164.463 29.0824C164.087 29.8382 163.556 30.4572 162.868 30.9396C161.937 31.5938 160.855 31.9192 159.625 31.9159C158.716 31.9134 157.807 31.9283 156.897 31.9605C156.846 31.963 156.806 32.0038 156.806 32.0546V37.4044C156.806 37.4602 156.762 37.5048 156.706 37.5048H154.286C154.242 37.5048 154.204 37.4676 154.204 37.423C154.204 32.6043 154.199 27.7997 154.189 23.0091C154.189 22.6886 154.204 22.3681 154.235 22.0476C154.243 21.9783 154.3 21.925 154.369 21.9237C156.2 21.8891 158.045 21.8824 159.904 21.9039C161.239 21.9188 162.407 22.3582 163.409 23.2222ZM161.672 28.9275C162.108 28.4799 162.367 27.9694 162.446 27.3962C162.523 26.8378 162.471 26.2927 162.289 25.7608C162.102 25.2148 161.754 24.7907 161.245 24.4884C160.967 24.3224 160.63 24.2179 160.233 24.1749C159.915 24.141 159.557 24.1241 159.16 24.1241C158.417 24.1241 157.67 24.1241 156.92 24.1241C156.857 24.1241 156.806 24.1749 156.806 24.2381V29.6028C156.806 29.6585 156.851 29.7031 156.907 29.7019C157.759 29.6887 158.562 29.6899 159.315 29.7056C159.821 29.7163 160.245 29.673 160.585 29.5755C161.006 29.4549 161.368 29.2389 161.672 28.9275Z" fill="black"/>
<path d="M174.612 33.6705L168.853 33.6631C168.751 33.6631 168.658 33.73 168.623 33.8291L167.365 37.422C167.353 37.458 167.32 37.4828 167.282 37.4828L164.806 37.5026C164.775 37.5026 164.753 37.4716 164.764 37.4419L170.437 21.9748C170.449 21.9389 170.483 21.9141 170.52 21.9141L172.874 21.8955C172.951 21.8943 173.021 21.9451 173.05 22.0207L178.676 37.4171C178.691 37.4592 178.66 37.5038 178.615 37.5038H176.321C176.171 37.5038 176.072 37.4353 176.024 37.2982L174.797 33.8043C174.768 33.7238 174.695 33.6705 174.612 33.6705ZM171.679 24.6844C171.052 26.865 170.344 29.069 169.557 31.2967C169.498 31.4652 169.557 31.5498 169.736 31.5507L173.782 31.5569C173.855 31.5569 173.911 31.4924 173.902 31.4206C173.886 31.3016 173.857 31.1815 173.813 31.06C173.097 29.0802 172.467 27.0731 171.922 25.0387C171.887 24.9049 171.827 24.7831 171.743 24.6732C171.714 24.6353 171.693 24.639 171.679 24.6844Z" fill="black"/>
<path d="M188.6 31.1672C188.529 31.1944 188.501 31.2775 188.538 31.3419L192.073 37.4016C192.112 37.4701 192.092 37.5044 192.013 37.5044H189.601C189.492 37.5044 189.391 37.4462 189.338 37.3533L186.013 31.6343C185.986 31.5872 185.935 31.5575 185.88 31.5575H183.318C183.25 31.5575 183.195 31.612 183.195 31.6801V37.4226C183.195 37.4673 183.158 37.5044 183.114 37.5044H180.799C180.755 37.5044 180.718 37.4673 180.718 37.4226V21.9866C180.718 21.9358 180.76 21.8936 180.81 21.8936C182.813 21.8936 184.775 21.8969 186.695 21.9036C187.861 21.9077 188.893 22.1935 189.793 22.7609C190.378 23.1301 190.848 23.6145 191.203 24.2142C191.528 24.7618 191.738 25.385 191.832 26.0838C192.032 27.5515 191.617 28.8243 190.587 29.9022C190.322 30.1797 190.014 30.4251 189.664 30.6382C189.316 30.8504 188.962 31.0268 188.6 31.1672ZM188.499 24.7048C188.105 24.4033 187.648 24.22 187.129 24.1547C186.571 24.0845 185.288 24.0812 183.281 24.1448C183.246 24.1461 183.218 24.1746 183.218 24.2092L183.197 29.2258C183.197 29.2778 183.239 29.3199 183.292 29.3199C184.386 29.329 185.5 29.3294 186.634 29.3212C187.174 29.317 187.664 29.1923 188.104 28.947C188.547 28.7008 188.878 28.3486 189.097 27.8902C189.384 27.2889 189.443 26.6314 189.275 25.9178C189.155 25.4123 188.897 25.008 188.499 24.7048Z" fill="black"/>
<path d="M197.012 21.8936H194.653C194.621 21.8936 194.594 21.9203 194.594 21.9531V37.4449C194.594 37.4778 194.621 37.5044 194.653 37.5044H197.012C197.045 37.5044 197.072 37.4778 197.072 37.4449V21.9531C197.072 21.9203 197.045 21.8936 197.012 21.8936Z" fill="black"/>
<path d="M204.084 37.4685C204.009 37.4412 203.943 37.3941 203.892 37.3322C201.927 34.9394 200.016 32.5713 198.157 30.2281C198.027 30.0645 197.951 29.8944 197.927 29.7176C197.874 29.3426 197.887 28.9713 197.965 28.6038C197.98 28.5352 198.011 28.4741 198.059 28.4204L203.844 22.0027C203.906 21.9333 203.995 21.8936 204.088 21.8936H206.614C206.739 21.8936 206.76 21.9399 206.676 22.0324L200.338 29.118C200.284 29.1774 200.282 29.2654 200.331 29.3273L206.944 37.4313C206.983 37.48 206.972 37.5044 206.909 37.5044C206.101 37.5044 205.29 37.511 204.475 37.5242C204.322 37.5267 204.192 37.5081 204.084 37.4685Z" fill="black"/>
<path d="M130.995 47.5193C130.798 47.3963 130.68 47.2187 130.641 46.9866C130.586 46.6612 130.638 46.3791 130.795 46.1404C130.928 45.9405 131.146 45.7877 131.448 45.682C132.021 45.4821 132.605 45.4978 133.202 45.729C133.239 45.7427 133.265 45.7749 133.27 45.8121C133.305 46.0375 133.199 46.1135 132.951 46.04C132.541 45.9186 132.171 45.8819 131.841 45.9298C131.564 45.9694 131.351 46.0987 131.202 46.3176C131.075 46.5026 131.033 46.688 131.078 46.8738C131.132 47.0968 131.301 47.2389 131.586 47.3C131.984 47.3859 132.245 47.433 132.368 47.4413C132.677 47.4628 132.93 47.5676 133.126 47.756C133.305 47.9286 133.408 48.1595 133.433 48.4485C133.47 48.8557 133.34 49.1692 133.044 49.3889C132.817 49.5574 132.493 49.6499 132.072 49.6664C131.761 49.6788 131.417 49.6627 131.04 49.6181C130.943 49.6057 130.856 49.5524 130.803 49.4694C130.721 49.3422 130.788 49.2865 131.002 49.3022C131.456 49.3352 131.908 49.3212 132.359 49.2601C132.608 49.2262 132.796 49.118 132.92 48.9355C133.01 48.8041 133.05 48.6559 133.04 48.4907C133.031 48.3106 132.964 48.1619 132.84 48.0446C132.74 47.9488 132.571 47.8786 132.333 47.834C132.084 47.7869 131.899 47.7613 131.779 47.7572C131.495 47.7473 131.234 47.668 130.995 47.5193Z" fill="black"/>
<path d="M155.281 49.4059C155.078 49.2986 154.931 49.0913 154.84 48.784C154.701 48.3206 154.648 47.8552 154.682 47.3877C154.721 46.8442 154.869 46.4147 155.126 46.0992C155.487 45.654 156.019 45.4657 156.723 45.5342C157.69 45.6292 158.22 46.1632 158.311 47.1362C158.362 47.6714 158.315 48.1984 158.171 48.7171C158.116 48.917 158.023 49.0913 157.894 49.2399C157.781 49.3696 157.62 49.4716 157.412 49.546C156.662 49.8111 155.951 49.7644 155.281 49.4059ZM155.683 49.1891C156.095 49.4113 156.551 49.4456 157.052 49.292C157.24 49.2342 157.389 49.1536 157.498 49.0504C157.636 48.9215 157.725 48.7691 157.766 48.5932C157.897 48.0398 157.903 47.4397 157.786 46.793C157.685 46.2355 157.348 45.9423 156.774 45.9133C156.568 45.9034 156.363 45.9067 156.158 45.9233C155.853 45.948 155.615 46.0608 155.444 46.2615C155.319 46.4093 155.232 46.6365 155.184 46.9429C155.142 47.2064 155.125 47.4711 155.133 47.7371C155.147 48.1302 155.166 48.3908 155.193 48.5189C155.256 48.8236 155.42 49.0471 155.683 49.1891Z" fill="black"/>
<path d="M161.101 45.9249C160.695 45.8943 160.37 45.9967 160.125 46.2321C159.933 46.4163 159.813 46.7017 159.765 47.0882C159.705 47.5706 159.727 48.0542 159.83 48.539C159.917 48.9495 160.169 49.1944 160.585 49.2737C160.878 49.3299 161.247 49.3324 161.692 49.2812C161.697 49.2803 161.778 49.263 161.935 49.2291C162.139 49.1837 162.222 49.2837 162.184 49.529C162.178 49.5661 162.148 49.5959 162.111 49.6008C161.854 49.638 161.48 49.6632 160.987 49.6764C160.103 49.6995 159.571 49.2853 159.393 48.4337C159.229 47.6532 159.277 46.9445 159.539 46.3077C159.607 46.1442 159.762 45.993 160.004 45.8542C160.633 45.4933 161.313 45.4433 162.043 45.7043C162.084 45.718 162.116 45.7514 162.13 45.7923C162.202 46.0128 162.129 46.0917 161.909 46.0289C161.77 45.9893 161.5 45.9546 161.101 45.9249Z" fill="black"/>
<path d="M173.933 49.4581C173.586 49.2293 173.371 48.9096 173.288 48.4991C173.227 48.1985 173.196 47.8962 173.197 47.5922C173.199 47.1999 173.225 46.8976 173.274 46.6853C173.392 46.1856 173.708 45.8432 174.221 45.6582C174.739 45.4724 175.279 45.4773 175.841 45.6731C175.929 45.7037 175.987 45.7474 176.015 45.8044C176.053 45.8829 176.037 45.9535 175.966 46.0163C175.939 46.0398 175.898 46.0473 175.857 46.0349C175.393 45.8978 174.961 45.8651 174.561 45.937C174.186 46.0055 173.93 46.1926 173.793 46.4982C173.714 46.6758 173.657 46.9612 173.621 47.3543C173.573 47.878 173.649 48.3711 173.849 48.8337C173.943 49.0501 174.124 49.1859 174.393 49.2413C174.785 49.3214 175.21 49.328 175.668 49.2611C175.722 49.2537 175.762 49.2066 175.762 49.1521C175.762 48.8167 175.762 48.521 175.762 48.265C175.762 48.2584 175.767 48.1886 175.778 48.0556C175.796 47.8185 175.667 47.7293 175.39 47.788C175.221 47.8235 175.037 47.8074 174.838 47.7397C174.792 47.7236 174.76 47.6926 174.757 47.6604C174.753 47.6125 174.797 47.584 174.888 47.5749C175.24 47.5402 175.653 47.5307 176.127 47.5464C176.199 47.5489 176.257 47.6083 176.257 47.6814V49.3553C176.257 49.5171 176.177 49.6059 176.016 49.6216C175.618 49.6604 175.172 49.6803 174.678 49.6811C174.406 49.6819 174.158 49.6076 173.933 49.4581Z" fill="black"/>
<path d="M178.021 49.4665C177.668 49.1832 177.457 48.831 177.389 48.4097C177.291 47.8043 177.318 47.205 177.472 46.612C177.589 46.1585 177.867 45.8529 178.307 45.6952C178.902 45.4812 179.458 45.4767 179.975 45.6815C180.473 45.879 180.772 46.261 180.873 46.8276C180.936 47.1852 180.963 47.5181 180.953 47.8262C180.94 48.2358 180.887 48.558 180.795 48.7925C180.706 49.0156 180.568 49.2039 180.378 49.3575C180.221 49.4855 180.014 49.5752 179.756 49.6264C179.277 49.7214 178.808 49.7201 178.35 49.6226C178.228 49.597 178.118 49.545 178.021 49.4665ZM178.356 49.189C178.561 49.2997 178.791 49.3583 179.045 49.3649C179.315 49.3724 179.547 49.3505 179.74 49.2993C180.05 49.2167 180.262 49.0226 180.377 48.717C180.508 48.3684 180.561 47.9641 180.535 47.504C180.506 46.9977 180.436 46.6351 180.325 46.4162C180.167 46.1049 179.892 45.9318 179.5 45.8971C179.253 45.8756 179.032 45.8732 178.838 45.8897C178.59 45.912 178.38 46.0016 178.21 46.1585C178.024 46.3295 177.897 46.6017 177.831 46.975C177.749 47.4442 177.753 47.9154 177.846 48.3887C177.882 48.5761 177.935 48.7273 178.005 48.8421C178.098 48.9974 178.215 49.113 178.356 49.189Z" fill="black"/>
<path d="M191.969 45.9704C192.318 45.6821 192.705 45.5343 193.13 45.5269C193.49 45.5202 193.827 45.5814 194.141 45.7102C194.511 45.863 194.761 46.1253 194.891 46.497C194.997 46.7984 195.048 47.2077 195.045 47.7247C195.043 48.1534 194.962 48.5643 194.803 48.9575C194.716 49.1739 194.561 49.3494 194.339 49.4841C194.117 49.6179 193.832 49.6889 193.481 49.6972C193.116 49.7054 192.826 49.6889 192.612 49.6476C192.27 49.5815 191.996 49.413 191.792 49.1421C191.637 48.9381 191.537 48.6527 191.492 48.286C191.421 47.7103 191.443 47.1519 191.559 46.6109C191.611 46.3648 191.748 46.1513 191.969 45.9704ZM192.323 49.126C192.579 49.2805 192.849 49.3622 193.132 49.3713C193.436 49.3812 193.705 49.3387 193.94 49.2437C194.271 49.1091 194.479 48.8406 194.563 48.4384C194.694 47.8156 194.665 47.185 194.476 46.5465C194.408 46.3144 194.279 46.1525 194.091 46.0608C193.814 45.9279 193.497 45.8643 193.138 45.87C192.77 45.8758 192.474 45.9906 192.25 46.2145C192.072 46.392 191.953 46.6601 191.893 47.0185C191.791 47.624 191.842 48.2129 192.046 48.7853C192.098 48.9323 192.19 49.0459 192.323 49.126Z" fill="black"/>
<path d="M184.583 49.4691C184.454 49.3791 184.344 49.2725 184.252 49.1495C184.174 49.0437 184.111 48.9079 184.063 48.7418C183.898 48.1728 183.864 47.5425 183.962 46.8512C184.019 46.4514 184.171 46.1433 184.42 45.9269C184.627 45.7469 184.925 45.6333 185.314 45.5862C185.755 45.5334 186.211 45.5726 186.682 45.7039C186.777 45.73 186.813 45.8452 186.75 45.922C186.653 46.0393 186.531 46.0624 186.386 45.9914C186.303 45.9509 186.131 45.9294 185.87 45.9269C185.591 45.9236 185.419 45.9249 185.353 45.9307C184.991 45.9612 184.721 46.1165 184.542 46.3965C184.423 46.5865 184.347 46.864 184.316 47.2291C184.273 47.7271 184.313 48.2025 184.435 48.6551C184.533 49.021 184.781 49.2275 185.178 49.2746C185.57 49.3208 185.991 49.3175 186.44 49.2647C186.495 49.2585 186.537 49.2139 186.536 49.1618L186.52 48.0183C186.518 47.8498 186.426 47.7713 186.243 47.7829C185.991 47.7994 185.761 47.7936 185.552 47.7655C185.5 47.7589 185.46 47.7441 185.432 47.7209C185.379 47.6772 185.388 47.6334 185.459 47.5896C185.488 47.5723 185.525 47.562 185.571 47.5586C185.87 47.538 186.171 47.531 186.473 47.5376C186.483 47.5376 186.549 47.5339 186.671 47.5264C186.852 47.5149 186.937 47.5995 186.926 47.7804C186.919 47.9084 186.915 47.9753 186.915 47.9811C186.926 48.485 186.914 48.9892 186.881 49.4939C186.878 49.5583 186.827 49.6103 186.762 49.6178C186.193 49.683 185.636 49.6942 185.094 49.6512C184.907 49.6372 184.737 49.5765 184.583 49.4691Z" fill="black"/>
<path d="M139.95 48.4143L138.253 48.4081C138.18 48.4081 138.114 48.4552 138.089 48.5246C137.983 48.8153 137.876 49.1193 137.766 49.4365C137.732 49.5372 137.688 49.6033 137.633 49.6347C137.555 49.6801 137.476 49.6681 137.398 49.5988C137.37 49.5752 137.362 49.5343 137.374 49.4947C137.76 48.3623 138.182 47.2439 138.64 46.1396C138.642 46.1338 138.663 46.0702 138.704 45.9488C138.775 45.7349 138.925 45.6391 139.151 45.6614C139.163 45.6622 139.246 45.6638 139.4 45.6663C139.505 45.668 139.567 45.718 139.587 45.8162C139.614 45.9542 139.628 46.0231 139.628 46.0231C140.028 47.158 140.449 48.2846 140.893 49.403C140.91 49.4439 140.913 49.486 140.903 49.5207C140.861 49.671 140.772 49.7082 140.638 49.6322C140.576 49.5975 140.526 49.536 140.489 49.4476C140.35 49.1164 140.2 48.791 140.038 48.4713C140.021 48.4366 139.987 48.4156 139.95 48.4143ZM138.481 48.0439L139.842 48.029C139.895 48.029 139.933 47.9745 139.913 47.9237C139.676 47.329 139.476 46.7463 139.314 46.1755C139.276 46.0401 139.202 45.9934 139.09 46.0355C139.055 46.0479 139.027 46.0789 139.011 46.1198L138.346 47.8518C138.31 47.9448 138.38 48.0439 138.481 48.0439Z" fill="black"/>
<path d="M143.038 47.914L142.39 47.9127C142.346 47.9115 142.31 47.9487 142.31 47.9933L142.304 49.4837C142.303 49.5271 142.288 49.5655 142.262 49.5928C142.17 49.6869 142.078 49.6865 141.986 49.5915C141.961 49.5667 141.946 49.5271 141.946 49.4825C141.938 48.3749 141.935 47.2668 141.939 46.1584C141.939 46.1493 141.933 46.0795 141.923 45.949C141.907 45.7466 141.999 45.6521 142.199 45.6653C142.341 45.6744 142.416 45.6789 142.423 45.6789C143.284 45.6599 143.804 45.6607 143.983 45.6814C144.393 45.7285 144.653 45.98 144.765 46.4359C144.956 47.2156 144.658 47.6939 143.873 47.8706C143.788 47.8896 143.775 47.9301 143.836 47.992C144.306 48.481 144.691 49.0014 144.989 49.5531C145.009 49.5915 144.991 49.6398 144.951 49.6547C144.835 49.6976 144.729 49.6923 144.633 49.6386C144.576 49.6072 144.511 49.5337 144.44 49.4181C144.184 49.0042 143.872 48.5789 143.504 48.1419C143.377 47.9908 143.222 47.9148 143.038 47.914ZM143.553 47.572C143.991 47.6108 144.244 47.4035 144.314 46.9501C144.41 46.3273 144.155 46.0279 143.551 46.0518C143.21 46.065 142.835 46.0642 142.424 46.0493C142.362 46.0469 142.31 46.0977 142.31 46.1596V47.4023C142.31 47.4791 142.374 47.541 142.45 47.5398C142.709 47.5365 142.965 47.5377 143.217 47.5435C143.226 47.5435 143.337 47.553 143.553 47.572Z" fill="black"/>
<path d="M162.812 49.6258C162.779 49.6134 162.763 49.5775 162.774 49.544C163.216 48.3133 163.668 47.1206 164.128 45.9659C164.234 45.7008 164.453 45.5992 164.787 45.6612C164.897 45.6822 164.989 45.7615 165.024 45.8693C165.396 47.0182 165.818 48.168 166.289 49.3185C166.332 49.4234 166.343 49.5052 166.323 49.5639C166.29 49.6621 166.201 49.689 166.056 49.6444C166.014 49.6308 165.981 49.6035 165.968 49.5701L165.576 48.6024C165.529 48.4872 165.43 48.4104 165.326 48.4116L163.613 48.4277C163.575 48.429 163.543 48.4525 163.53 48.4885C163.411 48.8081 163.299 49.1294 163.191 49.4524C163.129 49.6382 163.003 49.696 162.812 49.6258ZM164.45 46.1679C164.17 46.718 163.943 47.2966 163.769 47.9037C163.749 47.9706 163.798 48.0362 163.868 48.0362H165.29C165.34 48.0362 165.373 47.9854 165.353 47.9396C165.103 47.3606 164.898 46.7799 164.739 46.1976C164.668 45.9383 164.571 45.9284 164.45 46.1679Z" fill="black"/>
<path d="M198.645 47.505C199.033 47.7007 199.221 48.053 199.209 48.5618C199.201 48.9376 199.085 49.2234 198.861 49.4191C198.712 49.5496 198.471 49.6219 198.139 49.636C197.618 49.6583 197.058 49.6595 196.459 49.6397C196.387 49.6372 196.329 49.5777 196.329 49.5059V45.7977C196.329 45.732 196.383 45.6775 196.449 45.6787C196.925 45.6887 197.381 45.6854 197.818 45.6688C198.22 45.654 198.484 45.6738 198.611 45.7283C198.885 45.8472 199.043 46.1 199.085 46.4865C199.135 46.9408 198.988 47.2617 198.644 47.4492C198.61 47.4682 198.611 47.4868 198.645 47.505ZM197.865 47.3179C198.615 47.3666 198.864 46.9986 198.612 46.214C198.581 46.1173 198.494 46.0504 198.398 46.0517L196.87 46.0616C196.778 46.0628 196.705 46.1372 196.705 46.2288L196.702 47.1866C196.7 47.2448 196.749 47.2931 196.808 47.2919C197.029 47.2886 197.261 47.2894 197.502 47.2943C197.509 47.2952 197.63 47.303 197.865 47.3179ZM197.808 49.2816C198.137 49.2924 198.387 49.2729 198.555 49.2234C198.592 49.2135 198.624 49.1875 198.644 49.1515C198.892 48.7129 198.884 48.3045 198.619 47.9262C198.535 47.8064 198.428 47.7263 198.297 47.6858C198.163 47.6454 198.023 47.6301 197.877 47.64C197.527 47.664 197.164 47.6714 196.789 47.6623C196.74 47.6611 196.7 47.7007 196.7 47.7503V49.1763C196.7 49.2321 196.746 49.2779 196.802 49.2767C197.186 49.2709 197.521 49.2725 197.808 49.2816Z" fill="black"/>
<path d="M200.134 49.6247C200.056 49.5913 200.018 49.5033 200.046 49.424C200.442 48.3098 200.861 47.2108 201.303 46.1272C201.306 46.1205 201.328 46.0487 201.368 45.9116C201.446 45.6539 201.669 45.589 202.037 45.7171C202.138 45.7517 202.218 45.8323 202.258 45.9376L203.602 49.4959C203.627 49.5603 203.594 49.6309 203.529 49.6507C203.394 49.6928 203.291 49.647 203.221 49.5132C203.046 49.1812 202.893 48.8541 202.764 48.532C202.734 48.4576 202.664 48.4093 202.588 48.4105L200.905 48.4266C200.868 48.4279 200.833 48.4502 200.816 48.4861C200.664 48.8099 200.538 49.144 200.438 49.4884C200.393 49.6454 200.291 49.6908 200.134 49.6247ZM201.683 46.1296L200.945 47.9633C200.931 47.9967 200.956 48.0339 200.993 48.0339L202.451 48.0277C202.522 48.0277 202.57 47.9571 202.547 47.8902C202.414 47.5127 202.294 47.1328 202.187 46.7503C202.116 46.4943 202.018 46.2795 201.894 46.1061C201.808 45.9863 201.738 45.9942 201.683 46.1296Z" fill="black"/>
<path d="M135.426 46.0864L134.358 46.017C134.315 46.0133 134.277 45.9984 134.248 45.9724C134.029 45.7717 134.094 45.6722 134.443 45.6738C135.31 45.6788 136.177 45.6792 137.045 45.6751C137.382 45.6734 137.447 45.7725 137.238 45.9724C137.209 45.9997 137.172 46.0158 137.13 46.0183C136.703 46.0513 136.437 46.0629 136.332 46.053C136.08 46.029 135.963 46.119 135.982 46.323C135.989 46.4106 135.993 46.4581 135.993 46.4655C136.004 47.4616 135.992 48.4573 135.956 49.4526C135.954 49.496 135.938 49.5344 135.911 49.5604C135.796 49.6736 135.676 49.6818 135.55 49.5852C135.521 49.5629 135.503 49.5257 135.503 49.4824L135.488 46.1521C135.488 46.1174 135.461 46.0889 135.426 46.0864Z" fill="black"/>
<path d="M145.552 45.9777C145.499 45.8843 145.509 45.8013 145.584 45.7286C145.61 45.7039 145.649 45.689 145.693 45.689L148.501 45.6816C148.563 45.6816 148.618 45.7249 148.632 45.7856C148.676 45.9781 148.603 46.0718 148.412 46.0669C148.082 46.0578 147.727 46.0532 147.348 46.0532C147.303 46.0532 147.266 46.0904 147.266 46.135C147.266 47.2162 147.266 48.2937 147.266 49.3674C147.266 49.6136 147.164 49.7011 146.96 49.6301C146.926 49.6177 146.902 49.5842 146.902 49.5446L146.895 46.2193C146.895 46.1276 146.818 46.052 146.721 46.0508L145.648 46.0347C145.607 46.0334 145.57 46.0124 145.552 45.9777Z" fill="black"/>
<path d="M152.074 49.2667L153.824 49.2815C153.866 49.2815 153.903 49.3001 153.924 49.3311C153.992 49.431 153.989 49.514 153.917 49.5801C153.874 49.6189 153.807 49.6383 153.716 49.6383C153.012 49.6375 152.318 49.6301 151.633 49.616C151.565 49.6136 151.511 49.559 151.509 49.4921L151.477 45.836C151.477 45.7951 151.496 45.7579 151.528 45.7356C151.662 45.6415 151.794 45.6415 151.926 45.7356C151.955 45.7567 151.973 45.7939 151.973 45.836L152.01 49.2047C152.011 49.2394 152.04 49.2667 152.074 49.2667Z" fill="black"/>
<path d="M167.976 49.2668C168.523 49.2759 169.064 49.278 169.598 49.273C169.804 49.2714 169.873 49.3663 169.806 49.558C169.794 49.5939 169.76 49.6187 169.722 49.6187L167.422 49.6261C167.388 49.6261 167.361 49.5964 167.359 49.5605C167.334 48.4 167.326 47.2399 167.336 46.0802C167.336 46.0712 167.332 46.0121 167.323 45.9031C167.308 45.7288 167.4 45.6569 167.597 45.6875C167.662 45.6974 167.709 45.7532 167.709 45.8176L167.716 49.0029C167.716 49.1756 167.803 49.2635 167.976 49.2668Z" fill="black"/>
<path d="M188.747 49.2666L190.653 49.2814C190.692 49.2814 190.727 49.3037 190.739 49.3372C190.774 49.4305 190.757 49.5057 190.689 49.5627C190.646 49.5974 190.581 49.6143 190.494 49.6135C189.844 49.606 189.165 49.6184 188.456 49.6506C188.357 49.6543 188.275 49.5763 188.275 49.4772C188.275 48.2572 188.27 47.0641 188.259 45.8978C188.257 45.698 188.347 45.6236 188.527 45.6748C188.6 45.6959 188.649 45.7628 188.651 45.8408L188.683 49.2046C188.684 49.2393 188.713 49.2666 188.747 49.2666Z" fill="black"/>
<path d="M205.141 49.2677L206.852 49.2825C206.892 49.2825 206.928 49.3024 206.946 49.3358C207.066 49.5506 206.985 49.6567 206.705 49.6542C206.085 49.6493 205.448 49.6468 204.793 49.6468C204.702 49.6468 204.629 49.5737 204.629 49.4833V45.8098C204.629 45.7478 204.673 45.6933 204.733 45.6797C204.926 45.6351 205.021 45.7082 205.02 45.899C205.007 46.9628 205.001 48.0391 205.001 49.1277C205.001 49.2045 205.063 49.2664 205.141 49.2677Z" fill="black"/>
</svg>
