<svg width="270" height="72" viewBox="0 0 270 72" fill="none" xmlns="http://www.w3.org/2000/svg">
<path d="M84.1633 46.111C84.1505 46.1169 84.1391 46.1254 84.1297 46.1359C84.1203 46.1464 84.1131 46.1587 84.1087 46.1721C84.1042 46.1855 84.1025 46.1996 84.1038 46.2137C84.105 46.2277 84.109 46.2414 84.1157 46.2538C84.5861 47.1153 85.1138 47.8907 85.699 48.5802C86.4708 49.4892 87.3075 50.3333 88.2093 51.1125C88.3838 51.2632 88.5003 51.4096 88.5589 51.5518C88.6608 51.8001 88.6879 52.0545 88.6403 52.315C88.5946 52.5658 88.4768 52.7778 88.2871 52.9511C87.9735 53.2366 87.576 53.351 87.0946 53.2943C86.9238 53.2741 86.781 53.2186 86.6663 53.1277C85.0672 51.8586 83.6968 50.3776 82.5553 48.6845C80.1136 45.0646 78.8748 41.0568 78.8388 36.6609C78.7979 31.7677 80.1941 27.3767 83.0275 23.4877C83.6785 22.5945 84.4326 21.7428 85.2899 20.9326C85.7865 20.4628 86.2383 20.0531 86.6452 19.7035C87.8203 18.6919 89.1428 17.8371 90.6126 17.1391C93.0018 16.0037 95.5414 15.2944 98.2314 15.0113C98.7177 14.9601 99.0819 15.0824 99.3242 15.3783C99.5377 15.6389 99.6173 15.9668 99.563 16.3622C99.5014 16.8173 99.2634 17.144 98.8492 17.3423C98.6759 17.4253 98.3818 17.4851 97.9669 17.5217C96.981 17.6095 96.0262 17.7813 95.1024 18.0369C92.6333 18.7197 90.4051 19.8594 88.418 21.456C87.9524 21.8307 87.4997 22.2394 87.0598 22.6824C85.0592 24.6964 83.537 27.0261 82.4931 29.6716C82.2686 30.2415 82.0785 30.8205 81.9229 31.4086C80.8046 35.6313 81.1078 39.7831 82.8326 43.8642C82.8361 43.8726 82.8411 43.8802 82.8476 43.8866C82.854 43.893 82.8616 43.8979 82.87 43.9012C82.8783 43.9045 82.8872 43.906 82.896 43.9056C82.9049 43.9052 82.9135 43.903 82.9214 43.899L84.6749 43.0214C84.6862 43.0156 84.6951 43.0057 84.6998 42.9936C84.7045 42.9815 84.7047 42.968 84.7005 42.9555C83.8616 40.5107 83.4717 38.0254 83.5309 35.4995C83.6383 30.9059 85.386 27.11 88.774 24.1119C89.0058 23.9069 89.2001 23.7696 89.3569 23.7001C89.5778 23.6018 89.8151 23.55 90.0689 23.5445C90.2941 23.5396 90.4924 23.593 90.6638 23.7046C90.8133 23.8023 90.9356 23.9536 91.0308 24.1586C91.2211 24.5655 91.2276 24.96 91.05 25.3419C90.9707 25.5133 90.7633 25.7638 90.4277 26.0933C88.8341 27.6582 87.6544 29.4419 86.8887 31.4443C85.9912 33.7902 85.749 36.2075 86.162 38.6962C86.4293 40.3057 86.9311 41.8292 87.6675 43.2666C87.9512 43.8218 88.2654 44.3441 88.6101 44.8334C89.9396 46.7236 91.6403 48.1616 93.7123 49.1476C95.7366 50.1103 97.916 50.646 100.25 50.7546C101.41 50.8083 102.496 50.6939 103.509 50.4114C104.976 50.0027 106.387 49.4514 107.743 48.7577C108.088 48.5814 108.453 48.5271 108.837 48.5948C109.129 48.6467 109.345 48.8032 109.483 49.0643C109.807 49.6781 109.743 50.2357 109.293 50.7372C109.147 50.9001 108.881 51.0917 108.494 51.312C107.853 51.6768 107.19 51.9831 106.506 52.2308C106.488 52.2374 106.473 52.2509 106.465 52.2686C106.457 52.2862 106.455 52.3065 106.462 52.3251L107.087 54.1262C107.09 54.1368 107.096 54.1467 107.104 54.1551C107.111 54.1634 107.121 54.1702 107.131 54.1749C107.141 54.1796 107.152 54.1822 107.164 54.1825C107.175 54.1827 107.186 54.1807 107.197 54.1765C110.235 52.9459 112.803 51.1088 114.901 48.6653C115.307 48.1936 115.678 47.7098 116.014 47.2138C117.476 45.0643 118.399 42.7517 118.783 40.2758C119.126 38.058 119.137 35.8381 118.816 33.616C118.631 32.3421 118.364 31.0715 118.017 29.8043C118.015 29.7993 118.013 29.7947 118.01 29.7907C118.006 29.7868 118.002 29.7836 117.997 29.7814C117.993 29.7793 117.987 29.7781 117.982 29.7781C117.977 29.7781 117.972 29.7793 117.967 29.7814L116.124 30.6701C116.113 30.6757 116.104 30.6852 116.099 30.6968C116.094 30.7085 116.093 30.7214 116.098 30.7332C116.795 32.8821 117.095 35.041 116.998 37.21C116.801 41.6242 115.121 45.3612 111.959 48.4209C111.852 48.5246 111.735 48.5893 111.61 48.6149C111.074 48.7217 110.671 48.5649 110.401 48.1445C110.282 47.9615 110.207 47.7544 110.176 47.5231C110.148 47.3102 110.152 47.0857 110.19 46.8496C110.197 46.8024 110.218 46.7582 110.25 46.7223C111.141 45.7358 111.929 44.697 112.613 43.6062C112.616 43.6012 112.618 43.5956 112.619 43.5898C112.619 43.584 112.619 43.5781 112.617 43.5724C112.616 43.5667 112.613 43.5614 112.609 43.5568C112.605 43.5522 112.601 43.5485 112.595 43.5457L110.803 42.6324C110.784 42.6227 110.762 42.6201 110.741 42.6251C110.721 42.6302 110.702 42.6425 110.69 42.6599C109.582 44.2059 108.254 45.5015 106.705 46.5466C103.374 48.7949 99.829 49.2119 96.0689 47.7977C94.8871 47.3529 93.6976 46.719 92.5006 45.8959C92.3834 45.8154 92.3038 45.7184 92.2617 45.6049C92.1873 45.403 92.1543 45.1955 92.1629 44.9826C92.1702 44.7794 92.2294 44.5839 92.3404 44.396C92.6735 43.8292 93.1772 43.6266 93.8514 43.7883C94.0039 43.8249 94.1662 43.9085 94.3383 44.039C95.8215 45.1629 97.4718 45.838 99.2894 46.0643C99.6902 46.1144 100.122 46.129 100.583 46.1083C101.018 46.0887 101.445 46.0353 101.866 45.9481C103.293 45.6504 104.625 45.0351 105.861 44.1022C106.49 43.6275 107.042 43.1382 107.518 42.6342C107.933 42.1931 108.292 41.7014 108.593 41.159C109.812 38.9692 110.121 36.6001 109.521 34.0517C109.17 32.5569 108.552 31.2512 107.669 30.1347C106.793 29.0261 105.66 28.1756 104.272 27.5832C103.141 27.1012 101.938 26.8382 100.662 26.7943C100.048 26.7729 99.4395 26.8105 98.8373 26.9069C96.8928 27.218 95.2013 28.0362 93.7626 29.3614C93.2934 29.7939 92.8764 30.2384 92.5116 30.6948C91.2279 32.3018 90.6202 34.1838 90.6885 36.3405C90.7373 37.8664 91.0247 39.3021 91.5506 40.6474C91.6745 40.9652 91.7144 41.2685 91.6705 41.5571C91.6199 41.8865 91.4167 42.1123 91.061 42.2343C90.5302 42.4167 90.0223 42.3624 89.5372 42.0714C89.4702 42.0307 89.416 41.9721 89.3807 41.9021C88.7676 40.6898 88.3658 39.414 88.1754 38.0748C88.0894 37.4726 88.0516 36.8643 88.0619 36.2499C88.1016 33.9425 88.7611 31.7897 90.0406 29.7915C91.3084 27.8111 92.9749 26.3459 95.0402 25.3959C95.5795 25.1476 96.1521 24.9374 96.758 24.7653C98.2125 24.3523 99.7046 24.1821 101.234 24.2547C101.953 24.2894 102.658 24.4069 103.349 24.607C104.588 24.9658 105.753 25.4896 106.844 26.1784C108.804 27.4145 110.299 29.0917 111.329 31.21C111.911 32.404 112.285 33.6353 112.452 34.9037C112.536 35.5364 112.583 36.1444 112.592 36.7277C112.612 37.932 112.419 39.1187 112.013 40.2877C112.009 40.3008 112.009 40.315 112.014 40.3277C112.02 40.3405 112.029 40.351 112.041 40.3573L113.874 41.288C113.885 41.2936 113.897 41.2968 113.909 41.2972C113.922 41.2977 113.934 41.2955 113.945 41.2907C113.957 41.2859 113.967 41.2786 113.975 41.2695C113.984 41.2603 113.99 41.2495 113.994 41.2377C114.457 39.7301 114.69 38.1892 114.693 36.6151C114.698 34.2271 114.15 31.98 113.047 29.8739C111.86 27.6042 110.254 25.7958 108.23 24.4487C106.446 23.262 104.419 22.5534 102.148 22.3227C99.8312 22.0872 97.5649 22.3081 95.3495 22.9853C95.344 22.9871 95.1677 23.053 94.8206 23.183C94.5887 23.2702 94.3624 23.3166 94.1415 23.3221C93.6937 23.3337 93.3581 23.1382 93.1348 22.7355C92.8413 22.2071 92.9042 21.741 93.3233 21.3371C93.5777 21.0918 93.8987 20.8953 94.2861 20.7477C96.8596 19.766 99.5035 19.3963 102.218 19.6385C104.615 19.852 106.82 20.6013 108.834 21.8862C109.312 22.1912 109.811 22.5421 110.332 22.9386C112.281 24.4237 113.897 26.2333 115.18 28.3675C115.183 28.3732 115.189 28.3774 115.195 28.3792C115.202 28.3811 115.209 28.3805 115.215 28.3776L117.047 27.4816C117.055 27.4773 117.063 27.4714 117.069 27.4641C117.075 27.4568 117.08 27.4484 117.083 27.4392C117.086 27.4301 117.087 27.4205 117.086 27.4109C117.085 27.4014 117.082 27.3921 117.078 27.3837C115.598 24.7168 113.614 22.5207 111.127 20.7953C109.121 19.4036 106.922 18.4479 104.532 17.928C104.203 17.8566 103.836 17.8014 103.431 17.7624C103.183 17.7386 102.929 17.6733 102.668 17.5665C102.169 17.3628 101.88 16.9936 101.802 16.4592C101.716 15.8649 101.931 15.468 102.447 15.2685C102.677 15.1794 102.932 15.1376 103.211 15.1431C103.301 15.1444 103.555 15.1688 103.971 15.2163C104.661 15.2957 105.274 15.4046 105.81 15.5431C109.806 16.576 113.19 18.6141 115.963 21.6574C117.725 23.5915 119.135 25.747 120.193 28.124C120.449 28.6988 120.672 29.2668 120.863 29.8281C121.873 32.8049 122.171 35.8375 121.757 38.9259C121.338 42.0522 120.346 44.9817 118.783 47.7144C118.436 48.3215 118.046 48.8999 117.613 49.4496C115.901 51.6247 113.871 53.4446 111.523 54.9095C109.228 56.3409 106.756 57.2829 104.107 57.7356C103.511 57.8375 102.906 57.9089 102.29 57.9498C99.8187 58.1163 97.3617 57.8686 94.9194 57.2066C93.4789 56.8162 92.1244 56.3445 90.856 55.7918C90.6907 55.7192 90.5702 55.6258 90.4945 55.5117C90.3078 55.2286 90.2556 54.9071 90.338 54.5471C90.4881 53.8925 90.9018 53.5587 91.579 53.5459C91.7431 53.5429 91.9264 53.5758 92.129 53.6448C92.2437 53.6838 92.4097 53.7631 92.6269 53.8827C93.0936 54.1402 93.5088 54.3312 93.8724 54.4556C95.8291 55.1255 97.9416 55.4495 100.21 55.4275C101.692 55.4135 103.155 55.2756 104.599 55.0139C104.607 55.0124 104.615 55.0092 104.622 55.0044C104.629 54.9996 104.634 54.9934 104.638 54.9861C104.642 54.9789 104.645 54.9709 104.645 54.9625C104.646 54.9542 104.645 54.9458 104.642 54.9379L103.957 53.0426C103.952 53.0303 103.944 53.0199 103.932 53.0134C103.921 53.0069 103.907 53.0046 103.895 53.0069C102.573 53.2619 101.251 53.3717 99.9291 53.3364C96.8992 53.2552 94.1085 52.4495 91.557 50.9194C91.0348 50.6058 90.532 50.2607 90.0488 49.8843C88.4259 48.6183 87.0543 47.1049 85.9342 45.3441C85.9262 45.3317 85.914 45.3226 85.8999 45.3186C85.8857 45.3145 85.8706 45.3158 85.8573 45.3221L84.1633 46.111Z" fill="#070707"/>
<path d="M138.225 34.5238C138.224 34.4805 138.213 34.4774 138.191 34.5146L134.977 39.9023C134.97 39.9134 134.961 39.9227 134.949 39.9291C134.938 39.9355 134.925 39.9389 134.912 39.9389L133.82 39.927C133.806 39.927 133.793 39.9235 133.78 39.9167C133.768 39.91 133.758 39.9003 133.751 39.8886L130.59 34.6949C130.543 34.6186 130.52 34.625 130.52 34.7141V41.0481C130.52 41.0677 130.512 41.0866 130.498 41.1005C130.484 41.1144 130.465 41.1222 130.446 41.1222H128.174C128.164 41.1222 128.154 41.1202 128.144 41.1162C128.134 41.1122 128.125 41.1063 128.118 41.0989C128.111 41.0915 128.105 41.0827 128.101 41.0731C128.097 41.0634 128.095 41.0531 128.095 41.0426V30.0092C128.095 30.0024 128.096 29.9956 128.099 29.9894C128.101 29.9831 128.105 29.9774 128.11 29.9726C128.114 29.9678 128.12 29.9641 128.126 29.9616C128.132 29.9591 128.138 29.9578 128.145 29.9579L130.183 29.9726C130.197 29.9729 130.21 29.9768 130.222 29.984C130.234 29.9913 130.245 30.0015 130.252 30.0138L134.384 36.8465C134.386 36.8509 134.39 36.8546 134.395 36.8572C134.399 36.8597 134.404 36.861 134.409 36.861C134.415 36.861 134.42 36.8597 134.425 36.8572C134.429 36.8546 134.433 36.8509 134.436 36.8465L138.503 29.9982C138.511 29.9857 138.521 29.9753 138.534 29.9681C138.546 29.9608 138.56 29.957 138.574 29.957L140.603 29.9625C140.61 29.9625 140.616 29.9637 140.621 29.966C140.627 29.9683 140.632 29.9717 140.636 29.9759C140.641 29.9802 140.644 29.9852 140.647 29.9908C140.649 29.9963 140.65 30.0023 140.65 30.0083L140.678 41.0408C140.678 41.0513 140.676 41.0617 140.672 41.0714C140.668 41.0812 140.663 41.09 140.655 41.0974C140.648 41.1048 140.639 41.1106 140.63 41.1146C140.62 41.1185 140.61 41.1205 140.6 41.1204L138.315 41.1057C138.303 41.1057 138.292 41.101 138.283 41.0924C138.275 41.0838 138.27 41.0722 138.27 41.06L138.225 34.5238Z" fill="#070707"/>
<path d="M150.717 38.805C150.706 38.7796 150.689 38.7579 150.666 38.7427C150.643 38.7276 150.617 38.7196 150.59 38.7199L145.556 38.7254C145.543 38.7254 145.53 38.7294 145.519 38.7369C145.507 38.7444 145.498 38.755 145.493 38.7675L144.522 41.0627C144.517 41.0755 144.508 41.0864 144.497 41.0942C144.485 41.102 144.472 41.1063 144.459 41.1067L141.953 41.1213C141.942 41.1215 141.931 41.1187 141.921 41.1133C141.911 41.108 141.902 41.1001 141.896 41.0904C141.89 41.0808 141.886 41.0697 141.885 41.0581C141.884 41.0466 141.886 41.0349 141.891 41.0243L146.805 30.0074C146.812 29.9923 146.823 29.9796 146.837 29.9707C146.851 29.9617 146.867 29.957 146.883 29.957H149.311C149.333 29.957 149.354 29.9632 149.372 29.9749C149.39 29.9866 149.405 30.0032 149.414 30.0229L154.352 41.0691C154.354 41.0743 154.355 41.08 154.355 41.0856C154.354 41.0912 154.352 41.0967 154.349 41.1014C154.346 41.1061 154.342 41.11 154.337 41.1127C154.332 41.1154 154.326 41.1168 154.321 41.1167L151.724 41.1222C151.707 41.1222 151.69 41.1172 151.677 41.1079C151.663 41.0986 151.652 41.0855 151.646 41.0701L150.717 38.805ZM149.803 36.7586C149.808 36.7586 149.814 36.7571 149.818 36.7545C149.823 36.7519 149.827 36.7482 149.831 36.7437C149.834 36.7392 149.835 36.734 149.836 36.7286C149.837 36.7233 149.836 36.7179 149.834 36.7129L148.115 32.5644C148.1 32.5271 148.084 32.5271 148.069 32.5644L146.351 36.7083C146.349 36.715 146.348 36.7223 146.348 36.7295C146.349 36.7367 146.352 36.7435 146.356 36.7495C146.36 36.7555 146.365 36.7604 146.372 36.7637C146.378 36.7671 146.385 36.7688 146.393 36.7687L149.803 36.7586Z" fill="#070707"/>
<path d="M165.64 32.0958C166.261 32.8633 166.627 33.7748 166.738 34.8303C166.786 35.2861 166.796 35.6906 166.767 36.0439C166.613 37.9182 165.763 39.3117 164.216 40.2244C163.205 40.8205 162.048 41.1191 160.744 41.1204C159.027 41.1216 157.323 41.1222 155.63 41.1222C155.609 41.1222 155.588 41.1138 155.573 41.0989C155.558 41.0839 155.55 41.0637 155.55 41.0426V30.0092C155.55 29.9955 155.555 29.9824 155.565 29.9726C155.575 29.9628 155.588 29.9572 155.601 29.957C157.459 29.946 159.295 29.9536 161.11 29.9799C162.251 29.9964 163.303 30.3042 164.263 30.9033C164.816 31.248 165.275 31.6455 165.64 32.0958ZM162.394 32.4939C161.934 32.2517 161.445 32.1229 160.927 32.1077C160.042 32.082 159.132 32.0747 158.196 32.0857C158.18 32.0859 158.164 32.0925 158.153 32.104C158.142 32.1155 158.135 32.1309 158.135 32.147V38.9432C158.135 38.9567 158.141 38.9698 158.15 38.9794C158.16 38.989 158.173 38.9944 158.187 38.9944C158.983 38.9944 159.76 38.9944 160.515 38.9944C161.116 38.9944 161.633 38.9087 162.065 38.7372C163.225 38.276 163.902 37.4621 164.095 36.2955C164.18 35.7818 164.185 35.2928 164.111 34.8285C164.028 34.3148 163.832 33.8532 163.523 33.4438C163.227 33.0503 162.85 32.7337 162.394 32.4939Z" fill="#070707"/>
<path d="M175.861 38.7254L170.824 38.7199C170.801 38.7199 170.779 38.7267 170.76 38.7396C170.741 38.7525 170.726 38.7707 170.717 38.7922L169.77 41.0737C169.765 41.0864 169.756 41.0973 169.745 41.105C169.734 41.1127 169.721 41.1167 169.707 41.1167H167.152C167.147 41.1167 167.142 41.1154 167.137 41.1129C167.133 41.1105 167.129 41.1069 167.126 41.1025C167.123 41.0981 167.121 41.0931 167.121 41.0879C167.121 41.0827 167.121 41.0775 167.124 41.0728L172.058 30.0083C172.065 29.993 172.076 29.98 172.09 29.971C172.104 29.9619 172.12 29.957 172.137 29.957H174.582C174.598 29.957 174.614 29.9617 174.628 29.9705C174.641 29.9793 174.652 29.9917 174.658 30.0064L179.616 41.0774C179.618 41.0822 179.619 41.0876 179.618 41.0929C179.618 41.0982 179.616 41.1033 179.613 41.1077C179.61 41.1121 179.606 41.1158 179.602 41.1183C179.597 41.1209 179.592 41.1222 179.587 41.1222H176.966C176.95 41.1222 176.934 41.1171 176.92 41.1075C176.906 41.0979 176.894 41.0842 176.888 41.0682L175.926 38.7675C175.921 38.755 175.912 38.7444 175.9 38.7369C175.889 38.7294 175.875 38.7254 175.861 38.7254ZM175.061 36.7586C175.065 36.7587 175.07 36.7577 175.074 36.7556C175.077 36.7536 175.081 36.7505 175.083 36.7468C175.086 36.7431 175.087 36.7388 175.088 36.7343C175.088 36.7299 175.087 36.7253 175.086 36.7211L173.401 32.6321C173.365 32.5455 173.33 32.5451 173.294 32.6312L171.597 36.7175C171.595 36.7232 171.594 36.7294 171.594 36.7355C171.595 36.7417 171.597 36.7476 171.601 36.7528C171.604 36.7579 171.609 36.7622 171.615 36.7651C171.62 36.768 171.626 36.7696 171.633 36.7696L175.061 36.7586Z" fill="#070707"/>
<path d="M190.95 32.1805C191.514 32.9053 191.855 33.7284 191.974 34.6497C192.053 35.2543 192.051 35.8629 191.969 36.4755C191.809 37.6731 191.283 38.6942 190.39 39.5386C189.863 40.037 189.208 40.4278 188.428 40.7109C187.671 40.9855 186.824 41.1227 185.889 41.1227C184.211 41.1227 182.531 41.1227 180.85 41.1227C180.841 41.1227 180.833 41.1211 180.825 41.1179C180.818 41.1148 180.811 41.1101 180.805 41.1043C180.793 41.0924 180.786 41.0763 180.786 41.0596L180.792 30.0298C180.792 30.0111 180.799 29.9931 180.813 29.9797C180.826 29.9663 180.844 29.9587 180.863 29.9585C182.734 29.9469 184.554 29.9542 186.323 29.9804C187.523 29.9981 188.616 30.3251 189.6 30.9615C190.138 31.308 190.588 31.7144 190.95 32.1805ZM188.361 32.9996C187.738 32.4456 187.005 32.1525 186.163 32.1201C185.286 32.086 184.384 32.0747 183.455 32.0863C183.439 32.0865 183.424 32.0931 183.412 32.1045C183.401 32.116 183.395 32.1315 183.395 32.1476V38.9437C183.395 38.9573 183.4 38.9703 183.41 38.9799C183.419 38.9896 183.432 38.995 183.446 38.995C184.281 38.995 185.095 38.9943 185.889 38.9931C186.805 38.9919 187.593 38.7225 188.251 38.185C188.613 37.8903 188.891 37.5337 189.084 37.1152C189.282 36.6875 189.39 36.2366 189.408 35.7625C189.43 35.2208 189.366 34.7266 189.218 34.2799C189.056 33.7894 188.77 33.3626 188.361 32.9996Z" fill="#070707"/>
</svg>
