<svg width="270" height="72" viewBox="0 0 270 72" fill="none" xmlns="http://www.w3.org/2000/svg">
<path d="M157.131 54.6215C156.706 54.6234 156.281 54.6172 155.856 54.603C155.335 54.5868 154.919 54.5171 154.607 54.3938C153.827 54.0854 153.26 53.5417 152.904 52.7628C152.67 52.2523 152.52 51.6351 152.451 50.9112C152.382 50.1777 152.348 49.4429 152.35 48.7066C152.363 44.9114 152.37 41.0663 152.37 37.1715C152.37 37.0823 152.39 36.9983 152.428 36.9195L160.945 19.8139C161.016 19.6716 161.052 19.6802 161.052 19.8396V57.9134C161.052 57.9345 161.043 57.9548 161.028 57.9697C161.013 57.9847 160.993 57.9931 160.972 57.9931C148.317 57.9931 135.67 57.9931 123.032 57.9931C122.529 57.9931 122.125 57.9338 121.819 57.8152C121.341 57.6292 120.925 57.3545 120.57 56.9911C120.257 56.6723 120.007 56.2558 119.82 55.7415C119.603 55.1485 119.473 54.537 119.428 53.907C119.425 53.8567 119.423 53.2362 119.423 52.0455C119.423 47.6534 119.423 43.2201 119.423 38.7455C119.423 38.7321 119.426 38.719 119.432 38.7071C119.438 38.6951 119.447 38.6848 119.458 38.6769C119.469 38.669 119.481 38.6638 119.494 38.6616C119.507 38.6594 119.521 38.6604 119.534 38.6644C121.836 39.3959 124.148 39.7114 126.468 39.6108C128.712 39.5141 130.749 38.9258 132.579 37.8461C133.711 37.1781 134.662 36.3019 135.431 35.2174C135.946 34.4915 136.375 33.649 136.718 32.6898C137.331 30.9743 137.588 29.1849 137.489 27.3214C137.4 25.6486 137.051 24.0328 136.442 22.4739C136.058 21.4938 135.515 20.6124 134.813 19.8296C133.309 18.1531 131.464 17.0249 129.276 16.4452C126.719 15.7668 124.117 15.4513 121.472 15.4988C120.879 15.5092 120.581 15.5144 120.577 15.5144C116.808 15.5514 112.997 15.5619 109.143 15.5457C109.123 15.5454 109.104 15.5374 109.09 15.5235C109.077 15.5097 109.069 15.4911 109.069 15.4717V13.0907C109.069 13.0718 109.076 13.0537 109.09 13.0404C109.103 13.027 109.121 13.0195 109.14 13.0195C116.376 13.0195 123.611 13.0195 130.845 13.0195C131.504 13.0195 132.041 13.0783 132.458 13.196C133.593 13.5176 134.55 14.1059 135.329 14.9608C135.68 15.346 136.09 15.9917 136.56 16.8978C140.141 23.8127 143.707 30.7362 147.255 37.6682C147.379 37.9092 147.424 38.1373 147.389 38.3527C147.361 38.5216 147.362 38.8143 147.39 39.2308C147.412 39.5715 147.422 39.8637 147.419 40.1075C147.36 44.6808 147.35 47.4641 147.389 48.4575C147.411 49.0088 147.419 49.4832 147.414 49.8807C147.408 50.5373 147.388 51.0113 147.356 51.3025C147.267 52.1119 146.996 52.8031 146.543 53.3762C145.885 54.2111 145.016 54.6248 143.938 54.6172C143.522 54.6144 143.105 54.6129 142.685 54.6129C142.675 54.6129 142.665 54.615 142.656 54.619C142.647 54.623 142.638 54.6289 142.631 54.6363C142.624 54.6438 142.619 54.6526 142.615 54.6622C142.611 54.6719 142.61 54.6822 142.61 54.6926L142.62 55.706C142.62 55.7166 142.622 55.7272 142.626 55.737C142.63 55.7468 142.636 55.7558 142.643 55.7633C142.65 55.7709 142.659 55.7768 142.669 55.7809C142.679 55.785 142.689 55.7871 142.699 55.7871H157.155C157.169 55.7871 157.183 55.7815 157.193 55.7717C157.203 55.7618 157.209 55.7484 157.209 55.7344L157.202 54.6926C157.202 54.6833 157.2 54.674 157.197 54.6654C157.193 54.6568 157.188 54.6489 157.181 54.6423C157.174 54.6357 157.167 54.6305 157.158 54.6269C157.149 54.6233 157.14 54.6215 157.131 54.6215Z" fill="black"/>
<path d="M143.334 14.0248C143.427 13.9261 143.531 13.8398 143.645 13.7658C144.442 13.2506 145.37 12.9953 146.428 13.0001C149.536 13.0133 152.643 13.02 155.75 13.02C156.2 13.02 156.687 13.0907 157.212 13.232C157.782 13.3867 158.221 13.5935 158.528 13.8526C158.833 14.1078 159.067 14.42 159.232 14.789C159.37 15.0974 159.451 15.4693 159.475 15.9048C159.514 16.6307 159.414 17.3447 159.176 18.0468C158.986 18.6056 158.76 19.1493 158.497 19.6778C156.106 24.4844 153.696 29.3196 151.266 34.1832C151.235 34.2439 151.205 34.2439 151.175 34.1832C148.41 28.6848 145.692 23.205 143.021 17.7436C142.629 16.9428 142.507 16.1136 142.654 15.2559C142.699 14.9902 142.778 14.7677 142.889 14.5884C143 14.409 143.148 14.2212 143.334 14.0248Z" fill="black"/>
<path d="M112.594 17.5375C113.123 17.9692 113.475 18.5181 113.65 19.1842C113.849 19.9394 113.96 20.7075 113.983 21.4884C114.018 22.6507 114.035 23.8129 114.033 24.9752C114.021 34.3333 114.015 43.691 114.015 53.0481C114.015 53.681 113.959 54.2806 113.847 54.8471C113.713 55.5245 113.5 56.0791 113.208 56.5108C112.844 57.0478 112.362 57.4582 111.762 57.7419C111.448 57.8899 111.063 57.972 110.606 57.9881C110.121 58.0042 109.636 58.0042 109.15 57.9881C109.13 57.9874 109.112 57.9794 109.099 57.9659C109.085 57.9523 109.077 57.9343 109.077 57.9155L109.069 16.8031C109.069 16.7714 109.081 16.741 109.104 16.7186C109.126 16.6962 109.157 16.6836 109.188 16.6836C109.848 16.6883 110.46 16.7372 111.026 16.8302C111.613 16.926 112.136 17.1618 112.594 17.5375Z" fill="black"/>
<path d="M119.494 36.9224C119.473 36.917 119.455 36.9052 119.442 36.8887C119.43 36.8722 119.423 36.8521 119.423 36.8313V18.7878C119.423 18.767 119.43 18.7468 119.442 18.7304C119.455 18.7139 119.473 18.7021 119.494 18.6967C120.916 18.3134 122.339 18.1616 123.762 18.2413C126.264 18.3798 128.147 19.4766 129.412 21.5318C130.038 22.5498 130.488 23.6661 130.761 24.8806C130.962 25.7649 131.087 26.7037 131.139 27.6971C131.235 29.5482 130.956 31.2945 130.302 32.936C129.49 34.9693 128.091 36.3185 126.105 36.9836C125.296 37.254 124.363 37.393 123.304 37.4006C122.031 37.4101 120.761 37.2507 119.494 36.9224Z" fill="black"/>
</svg>
