<svg width="270" height="72" viewBox="0 0 270 72" fill="none" xmlns="http://www.w3.org/2000/svg">
<path d="M83.0118 26.6767C82.0668 25.8771 81.545 24.8045 81.4466 23.4588C81.2771 21.1458 82.1892 19.5326 84.1829 18.6192C85.1057 18.1972 86.1839 17.9909 87.4174 18.0003C89.1869 18.014 90.9186 18.3924 92.6127 19.1354C92.6363 19.1457 92.6549 19.1649 92.6647 19.1891C92.6745 19.2132 92.6748 19.2404 92.6654 19.2651L91.7845 21.5507C91.7798 21.5631 91.7726 21.5744 91.7635 21.584C91.7544 21.5936 91.7436 21.6012 91.7316 21.6065C91.7196 21.6118 91.7067 21.6146 91.6938 21.6147C91.6808 21.6148 91.668 21.6123 91.6561 21.6072C90.3584 21.0645 89.0525 20.7294 87.7385 20.6018C87.3515 20.5641 86.9115 20.589 86.4184 20.6763C85.8766 20.7722 85.4276 20.996 85.0715 21.3478C84.7342 21.6817 84.5317 22.1097 84.4641 22.6319C84.3776 23.2928 84.524 23.8655 84.9033 24.35C85.1857 24.7112 85.794 25.1225 86.7279 25.584C87.4059 25.9187 88.1387 26.2482 88.9262 26.5727C89.7617 26.9168 90.5724 27.3902 91.3582 27.9928C91.9883 28.4765 92.4308 29.0881 92.6859 29.8278C92.9153 30.4938 93.0104 31.2163 92.971 31.9953C92.9385 32.6433 92.7839 33.2596 92.5074 33.8443C92.2464 34.3973 91.8676 34.8891 91.3711 35.3197C90.7136 35.8915 89.9663 36.2951 89.1291 36.5305C88.5008 36.7069 87.6751 36.8177 86.6521 36.8631C85.2422 36.9256 83.8362 36.7617 82.434 36.3713C82.0026 36.2515 81.6203 36.1064 81.2873 35.936C81.2692 35.9268 81.254 35.9133 81.2433 35.897C81.2327 35.8807 81.227 35.8622 81.227 35.8436L81.1936 33.1702C81.1934 33.1572 81.1966 33.1444 81.2028 33.133C81.2089 33.1216 81.2179 33.1119 81.2289 33.1049C81.24 33.0978 81.2526 33.0937 81.2657 33.0927C81.2789 33.0918 81.292 33.0941 81.304 33.0995C82.2619 33.5147 83.2344 33.8267 84.2214 34.0356C85.0372 34.2085 85.7156 34.304 86.2567 34.322C86.9706 34.3459 87.6571 34.2561 88.3163 34.0523C88.9266 33.864 89.3765 33.516 89.6658 33.0084C89.9372 32.5341 90.0232 32.0141 89.9239 31.4482C89.7964 30.7163 89.3765 30.1424 88.6643 29.7263C87.7774 29.2084 86.8546 28.7633 85.8958 28.3909C84.8378 27.98 83.8764 27.4086 83.0118 26.6767Z" fill="black"/>
<path d="M138.483 34.4769C137.931 33.864 137.514 33.2143 137.232 32.5277C136.422 30.5563 136.124 28.432 136.34 26.1549C136.479 24.6877 136.846 23.3827 137.442 22.2398C138.411 20.3805 139.873 19.1281 141.829 18.4827C142.766 18.1737 143.782 18.0149 144.879 18.0063C146.735 17.9909 148.503 18.3718 150.185 19.1491C150.199 19.1561 150.21 19.1684 150.216 19.1834C150.222 19.1985 150.222 19.2151 150.216 19.23L149.213 21.5657C149.204 21.586 149.191 21.6043 149.176 21.6197C149.16 21.6351 149.142 21.6473 149.121 21.6554C149.101 21.6635 149.08 21.6675 149.058 21.6671C149.036 21.6667 149.015 21.6619 148.996 21.653C148.577 21.4638 148.122 21.2768 147.631 21.0919C146.733 20.7529 145.815 20.592 144.876 20.6091C144.127 20.6228 143.456 20.7503 142.864 20.9917C142.197 21.264 141.625 21.6663 141.147 22.1988C140.7 22.6978 140.341 23.2727 140.07 23.9232C139.841 24.4737 139.674 25.1226 139.571 25.8699C139.369 27.3097 139.435 28.7492 139.768 30.1882C140.006 31.2128 140.455 32.086 141.115 32.8076C141.563 33.2973 142.101 33.6573 142.729 33.8875C143.144 34.0391 143.617 34.1555 144.15 34.2368C144.662 34.3156 145.154 34.3207 145.625 34.2522C145.912 34.2111 146.152 34.182 146.345 34.1649C146.654 34.1384 146.892 34.1054 147.062 34.066C147.862 33.8794 148.663 33.6898 149.464 33.4972C149.472 33.4952 149.48 33.4951 149.488 33.4967C149.496 33.4983 149.503 33.5016 149.509 33.5064C149.515 33.5112 149.521 33.5174 149.524 33.5245C149.528 33.5315 149.53 33.5393 149.53 33.5473C149.557 34.4101 149.541 35.2341 149.482 36.0191C149.481 36.0378 149.474 36.0558 149.463 36.0708C149.451 36.0858 149.436 36.0973 149.418 36.1038C147.737 36.7005 145.924 36.9474 143.98 36.8447C143.386 36.813 142.845 36.7454 142.358 36.6418C141.808 36.5246 141.29 36.3628 140.805 36.1565C139.929 35.7849 139.155 35.2251 138.483 34.4769Z" fill="black"/>
<path d="M106.09 31.6757C106.078 31.6398 106.055 31.6086 106.024 31.5865C105.994 31.5644 105.958 31.5525 105.921 31.5524L99.1099 31.555C99.0912 31.5549 99.0728 31.561 99.0574 31.5722C99.042 31.5835 99.0303 31.5995 99.0239 31.6179L97.3289 36.4472C97.3121 36.4955 97.281 36.5374 97.2398 36.5671C97.1986 36.5968 97.1494 36.6128 97.0991 36.6129L94.1277 36.6206C94.1182 36.6205 94.1089 36.6182 94.1005 36.6138C94.092 36.6094 94.0848 36.603 94.0794 36.5952C94.074 36.5873 94.0705 36.5783 94.0693 36.5689C94.0681 36.5595 94.0692 36.5499 94.0725 36.541L100.901 18.256C100.908 18.2379 100.92 18.2224 100.936 18.2114C100.952 18.2003 100.97 18.1944 100.99 18.1943H104.129C104.156 18.1943 104.183 18.2027 104.205 18.2183C104.227 18.2339 104.244 18.256 104.254 18.2817L111.071 36.5666C111.073 36.5727 111.074 36.5792 111.073 36.5856C111.072 36.592 111.07 36.5981 111.066 36.6034C111.063 36.6087 111.058 36.613 111.052 36.616C111.046 36.619 111.04 36.6206 111.034 36.6206H107.902C107.883 36.6206 107.864 36.6147 107.848 36.6036C107.833 36.5926 107.821 36.577 107.815 36.5589L106.09 31.6757ZM102.915 28.8982C103.665 28.9188 104.396 28.9252 105.108 28.9175C105.121 28.9175 105.135 28.9142 105.147 28.9079C105.159 28.9017 105.169 28.8926 105.177 28.8816C105.185 28.8705 105.19 28.8577 105.191 28.8443C105.193 28.8309 105.192 28.8173 105.187 28.8045C104.776 27.6386 104.382 26.4838 104.007 25.3401C104.005 25.3341 103.789 24.7101 103.359 23.468C103.092 22.695 102.861 21.9104 102.665 21.1143C102.631 20.9747 102.593 20.9739 102.551 21.1117C102.401 21.6031 102.249 22.1034 102.093 22.6128C101.945 23.0973 101.782 23.5942 101.605 24.1036C101.061 25.6658 100.522 27.2414 99.9869 28.8302C99.9835 28.8401 99.9826 28.8507 99.9843 28.8611C99.986 28.8714 99.9902 28.8812 99.9965 28.8896C100.003 28.898 100.011 28.9046 100.021 28.9091C100.03 28.9135 100.041 28.9155 100.051 28.9149C100.999 28.8773 101.953 28.8717 102.915 28.8982Z" fill="black"/>
<path d="M164.428 20.8674L159.3 20.8584C159.281 20.8584 159.263 20.8508 159.25 20.8373C159.236 20.8238 159.229 20.8056 159.229 20.7865V18.3737C159.229 18.3433 159.241 18.3141 159.262 18.2925C159.284 18.2708 159.313 18.2585 159.344 18.2582C162.749 18.2445 166.123 18.2526 169.466 18.2826C169.745 18.2851 170.324 18.2706 171.202 18.2389C171.781 18.2175 172.361 18.2239 172.942 18.2582C172.966 18.2595 172.988 18.2693 173.004 18.2858C173.02 18.3022 173.029 18.324 173.03 18.3468L173.063 20.7929C173.063 20.8014 173.062 20.8099 173.058 20.8179C173.055 20.8258 173.05 20.833 173.044 20.8391C173.038 20.8452 173.03 20.8501 173.022 20.8534C173.014 20.8567 173.005 20.8584 172.996 20.8584H167.798C167.756 20.8584 167.716 20.8752 167.686 20.905C167.656 20.9349 167.639 20.9754 167.639 21.0176V36.4802C167.639 36.4988 167.635 36.5172 167.628 36.5344C167.621 36.5515 167.611 36.5671 167.598 36.5801C167.585 36.5932 167.57 36.6034 167.553 36.6103C167.536 36.6172 167.518 36.6205 167.5 36.6202L164.688 36.5855C164.671 36.5852 164.654 36.5777 164.641 36.5648C164.629 36.5518 164.622 36.5344 164.622 36.5162V21.0613C164.622 21.0098 164.601 20.9605 164.565 20.9242C164.528 20.8878 164.479 20.8674 164.428 20.8674Z" fill="black"/>
<path d="M180.974 26.4521C180.983 26.4621 180.994 26.4699 181.006 26.4746C181.019 26.4794 181.032 26.481 181.046 26.4794C181.059 26.4777 181.072 26.4729 181.083 26.4652C181.094 26.4575 181.103 26.4473 181.109 26.4354L185.29 18.3702C185.307 18.3369 185.333 18.3091 185.365 18.2896C185.396 18.2701 185.433 18.2598 185.469 18.2598L188.572 18.2842C188.578 18.2841 188.585 18.2858 188.591 18.2892C188.597 18.2926 188.602 18.2975 188.605 18.3035C188.609 18.3095 188.61 18.3163 188.61 18.3233C188.61 18.3303 188.609 18.3371 188.605 18.3432C186.618 21.9677 184.649 25.5798 182.698 29.1794C182.57 29.4157 182.507 29.6703 182.51 29.9434C182.526 32.1049 182.534 34.2908 182.534 36.5011C182.534 36.5328 182.521 36.5631 182.499 36.5855C182.477 36.6079 182.446 36.6205 182.415 36.6205H179.642C179.603 36.6205 179.564 36.6048 179.536 36.5769C179.508 36.549 179.492 36.5111 179.492 36.4716L179.484 29.8548C179.484 29.7059 179.45 29.5672 179.38 29.4388L173.439 18.3766C173.434 18.3674 173.431 18.357 173.431 18.3464C173.431 18.3358 173.434 18.3254 173.439 18.3163C173.444 18.3072 173.452 18.2996 173.461 18.2944C173.47 18.2893 173.48 18.2866 173.49 18.2867L176.635 18.3111C176.654 18.3116 176.673 18.3175 176.69 18.3283C176.706 18.3392 176.72 18.3545 176.73 18.3728C178.097 20.982 179.459 23.5938 180.816 26.2081C180.873 26.3177 180.926 26.399 180.974 26.4521Z" fill="black"/>
<path d="M116.157 21.631C116.087 21.4538 116.052 21.4607 116.052 21.6516C116.052 22.1695 116.066 22.6857 116.094 23.2002C116.134 23.9004 116.155 24.4157 116.16 24.7462C116.218 28.6223 116.235 32.5297 116.212 36.4683C116.212 36.4994 116.2 36.5291 116.178 36.5516C116.157 36.574 116.128 36.5874 116.097 36.589C115.296 36.6353 114.477 36.634 113.639 36.5852C113.596 36.5829 113.556 36.5638 113.526 36.5322C113.497 36.5006 113.481 36.4588 113.482 36.4157C113.495 35.7814 113.5 35.1753 113.495 34.5975C113.459 29.6667 113.455 26.4886 113.484 25.0633C113.528 22.8162 113.529 20.5978 113.485 18.4081C113.485 18.3888 113.488 18.3698 113.495 18.3519C113.502 18.3341 113.513 18.3179 113.526 18.3042C113.539 18.2906 113.555 18.2798 113.573 18.2725C113.59 18.2652 113.609 18.2615 113.628 18.2617L117.68 18.2951C117.699 18.2954 117.717 18.3016 117.732 18.3128C117.748 18.3241 117.76 18.3398 117.766 18.358L122.809 32.8049C122.828 32.8614 122.848 32.8618 122.868 32.8062L128.089 18.331C128.096 18.3092 128.111 18.2904 128.13 18.2773C128.149 18.2642 128.171 18.2574 128.194 18.2578L132.269 18.2809C132.287 18.2809 132.304 18.2878 132.317 18.3001C132.329 18.3124 132.336 18.3291 132.336 18.3464L132.352 36.5004C132.352 36.5162 132.349 36.5319 132.343 36.5464C132.337 36.561 132.328 36.5742 132.317 36.5853C132.306 36.5964 132.293 36.6052 132.279 36.6111C132.264 36.6171 132.249 36.62 132.234 36.6198L129.599 36.5839C129.564 36.5836 129.532 36.5693 129.508 36.5443C129.484 36.5193 129.47 36.4855 129.47 36.4504C129.47 34.4986 129.465 32.522 129.455 30.5206C129.44 27.5313 129.501 24.5433 129.637 21.5566C129.639 21.5317 129.635 21.5112 129.627 21.4949C129.604 21.447 129.576 21.4607 129.543 21.536C129.353 21.976 129.177 22.4216 129.014 22.8727C127.385 27.3909 125.758 31.9258 124.134 36.4773C124.119 36.5189 124.092 36.555 124.056 36.5805C124.02 36.606 123.976 36.6198 123.932 36.6198H121.555C121.508 36.6198 121.463 36.6052 121.425 36.5781C121.386 36.5509 121.358 36.5126 121.342 36.4683C119.906 32.32 118.48 28.1951 117.065 24.0939C116.765 23.225 116.462 22.404 116.157 21.631Z" fill="black"/>
<path d="M154.789 36.6545C154.361 36.6399 153.933 36.6215 153.505 36.5993C153.488 36.5983 153.472 36.5907 153.461 36.578C153.449 36.5654 153.442 36.5486 153.442 36.5312C153.452 32.174 153.448 27.8163 153.43 23.4582C153.427 22.8667 153.412 22.4173 153.386 22.11C153.365 21.8617 153.366 21.6246 153.391 21.3986C153.43 21.0451 153.45 20.8114 153.45 20.6975C153.45 19.91 153.45 19.1361 153.45 18.3759C153.45 18.3603 153.453 18.3449 153.459 18.3304C153.465 18.316 153.474 18.3029 153.484 18.292C153.495 18.281 153.508 18.2723 153.522 18.2664C153.537 18.2606 153.552 18.2576 153.567 18.2578L156.379 18.2963C156.403 18.2967 156.425 18.3066 156.442 18.3239C156.458 18.3412 156.468 18.3645 156.468 18.3888C156.468 24.4333 156.468 30.4354 156.468 36.3951C156.468 36.6006 156.38 36.6729 156.206 36.6121C156.161 36.5967 156.121 36.5912 156.084 36.5954C155.653 36.6485 155.222 36.6682 154.789 36.6545Z" fill="black"/>
<path d="M155.525 53.87C154.863 53.2802 154.413 52.556 154.176 51.6974C153.941 50.8499 153.839 49.9866 153.868 49.1075C153.898 48.2146 154.055 47.4031 154.339 46.6729C154.597 46.0069 154.959 45.4569 155.425 45.0229C155.93 44.5512 156.524 44.222 157.206 44.0354C158.038 43.8077 158.926 43.7529 159.871 43.8711C161.685 44.0971 162.913 45.0105 163.555 46.6112C164.118 48.0203 164.217 49.5479 163.851 51.194C163.51 52.7298 162.719 53.8157 161.478 54.4517C160.915 54.741 160.273 54.9152 159.552 54.9743C158.885 55.0282 158.21 54.988 157.527 54.8536C156.758 54.7021 156.09 54.3742 155.525 53.87ZM157.006 52.8389C157.488 53.2104 158.036 53.4129 158.651 53.4463C160.019 53.5208 160.986 53.0679 161.554 52.0878C161.857 51.5664 162.043 50.8623 162.111 49.9755C162.171 49.2033 162.12 48.4646 161.957 47.7592C161.57 46.0788 160.479 45.2895 158.683 45.3914C157.896 45.4359 157.261 45.7038 156.779 46.1952C156.389 46.5924 156.107 47.1719 155.934 47.9338C155.772 48.6426 155.729 49.3621 155.804 50.0923C155.867 50.7052 155.966 51.1996 156.101 51.5754C156.288 52.0984 156.59 52.5196 157.006 52.8389Z" fill="black"/>
<path d="M140.249 50.4965L138.14 50.4888C138.123 50.4888 138.106 50.4819 138.093 50.4696C138.081 50.4574 138.074 50.4407 138.074 50.4233V49.0147C138.074 48.997 138.081 48.98 138.093 48.9675C138.106 48.955 138.123 48.948 138.14 48.948H142.054C142.071 48.948 142.087 48.9547 142.1 48.9668C142.112 48.9788 142.118 48.9951 142.118 49.0122V54.3282C142.118 54.351 142.111 54.3732 142.097 54.3916C142.084 54.4101 142.064 54.4238 142.043 54.4309C140.865 54.8075 139.673 54.9942 138.466 54.9907C137.526 54.9882 136.732 54.8649 136.086 54.6209C135.423 54.371 134.867 53.996 134.417 53.4961C134.028 53.0655 133.714 52.495 133.475 51.7844C133.093 50.6451 132.999 49.4962 133.194 48.338C133.645 45.6612 135.23 44.1811 137.948 43.8978C139.342 43.7514 140.686 43.9388 141.98 44.4602C141.986 44.4628 141.992 44.4668 141.997 44.4718C142.003 44.4769 142.007 44.4829 142.009 44.4896C142.012 44.4963 142.013 44.5035 142.013 44.5108C142.013 44.5181 142.012 44.5253 142.009 44.5321L141.406 45.9356C141.402 45.9432 141.398 45.9502 141.391 45.9559C141.385 45.9617 141.378 45.9662 141.37 45.9692C141.362 45.9722 141.354 45.9736 141.346 45.9733C141.337 45.9731 141.329 45.9711 141.321 45.9677C140.433 45.5576 139.522 45.3633 138.587 45.3847C137.601 45.407 136.795 45.7207 136.171 46.3259C135.629 46.8507 135.266 47.5706 135.083 48.4857C134.841 49.6901 135.005 50.8475 135.577 51.9578C135.811 52.4115 136.162 52.7689 136.63 53.03C137.008 53.2397 137.473 53.3737 138.026 53.4319C138.771 53.5098 139.513 53.4516 140.251 53.2573C140.269 53.2529 140.285 53.2426 140.297 53.2279C140.308 53.2133 140.314 53.1951 140.314 53.1764L140.313 50.5607C140.313 50.5437 140.306 50.5274 140.294 50.5153C140.282 50.5033 140.266 50.4965 140.249 50.4965Z" fill="black"/>
<path d="M125.226 51.8441L121.254 51.8364C121.235 51.8365 121.216 51.8424 121.201 51.8534C121.186 51.8645 121.174 51.8801 121.168 51.898L120.143 54.7859C120.137 54.8035 120.125 54.8188 120.11 54.8296C120.095 54.8404 120.077 54.8462 120.058 54.8462L118.326 54.8527C118.314 54.8529 118.302 54.8501 118.292 54.8446C118.281 54.8392 118.272 54.8312 118.265 54.8213C118.258 54.8114 118.254 54.8 118.253 54.788C118.251 54.7761 118.252 54.7639 118.257 54.7525L122.262 43.9985C122.268 43.9812 122.279 43.9663 122.294 43.9557C122.309 43.9452 122.327 43.9395 122.345 43.9395H124.175C124.194 43.9394 124.213 43.9454 124.23 43.9566C124.246 43.9679 124.258 43.9838 124.265 44.0024L128.284 54.7628C128.288 54.773 128.289 54.784 128.288 54.7948C128.287 54.8057 128.283 54.8161 128.277 54.8251C128.27 54.8341 128.262 54.8414 128.252 54.8465C128.243 54.8515 128.232 54.8541 128.221 54.8539L126.459 54.8475C126.441 54.8472 126.423 54.8411 126.408 54.8302C126.393 54.8192 126.381 54.8038 126.374 54.7859L125.311 51.9045C125.305 51.8868 125.293 51.8716 125.278 51.8608C125.263 51.85 125.245 51.8442 125.226 51.8441ZM123.249 45.7127C122.794 47.2194 122.292 48.7243 121.743 50.2275C121.74 50.2353 121.739 50.2436 121.74 50.2517C121.742 50.2599 121.745 50.2676 121.749 50.2743C121.754 50.281 121.76 50.2864 121.767 50.2901C121.774 50.2938 121.782 50.2957 121.79 50.2955H124.763C124.77 50.2956 124.778 50.2938 124.784 50.2904C124.791 50.287 124.796 50.2821 124.801 50.276C124.805 50.27 124.808 50.263 124.809 50.2557C124.81 50.2483 124.809 50.2409 124.807 50.2339L123.289 45.7115C123.275 45.6712 123.262 45.6716 123.249 45.7127Z" fill="black"/>
<path d="M86.8783 52.5004C86.9151 52.6074 86.9528 52.6074 86.9913 52.5004L90.0191 44.0577C90.026 44.0388 90.0379 44.0225 90.0533 44.011C90.0687 43.9995 90.0868 43.9934 90.1052 43.9935L92.5102 43.9781C92.5303 43.9781 92.5496 43.9863 92.5638 44.001C92.578 44.0157 92.586 44.0357 92.586 44.0564V54.786C92.586 54.7949 92.5843 54.8037 92.581 54.8119C92.5776 54.8201 92.5728 54.8275 92.5667 54.8337C92.5606 54.8399 92.5534 54.8448 92.5454 54.8481C92.5375 54.8514 92.529 54.853 92.5205 54.8528L90.9321 54.8322C90.9119 54.8322 90.8925 54.824 90.8781 54.8094C90.8637 54.7947 90.8554 54.7748 90.8551 54.7539C90.8285 51.7492 90.8508 48.7882 90.9218 45.8708C90.9235 45.8237 90.9163 45.8224 90.9 45.867L87.6809 54.7924C87.6745 54.8104 87.6628 54.826 87.6474 54.837C87.632 54.8481 87.6137 54.854 87.5948 54.8541L86.1413 54.8476C86.1228 54.8472 86.1048 54.841 86.0897 54.8297C86.0746 54.8185 86.063 54.8028 86.0565 54.7847L82.9632 45.9209C82.9153 45.7831 82.896 45.7869 82.9055 45.9324C82.9654 46.8955 82.9983 47.8898 83.0043 48.9153C83.0146 50.8414 83.0197 52.797 83.0197 54.7822C83.0197 54.8012 83.0123 54.8195 82.9991 54.833C82.9858 54.8465 82.9678 54.8541 82.9491 54.8541L81.4558 54.8476C81.4384 54.8476 81.4217 54.8409 81.4095 54.8288C81.3972 54.8168 81.3903 54.8005 81.3903 54.7834L81.3826 44.0577C81.3826 44.0349 81.3916 44.013 81.4078 43.9969C81.4239 43.9807 81.4458 43.9717 81.4686 43.9717H83.8518C83.8679 43.9717 83.8836 43.9767 83.8967 43.9859C83.9098 43.9951 83.9197 44.0081 83.925 44.023L86.8783 52.5004Z" fill="black"/>
<path d="M97.2163 50.0145L97.2086 53.2426C97.2086 53.2613 97.216 53.2793 97.2293 53.2925C97.2425 53.3058 97.2605 53.3132 97.2792 53.3132H101.49C101.512 53.3132 101.534 53.3221 101.55 53.338C101.565 53.3539 101.574 53.3755 101.574 53.3979V54.7834C101.574 54.7927 101.573 54.8019 101.569 54.8105C101.565 54.819 101.56 54.8268 101.554 54.8334C101.547 54.8399 101.539 54.8451 101.531 54.8487C101.522 54.8522 101.513 54.8541 101.504 54.8541L95.4841 54.8464C95.4667 54.8464 95.4501 54.8397 95.4378 54.8279C95.4255 54.8161 95.4186 54.8001 95.4186 54.7834L95.4109 44.0847C95.4109 44.0547 95.4228 44.026 95.444 44.0048C95.4652 43.9836 95.4939 43.9717 95.5239 43.9717H101.463C101.492 43.9717 101.521 43.9835 101.542 44.0044C101.563 44.0254 101.574 44.0538 101.574 44.0834V45.3996C101.574 45.4295 101.562 45.4583 101.541 45.4795C101.52 45.5006 101.491 45.5125 101.461 45.5125H97.2728C97.2643 45.5125 97.256 45.5142 97.2482 45.5174C97.2404 45.5207 97.2333 45.5254 97.2274 45.5314C97.2214 45.5373 97.2167 45.5444 97.2135 45.5522C97.2102 45.56 97.2086 45.5683 97.2086 45.5768L97.2163 48.3272C97.2163 48.3559 97.2279 48.3835 97.2485 48.4039C97.2692 48.4244 97.2973 48.436 97.3267 48.4364L101.229 48.4569C101.246 48.4569 101.262 48.4637 101.274 48.4757C101.286 48.4877 101.293 48.5041 101.293 48.5211L101.278 49.8706C101.278 49.8791 101.276 49.8874 101.273 49.8952C101.27 49.903 101.265 49.9101 101.259 49.916C101.253 49.922 101.246 49.9267 101.238 49.93C101.23 49.9332 101.222 49.9348 101.214 49.9348L97.2805 49.9503C97.2634 49.9503 97.2471 49.957 97.2351 49.9691C97.223 49.9811 97.2163 49.9974 97.2163 50.0145Z" fill="black"/>
<path d="M111.119 45.2449C111.839 45.875 112.307 46.6591 112.525 47.5973C112.768 48.6426 112.794 49.6741 112.604 50.6919C112.437 51.5848 112.134 52.3248 111.694 52.9121C111.191 53.5841 110.522 54.0788 109.688 54.3964C109.37 54.5171 109.024 54.6169 108.652 54.6956C108.356 54.7573 108 54.7971 107.586 54.815C106.435 54.8638 105.237 54.8754 103.993 54.8497C103.965 54.849 103.937 54.8371 103.917 54.8165C103.897 54.7958 103.885 54.7681 103.885 54.7393V44.0675C103.885 44.0442 103.895 44.0219 103.911 44.0053C103.927 43.9887 103.95 43.9792 103.973 43.9789C104.923 43.9695 105.889 43.966 106.871 43.9686C107.488 43.9703 108.101 44.0195 108.71 44.1163C109.623 44.2626 110.426 44.6389 111.119 45.2449ZM109.607 46.2106C108.979 45.7509 108.27 45.518 107.481 45.512C106.906 45.5078 106.33 45.5103 105.754 45.5197C105.737 45.5197 105.721 45.5265 105.709 45.5385C105.698 45.5506 105.691 45.5669 105.691 45.5839L105.683 53.2446C105.683 53.2699 105.693 53.2941 105.71 53.3123C105.728 53.3305 105.752 53.3412 105.777 53.3422C106.291 53.3585 106.79 53.3495 107.274 53.3153C107.888 53.2716 108.376 53.1809 108.739 53.043C109.751 52.6578 110.391 51.887 110.66 50.7304C110.819 50.0456 110.84 49.2264 110.723 48.2728C110.61 47.3585 110.238 46.6711 109.607 46.2106Z" fill="black"/>
<path d="M116.788 43.9717H115.059C115.04 43.9717 115.025 43.9872 115.025 44.0064V54.8207C115.025 54.8398 115.04 54.8554 115.059 54.8554H116.788C116.807 54.8554 116.822 54.8398 116.822 54.8207V44.0064C116.822 43.9872 116.807 43.9717 116.788 43.9717Z" fill="black"/>
<path d="M149.857 50.1263L152.808 54.7463C152.851 54.8131 152.833 54.8465 152.754 54.8465L150.859 54.8478C150.839 54.8478 150.82 54.8426 150.802 54.8327C150.785 54.8228 150.771 54.8085 150.76 54.7913L148.237 50.5731C148.227 50.557 148.213 50.5437 148.197 50.5345C148.18 50.5253 148.162 50.5204 148.143 50.5205H146.569C146.546 50.5205 146.525 50.5294 146.509 50.5453C146.493 50.5612 146.484 50.5828 146.484 50.6052V54.7823C146.484 54.7917 146.482 54.801 146.479 54.8096C146.475 54.8183 146.47 54.8261 146.463 54.8327C146.457 54.8393 146.449 54.8444 146.44 54.8479C146.432 54.8514 146.423 54.8531 146.413 54.8529L144.758 54.8478C144.741 54.8474 144.725 54.8405 144.713 54.8285C144.701 54.8165 144.694 54.8004 144.694 54.7836L144.709 44.0591C144.71 44.0422 144.716 44.0259 144.729 44.0137C144.741 44.0015 144.757 43.9943 144.775 43.9936C145.933 43.9534 147.091 43.9568 148.25 44.0039C148.769 44.0253 149.28 44.1045 149.782 44.2415C150.531 44.446 151.087 44.8403 151.447 45.4241C151.765 45.9385 151.909 46.5566 151.88 47.2782C151.828 48.5486 151.162 49.471 149.88 50.0454C149.873 50.0487 149.867 50.0534 149.862 50.0594C149.857 50.0654 149.853 50.0725 149.851 50.0802C149.848 50.0878 149.848 50.0959 149.849 50.1039C149.85 50.1118 149.853 50.1195 149.857 50.1263ZM149.535 46.025C149.329 45.8418 149.114 45.7245 148.892 45.6732C148.162 45.5054 147.389 45.4579 146.573 45.5306C146.555 45.5325 146.538 45.5407 146.526 45.5535C146.514 45.5663 146.507 45.5828 146.507 45.6L146.485 48.9129C146.485 48.9376 146.495 48.9614 146.513 48.9792C146.53 48.9969 146.554 49.0072 146.579 49.0079C147.19 49.025 147.758 49.0143 148.282 48.9758C149.433 48.8919 150.012 48.2751 150.019 47.1254C150.022 46.6812 149.86 46.3143 149.535 46.025Z" fill="black"/>
<path d="M167.424 53.9771C166.833 53.4258 166.472 52.7474 166.341 51.9418C166.266 51.4821 166.231 51.019 166.234 50.5525C166.25 48.3807 166.259 46.2085 166.259 44.0359C166.259 44.0275 166.26 44.0191 166.263 44.0113C166.267 44.0035 166.271 43.9964 166.277 43.9905C166.283 43.9845 166.29 43.9798 166.298 43.9766C166.306 43.9733 166.314 43.9717 166.323 43.9717H167.944C167.974 43.9717 168.003 43.9835 168.023 44.0044C168.044 44.0254 168.056 44.0538 168.056 44.0834C168.056 46.1918 168.056 48.3161 168.056 50.4562C168.056 51.0212 168.108 51.5001 168.213 51.893C168.431 52.7208 168.976 53.2182 169.846 53.3851C170.343 53.481 170.817 53.4823 171.269 53.389C171.764 53.2862 172.167 53.0709 172.478 52.7431C172.869 52.3322 173.064 51.816 173.064 51.1945C173.064 48.8087 173.064 46.4255 173.064 44.0449C173.064 44.0355 173.066 44.0262 173.069 44.0175C173.073 44.0089 173.078 44.001 173.084 43.9945C173.091 43.9879 173.099 43.9827 173.107 43.9793C173.115 43.9758 173.124 43.9741 173.133 43.9743L174.805 43.9922C174.822 43.9926 174.839 44 174.851 44.0129C174.863 44.0259 174.87 44.0433 174.871 44.0616C174.935 47.7357 174.932 50.2096 174.862 51.4834C174.819 52.2641 174.555 52.9528 174.069 53.5495C173.694 54.0109 173.224 54.3571 172.661 54.5883C172.146 54.7989 171.564 54.9303 170.913 54.9825C170.198 55.0398 169.478 54.9568 168.755 54.7334C168.239 54.5741 167.795 54.322 167.424 53.9771Z" fill="black"/>
<path d="M179.428 50.8806L179.413 54.7828C179.413 54.7996 179.406 54.8158 179.394 54.8278C179.382 54.8398 179.366 54.8467 179.35 54.847L177.721 54.8522C177.708 54.8522 177.696 54.8496 177.684 54.8447C177.672 54.8397 177.661 54.8324 177.652 54.8232C177.642 54.814 177.635 54.8031 177.63 54.7911C177.625 54.7791 177.623 54.7663 177.623 54.7533V44.0712C177.623 44.0456 177.633 44.0209 177.651 44.0027C177.669 43.9844 177.693 43.974 177.719 43.9736C179.089 43.9462 180.416 43.9668 181.699 44.0353C182.206 44.0627 182.696 44.1932 183.17 44.4269C183.665 44.6717 184.043 44.9876 184.304 45.3745C184.619 45.8445 184.788 46.4039 184.813 47.0528C184.863 48.3583 184.45 49.3346 183.574 49.9817C183.099 50.3327 182.435 50.5754 181.581 50.7098C180.893 50.8185 180.197 50.8554 179.492 50.8203C179.484 50.82 179.476 50.8212 179.468 50.8241C179.46 50.8269 179.453 50.8313 179.447 50.837C179.441 50.8426 179.436 50.8494 179.433 50.8569C179.43 50.8644 179.428 50.8724 179.428 50.8806ZM182.413 45.9858C182.082 45.7264 181.705 45.5813 181.282 45.5505C180.727 45.5102 180.133 45.4982 179.502 45.5145C179.48 45.5152 179.459 45.5244 179.444 45.5402C179.429 45.556 179.42 45.5772 179.42 45.5993L179.428 49.1959C179.428 49.2134 179.434 49.2303 179.446 49.2432C179.458 49.2561 179.475 49.2639 179.492 49.2652C180.377 49.3286 181.145 49.2652 181.796 49.0752C182.344 48.9151 182.698 48.5808 182.858 48.0724C182.969 47.7171 183.005 47.3563 182.967 46.9899C182.923 46.5739 182.739 46.2391 182.413 45.9858Z" fill="black"/>
</svg>
