<svg width="123" height="34" viewBox="0 0 123 34" fill="none" xmlns="http://www.w3.org/2000/svg">
<path d="M19.1129 33.24L0.874733 18.7852C0.344409 18.365 -0.0449769 17.3638 0.00418776 16.5487L0.89637 1.79305C0.945535 0.977928 1.41555 0.658133 1.94522 1.07842L20.1833 15.5333C20.7137 15.9535 21.1031 16.9547 21.0539 17.7698L20.1617 32.5254C20.1125 33.3406 19.6425 33.6603 19.1129 33.24Z" fill="url(#paint0_linear_91_6893)"/>
<path d="M28.815 33.24L10.5769 18.7852C10.0466 18.365 9.65717 17.3638 9.70634 16.5487L10.5985 1.79305C10.6477 0.977928 11.1177 0.658133 11.6474 1.07842L29.8855 15.5333C30.4158 15.9535 30.8052 16.9547 30.756 17.7698L29.8639 32.5254C29.8147 33.3406 29.3447 33.6603 28.815 33.24Z" fill="url(#paint1_linear_91_6893)"/>
<path d="M40.1646 33.24L21.9265 18.7852C21.3962 18.365 21.0068 17.3638 21.0559 16.5487L21.9481 1.79305C21.9973 0.977928 22.4673 0.658133 22.997 1.07842L41.2351 15.5333C41.7654 15.9535 42.1548 16.9547 42.1057 17.7698L41.2135 32.5254C41.1643 33.3406 40.6943 33.6603 40.1646 33.24Z" fill="url(#paint2_linear_91_6893)"/>
<path d="M64.327 24.3837H61.1304L58.6536 14.6881L56.1979 24.3837H53.0014L48.958 10.2637H52.3239L54.8008 20.4673L57.4893 10.2637H59.8391L62.5064 20.4673L64.962 10.2637H68.3491L64.327 24.3837Z" fill="white"/>
<path d="M79.7588 24.3837H69.7668V10.2637H79.7588V12.9099H72.7729V15.8947H79.6106V18.5409H72.7729V21.7375H79.7588V24.3837Z" fill="white"/>
<path d="M85.1148 24.3837H82.1087V10.2637H88.7136C90.1954 10.2637 91.3527 10.7012 92.1854 11.5762C93.0321 12.4371 93.4555 13.5167 93.4555 14.8151C93.4555 16.0994 93.0321 17.179 92.1854 18.054C91.3386 18.929 90.1813 19.3665 88.7136 19.3665H85.1148V24.3837ZM88.3114 16.7203C88.9182 16.7203 89.4122 16.551 89.7932 16.2123C90.1884 15.8595 90.386 15.3937 90.386 14.8151C90.386 14.2365 90.1884 13.7778 89.7932 13.4391C89.4122 13.0863 88.9182 12.9099 88.3114 12.9099H85.1148V16.7203H88.3114Z" fill="white"/>
<path d="M106.75 24.3837H103.3L100.527 19.3665H98.325V24.3837H95.3189V10.2637H101.924C103.377 10.2637 104.528 10.6871 105.374 11.5338C106.235 12.3806 106.666 13.4744 106.666 14.8151C106.666 15.9724 106.362 16.9109 105.755 17.6306C105.163 18.3504 104.436 18.8091 103.575 19.0066L106.75 24.3837ZM101.479 16.7203C102.1 16.7203 102.608 16.551 103.003 16.2123C103.399 15.8595 103.596 15.3937 103.596 14.8151C103.596 14.2365 103.399 13.7778 103.003 13.4391C102.608 13.0863 102.1 12.9099 101.479 12.9099H98.325V16.7203H101.479Z" fill="white"/>
<path d="M115.611 24.6377C113.48 24.6377 111.716 23.9532 110.319 22.5843C108.936 21.2012 108.244 19.4512 108.244 17.3343C108.244 15.2173 108.936 13.4744 110.319 12.1054C111.716 10.7224 113.48 10.0308 115.611 10.0308C117.757 10.0308 119.521 10.7153 120.904 12.0843C122.301 13.4532 123 15.2032 123 17.3343C123 19.4653 122.301 21.2153 120.904 22.5843C119.521 23.9532 117.757 24.6377 115.611 24.6377ZM112.5 20.6578C113.29 21.5328 114.327 21.9703 115.611 21.9703C116.896 21.9703 117.933 21.5328 118.723 20.6578C119.514 19.7828 119.909 18.675 119.909 17.3343C119.909 15.9935 119.514 14.8857 118.723 14.0107C117.933 13.1357 116.896 12.6982 115.611 12.6982C114.327 12.6982 113.29 13.1357 112.5 14.0107C111.723 14.8857 111.335 15.9935 111.335 17.3343C111.335 18.675 111.723 19.7828 112.5 20.6578Z" fill="white"/>
<defs>
<linearGradient id="paint0_linear_91_6893" x1="-3.52059" y1="6.02461" x2="24.6618" y2="28.5597" gradientUnits="userSpaceOnUse">
<stop stop-color="#4B87F7"/>
<stop offset="0.21" stop-color="#3E77E1"/>
<stop offset="0.86" stop-color="#204EB0"/>
</linearGradient>
<linearGradient id="paint1_linear_91_6893" x1="6.18155" y1="6.02461" x2="34.364" y2="28.5597" gradientUnits="userSpaceOnUse">
<stop stop-color="#4B87F7"/>
<stop offset="0.21" stop-color="#3E77E1"/>
<stop offset="0.86" stop-color="#204EB0"/>
</linearGradient>
<linearGradient id="paint2_linear_91_6893" x1="17.5312" y1="6.02461" x2="45.7136" y2="28.5597" gradientUnits="userSpaceOnUse">
<stop stop-color="#4B87F7"/>
<stop offset="0.21" stop-color="#3E77E1"/>
<stop offset="0.86" stop-color="#204EB0"/>
</linearGradient>
</defs>
</svg>
