<svg width="123" height="34" viewBox="0 0 123 34" fill="none" xmlns="http://www.w3.org/2000/svg">
<path d="M19.1129 33.3436L0.874733 18.8622C0.344409 18.4411 -0.0449769 17.4382 0.00418776 16.6216L0.89637 1.83871C0.945535 1.02209 1.41555 0.701706 1.94522 1.12277L20.1833 15.6042C20.7137 16.0253 21.1031 17.0282 21.0539 17.8449L20.1617 32.6277C20.1125 33.4443 19.6425 33.7647 19.1129 33.3436Z" fill="url(#paint0_linear_74_1475)"/>
<path d="M28.8149 33.3436L10.5768 18.8622C10.0464 18.4411 9.65705 17.4382 9.70621 16.6216L10.5984 1.83871C10.6476 1.02209 11.1176 0.701706 11.6472 1.12277L29.8854 15.6042C30.4157 16.0253 30.8051 17.0282 30.7559 17.8449L29.8637 32.6277C29.8146 33.4443 29.3446 33.7647 28.8149 33.3436Z" fill="url(#paint1_linear_74_1475)"/>
<path d="M40.1645 33.3436L21.9264 18.8622C21.396 18.4411 21.0067 17.4382 21.0558 16.6216L21.948 1.83871C21.9972 1.02209 22.4672 0.701706 22.9969 1.12277L41.235 15.6042C41.7653 16.0253 42.1547 17.0282 42.1055 17.8449L41.2133 32.6277C41.1642 33.4443 40.6942 33.7647 40.1645 33.3436Z" fill="url(#paint2_linear_74_1475)"/>
<path d="M64.3275 24.3837H61.1309L58.6541 14.6881L56.1984 24.3837H53.0018L48.9585 10.2637H52.3244L54.8012 20.4673L57.4897 10.2637H59.8396L62.5069 20.4673L64.9625 10.2637H68.3496L64.3275 24.3837Z" fill="black"/>
<path d="M79.7593 24.3837H69.7673V10.2637H79.7593V12.9099H72.7734V15.8947H79.6111V18.5409H72.7734V21.7375H79.7593V24.3837Z" fill="black"/>
<path d="M85.1153 24.3837H82.1092V10.2637H88.7141C90.1959 10.2637 91.3532 10.7012 92.1858 11.5762C93.0326 12.4371 93.456 13.5167 93.456 14.8151C93.456 16.0994 93.0326 17.179 92.1858 18.054C91.3391 18.929 90.1818 19.3665 88.7141 19.3665H85.1153V24.3837ZM88.3118 16.7203C88.9187 16.7203 89.4127 16.551 89.7937 16.2123C90.1889 15.8595 90.3864 15.3937 90.3864 14.8151C90.3864 14.2365 90.1889 13.7778 89.7937 13.4391C89.4127 13.0863 88.9187 12.9099 88.3118 12.9099H85.1153V16.7203H88.3118Z" fill="black"/>
<path d="M106.751 24.3837H103.3L100.527 19.3665H98.3255V24.3837H95.3194V10.2637H101.924C103.378 10.2637 104.528 10.6871 105.375 11.5338C106.236 12.3806 106.666 13.4744 106.666 14.8151C106.666 15.9724 106.363 16.9109 105.756 17.6306C105.163 18.3504 104.436 18.8091 103.575 19.0066L106.751 24.3837ZM101.48 16.7203C102.101 16.7203 102.609 16.551 103.004 16.2123C103.399 15.8595 103.597 15.3937 103.597 14.8151C103.597 14.2365 103.399 13.7778 103.004 13.4391C102.609 13.0863 102.101 12.9099 101.48 12.9099H98.3255V16.7203H101.48Z" fill="black"/>
<path d="M115.612 24.6377C113.481 24.6377 111.717 23.9532 110.32 22.5843C108.936 21.2012 108.245 19.4512 108.245 17.3343C108.245 15.2173 108.936 13.4744 110.32 12.1054C111.717 10.7224 113.481 10.0308 115.612 10.0308C117.757 10.0308 119.521 10.7153 120.904 12.0843C122.301 13.4532 123 15.2032 123 17.3343C123 19.4653 122.301 21.2153 120.904 22.5843C119.521 23.9532 117.757 24.6377 115.612 24.6377ZM112.5 20.6578C113.29 21.5328 114.328 21.9703 115.612 21.9703C116.896 21.9703 117.933 21.5328 118.724 20.6578C119.514 19.7828 119.909 18.675 119.909 17.3343C119.909 15.9935 119.514 14.8857 118.724 14.0107C117.933 13.1357 116.896 12.6982 115.612 12.6982C114.328 12.6982 113.29 13.1357 112.5 14.0107C111.724 14.8857 111.336 15.9935 111.336 17.3343C111.336 18.675 111.724 19.7828 112.5 20.6578Z" fill="black"/>
<defs>
<linearGradient id="paint0_linear_74_1475" x1="-3.52059" y1="6.07806" x2="24.7023" y2="28.604" gradientUnits="userSpaceOnUse">
<stop stop-color="#4B87F7"/>
<stop offset="0.21" stop-color="#3E77E1"/>
<stop offset="0.86" stop-color="#204EB0"/>
</linearGradient>
<linearGradient id="paint1_linear_74_1475" x1="6.18143" y1="6.07806" x2="34.4043" y2="28.604" gradientUnits="userSpaceOnUse">
<stop stop-color="#4B87F7"/>
<stop offset="0.21" stop-color="#3E77E1"/>
<stop offset="0.86" stop-color="#204EB0"/>
</linearGradient>
<linearGradient id="paint2_linear_74_1475" x1="17.531" y1="6.07806" x2="45.7539" y2="28.604" gradientUnits="userSpaceOnUse">
<stop stop-color="#4B87F7"/>
<stop offset="0.21" stop-color="#3E77E1"/>
<stop offset="0.86" stop-color="#204EB0"/>
</linearGradient>
</defs>
</svg>
