<svg width="33" height="33" viewBox="0 0 33 33" fill="none" xmlns="http://www.w3.org/2000/svg">
<g clip-path="url(#clip0_91_6829)">
<path d="M13.2071 8.41806C13.5976 8.02755 13.5976 7.39438 13.2071 7.00385C12.8166 6.61331 12.1835 6.6133 11.7929 7.00381L8.96872 9.82787L8.17439 9.10239C7.7666 8.72993 7.13408 8.75858 6.76163 9.16638C6.38917 9.57418 6.41783 10.2067 6.82562 10.5791L8.32562 11.9491C8.72042 12.3097 9.32901 12.296 9.7071 11.9179L13.2071 8.41806ZM13.2071 17.0038C13.5976 17.3944 13.5976 18.0275 13.2071 18.4181L9.7071 21.9179C9.32901 22.296 8.72042 22.3097 8.32562 21.9491L6.82562 20.5791C6.41783 20.2067 6.38917 19.5742 6.76163 19.1664C7.13408 18.7586 7.7666 18.7299 8.17439 19.1024L8.96872 19.8279L11.7929 17.0038C12.1835 16.6133 12.8166 16.6133 13.2071 17.0038ZM16.5 18.2109C15.9477 18.2109 15.5 18.6587 15.5 19.2109C15.5 19.7632 15.9477 20.2109 16.5 20.2109H19.8414C19.6203 19.5854 19.5 18.9122 19.5 18.2109H16.5ZM6.5 26.2109H16.6C16.5344 26.534 16.5 26.8685 16.5 27.2109C16.5 27.5446 16.5251 27.879 16.5762 28.2109H6.5C3.18629 28.2109 0.5 25.5246 0.5 22.2109V6.21094C0.5 2.89723 3.18629 0.210938 6.5 0.210938H22.5C25.8137 0.210938 28.5 2.89723 28.5 6.21094V13.0136C27.8926 12.6623 27.2179 12.4143 26.5 12.2939V6.21094C26.5 4.0018 24.7091 2.21094 22.5 2.21094H6.5C4.29086 2.21094 2.5 4.0018 2.5 6.21094V22.2109C2.5 24.4201 4.29086 26.2109 6.5 26.2109ZM15.5 9.21094C15.5 8.65865 15.9477 8.21094 16.5 8.21094H21.5C22.0523 8.21094 22.5 8.65865 22.5 9.21094C22.5 9.76322 22.0523 10.2109 21.5 10.2109H16.5C15.9477 10.2109 15.5 9.76322 15.5 9.21094ZM29.5 18.2109C29.5 20.4201 27.7091 22.2109 25.5 22.2109C23.2909 22.2109 21.5 20.4201 21.5 18.2109C21.5 16.0018 23.2909 14.2109 25.5 14.2109C27.7091 14.2109 29.5 16.0018 29.5 18.2109ZM32.5 27.2109C32.5 29.7013 30.5 32.2109 25.5 32.2109C20.5 32.211 18.5 29.7107 18.5 27.2109C18.5 25.5541 19.8431 24.2109 21.5 24.2109H29.5C31.1569 24.2109 32.5 25.5541 32.5 27.2109Z" fill="#151FE1"/>
</g>
<defs>
<clipPath id="clip0_91_6829">
<rect width="33" height="33" fill="white"/>
</clipPath>
</defs>
</svg>
